<svg class="main-svg" xmlns="http://www.w3.org/2000/svg" xmlns:xlink="http://www.w3.org/1999/xlink" width="800" height="800" style="" viewBox="0 0 400 400"><rect x="0" y="0" width="400" height="400" style="fill: rgb(255, 255, 255); fill-opacity: 1;"/><defs id="defs-8003e1"><g class="clips"><clipPath id="clip8003e1xyplot" class="plotclip"><rect width="296" height="278"/></clipPath><clipPath class="axesclip" id="clip8003e1x"><rect x="94" y="0" width="296" height="400"/></clipPath><clipPath class="axesclip" id="clip8003e1y"><rect x="0" y="70" width="400" height="278"/></clipPath><clipPath class="axesclip" id="clip8003e1xy"><rect x="94" y="70" width="296" height="278"/></clipPath></g><g class="gradients"/><g class="patterns"/></defs><g class="bglayer"><rect class="bg" x="94" y="70" width="296" height="278" style="fill: rgb(229, 236, 246); fill-opacity: 1; stroke-width: 0;"/></g><g class="layer-below"><g class="imagelayer"/><g class="shapelayer"/></g><g class="cartesianlayer"><g class="subplot xy"><g class="layer-subplot"><g class="shapelayer"/><g class="imagelayer"/></g><g class="minor-gridlayer"><g class="x"/><g class="y"><path class="ygrid crisp" transform="translate(0,255)" d="M94,0h296" style="stroke: rgb(153, 158, 165); stroke-opacity: 1; stroke-width: 10px;"/><path class="ygrid crisp" transform="translate(0,181.4)" d="M94,0h296" style="stroke: rgb(153, 158, 165); stroke-opacity: 1; stroke-width: 10px;"/></g></g><g class="gridlayer"><g class="x"><path class="xgrid crisp" transform="translate(115,0)" d="M0,70v278" style="stroke: rgb(255, 255, 255); stroke-opacity: 1; stroke-width: 1px;"/><path class="xgrid crisp" transform="translate(181.84,0)" d="M0,70v278" style="stroke: rgb(255, 255, 255); stroke-opacity: 1; stroke-width: 1px;"/><path class="xgrid crisp" transform="translate(248.68,0)" d="M0,70v278" style="stroke: rgb(255, 255, 255); stroke-opacity: 1; stroke-width: 1px;"/><path class="xgrid crisp" transform="translate(315.53,0)" d="M0,70v278" style="stroke: rgb(255, 255, 255); stroke-opacity: 1; stroke-width: 1px;"/><path class="xgrid crisp" transform="translate(382.37,0)" d="M0,70v278" style="stroke: rgb(255, 255, 255); stroke-opacity: 1; stroke-width: 1px;"/></g><g class="y"/></g><g class="zerolinelayer"/><path class="xlines-below"/><path class="ylines-below"/><g class="overlines-below"/><g class="xaxislayer-below"/><g class="yaxislayer-below"/><g class="overaxes-below"/><g class="plot" transform="translate(94,70)" clip-path="url(#clip8003e1xyplot)"><g class="scatterlayer mlayer"><g class="trace scatter tracef3b3dc" style="stroke-miterlimit: 2; opacity: 1;"><g class="fills"/><g class="errorbars"/><g class="lines"><path class="js-line" d="M21,249.4L47.74,65.4L61.11,65.4L87.84,65.4L101.21,249.4L114.58,157.4L127.95,249.4L141.32,249.4L154.68,157.4L168.05,65.4L181.42,65.4L208.16,65.4L221.53,249.4L234.89,157.4L248.26,249.4L261.63,249.4L275,157.4" style="vector-effect: none; fill: none; stroke: rgb(238, 202, 59); stroke-opacity: 1; stroke-width: 0.5px; opacity: 1;"/></g><g class="points"><path class="point" transform="translate(21,249.4)" d="M3,0A3,3 0 1,1 0,-3A3,3 0 0,1 3,0Z" style="opacity: 1; stroke-width: 0px; fill: rgb(238, 202, 59); fill-opacity: 1;"/><path class="point" transform="translate(34.37,157.4)" d="M3,0A3,3 0 1,1 0,-3A3,3 0 0,1 3,0Z" style="opacity: 1; stroke-width: 0px; fill: rgb(238, 202, 59); fill-opacity: 1;"/><path class="point" transform="translate(47.74,65.4)" d="M3,0A3,3 0 1,1 0,-3A3,3 0 0,1 3,0Z" style="opacity: 1; stroke-width: 0px; fill: rgb(238, 202, 59); fill-opacity: 1;"/><path class="point" transform="translate(61.11,65.4)" d="M3,0A3,3 0 1,1 0,-3A3,3 0 0,1 3,0Z" style="opacity: 1; stroke-width: 0px; fill: rgb(238, 202, 59); fill-opacity: 1;"/><path class="point" transform="translate(74.47,65.4)" d="M3,0A3,3 0 1,1 0,-3A3,3 0 0,1 3,0Z" style="opacity: 1; stroke-width: 0px; fill: rgb(238, 202, 59); fill-opacity: 1;"/><path class="point" transform="translate(87.84,65.4)" d="M3,0A3,3 0 1,1 0,-3A3,3 0 0,1 3,0Z" style="opacity: 1; stroke-width: 0px; fill: rgb(238, 202, 59); fill-opacity: 1;"/><path class="point" transform="translate(101.21,249.4)" d="M3,0A3,3 0 1,1 0,-3A3,3 0 0,1 3,0Z" style="opacity: 1; stroke-width: 0px; fill: rgb(238, 202, 59); fill-opacity: 1;"/><path class="point" transform="translate(114.58,157.4)" d="M3,0A3,3 0 1,1 0,-3A3,3 0 0,1 3,0Z" style="opacity: 1; stroke-width: 0px; fill: rgb(238, 202, 59); fill-opacity: 1;"/><path class="point" transform="translate(127.95,249.4)" d="M3,0A3,3 0 1,1 0,-3A3,3 0 0,1 3,0Z" style="opacity: 1; stroke-width: 0px; fill: rgb(238, 202, 59); fill-opacity: 1;"/><path class="point" transform="translate(141.32,249.4)" d="M3,0A3,3 0 1,1 0,-3A3,3 0 0,1 3,0Z" style="opacity: 1; stroke-width: 0px; fill: rgb(238, 202, 59); fill-opacity: 1;"/><path class="point" transform="translate(154.68,157.4)" d="M3,0A3,3 0 1,1 0,-3A3,3 0 0,1 3,0Z" style="opacity: 1; stroke-width: 0px; fill: rgb(238, 202, 59); fill-opacity: 1;"/><path class="point" transform="translate(168.05,65.4)" d="M3,0A3,3 0 1,1 0,-3A3,3 0 0,1 3,0Z" style="opacity: 1; stroke-width: 0px; fill: rgb(238, 202, 59); fill-opacity: 1;"/><path class="point" transform="translate(181.42,65.4)" d="M3,0A3,3 0 1,1 0,-3A3,3 0 0,1 3,0Z" style="opacity: 1; stroke-width: 0px; fill: rgb(238, 202, 59); fill-opacity: 1;"/><path class="point" transform="translate(194.79,65.4)" d="M3,0A3,3 0 1,1 0,-3A3,3 0 0,1 3,0Z" style="opacity: 1; stroke-width: 0px; fill: rgb(238, 202, 59); fill-opacity: 1;"/><path class="point" transform="translate(208.16,65.4)" d="M3,0A3,3 0 1,1 0,-3A3,3 0 0,1 3,0Z" style="opacity: 1; stroke-width: 0px; fill: rgb(238, 202, 59); fill-opacity: 1;"/><path class="point" transform="translate(221.53,249.4)" d="M3,0A3,3 0 1,1 0,-3A3,3 0 0,1 3,0Z" style="opacity: 1; stroke-width: 0px; fill: rgb(238, 202, 59); fill-opacity: 1;"/><path class="point" transform="translate(234.89,157.4)" d="M3,0A3,3 0 1,1 0,-3A3,3 0 0,1 3,0Z" style="opacity: 1; stroke-width: 0px; fill: rgb(238, 202, 59); fill-opacity: 1;"/><path class="point" transform="translate(248.26,249.4)" d="M3,0A3,3 0 1,1 0,-3A3,3 0 0,1 3,0Z" style="opacity: 1; stroke-width: 0px; fill: rgb(238, 202, 59); fill-opacity: 1;"/><path class="point" transform="translate(261.63,249.4)" d="M3,0A3,3 0 1,1 0,-3A3,3 0 0,1 3,0Z" style="opacity: 1; stroke-width: 0px; fill: rgb(238, 202, 59); fill-opacity: 1;"/><path class="point" transform="translate(275,157.4)" d="M3,0A3,3 0 1,1 0,-3A3,3 0 0,1 3,0Z" style="opacity: 1; stroke-width: 0px; fill: rgb(238, 202, 59); fill-opacity: 1;"/></g><g class="text"/></g><g class="trace scatter trace2bae60" style="stroke-miterlimit: 2; opacity: 1;"><g class="fills"/><g class="errorbars"/><g class="lines"><path class="js-line" d="M21,139L34.37,139L47.74,231L61.11,139L74.47,139L154.68,139L168.05,47L194.79,47L208.16,139L248.26,139L261.63,47L275,139" style="vector-effect: none; fill: none; stroke: rgb(163, 73, 164); stroke-opacity: 1; stroke-width: 0.5px; opacity: 1;"/></g><g class="points"/><g class="text"/></g></g></g><g class="overplot"/><path class="xlines-above crisp" d="M0,0" style="fill: none;"/><path class="ylines-above crisp" d="M93.5,70V348" style="fill: none; stroke-width: 1px; stroke: rgb(255, 255, 255); stroke-opacity: 1;"/><g class="overlines-above"/><g class="xaxislayer-above"><g class="xtick"><text text-anchor="middle" x="0" y="361" transform="translate(115,0)" style="font-family: 'Open Sans', verdana, arial, sans-serif; font-size: 12px; fill: rgb(42, 63, 95); fill-opacity: 1; white-space: pre; opacity: 1;">0</text></g><g class="xtick"><text text-anchor="middle" x="0" y="361" style="font-family: 'Open Sans', verdana, arial, sans-serif; font-size: 12px; fill: rgb(42, 63, 95); fill-opacity: 1; white-space: pre; opacity: 1;" transform="translate(181.84,0)">5</text></g><g class="xtick"><text text-anchor="middle" x="0" y="361" style="font-family: 'Open Sans', verdana, arial, sans-serif; font-size: 12px; fill: rgb(42, 63, 95); fill-opacity: 1; white-space: pre; opacity: 1;" transform="translate(248.68,0)">10</text></g><g class="xtick"><text text-anchor="middle" x="0" y="361" style="font-family: 'Open Sans', verdana, arial, sans-serif; font-size: 12px; fill: rgb(42, 63, 95); fill-opacity: 1; white-space: pre; opacity: 1;" transform="translate(315.53,0)">15</text></g><g class="xtick"><text text-anchor="middle" x="0" y="361" style="font-family: 'Open Sans', verdana, arial, sans-serif; font-size: 12px; fill: rgb(42, 63, 95); fill-opacity: 1; white-space: pre; opacity: 1;" transform="translate(382.37,0)">20</text></g></g><g class="yaxislayer-above"><g class="ytick"><text text-anchor="end" x="90.6" y="4.199999999999999" transform="translate(0,310.2)" style="font-family: 'Open Sans', verdana, arial, sans-serif; font-size: 12px; fill: rgb(42, 63, 95); fill-opacity: 1; white-space: pre; opacity: 1;">Idle</text></g><g class="ytick"><text text-anchor="end" x="90.6" y="4.199999999999999" style="font-family: 'Open Sans', verdana, arial, sans-serif; font-size: 12px; fill: rgb(42, 63, 95); fill-opacity: 1; white-space: pre; opacity: 1;" transform="translate(0,218.2)">Transition</text></g><g class="ytick"><text text-anchor="end" x="90.6" y="4.199999999999999" style="font-family: 'Open Sans', verdana, arial, sans-serif; font-size: 12px; fill: rgb(42, 63, 95); fill-opacity: 1; white-space: pre; opacity: 1;" transform="translate(0,126.2)">Active</text></g></g><g class="overaxes-above"/></g></g><g class="polarlayer"/><g class="smithlayer"/><g class="ternarylayer"/><g class="geolayer"/><g class="funnelarealayer"/><g class="pielayer"/><g class="iciclelayer"/><g class="treemaplayer"/><g class="sunburstlayer"/><g class="glimages"/><defs id="topdefs-8003e1"><g class="clips"/></defs><g class="layer-above"><g class="imagelayer"/><g class="shapelayer"><g class="shape-group" data-index="0" clip-path="url(#clip8003e1xy)"><path data-index="0" fill-rule="evenodd" d="M362.32,347H375.68V71H362.32Z" style="opacity: 1; stroke: rgb(42, 63, 95); stroke-opacity: 1; fill: rgb(182, 182, 182); fill-opacity: 0.1; stroke-width: 2px;"/></g></g></g><g class="infolayer"><g class="g-gtitle"><text class="gtitle" x="20" y="35" text-anchor="start" dy="0em" style="font-family: 'Open Sans', verdana, arial, sans-serif; font-size: 17px; fill: rgb(42, 63, 95); opacity: 1; font-weight: normal; white-space: pre;"><tspan class="line" dy="0em" x="20" y="35"><tspan style="font-weight:bold">State Machine evolution</tspan> - Iteration 19</tspan><tspan class="line" dy="1.3em" x="20" y="35">SF active-TS idle-MED shutting down</tspan><tspan class="line" dy="2.6em" x="20" y="35"></tspan></text></g><g class="g-xtitle"><text class="xtitle" x="242" y="389.3" text-anchor="middle" style="font-family: 'Open Sans', verdana, arial, sans-serif; font-size: 14px; fill: rgb(42, 63, 95); opacity: 1; font-weight: normal; white-space: pre;">Time</text></g><g class="g-ytitle" transform="translate(4.9248046875,0)"><text class="ytitle" transform="rotate(-90,10.075000000000003,209)" x="10.075000000000003" y="209" text-anchor="middle" style="font-family: 'Open Sans', verdana, arial, sans-serif; font-size: 14px; fill: rgb(42, 63, 95); opacity: 1; font-weight: normal; white-space: pre;">State</text></g><g class="annotation" data-index="0" style="opacity: 1;"><g class="annotation-text-g" transform="rotate(0,115,319.4)"><g class="cursor-pointer" transform="translate(94,307)"><rect class="bg" x="1.5" y="1.5" width="39" height="22" style="stroke-width: 3px; stroke: rgb(0, 0, 0); stroke-opacity: 0; fill: rgb(226, 226, 226); fill-opacity: 1;"/><text class="annotation-text" text-anchor="middle" x="20.90625" y="17" style="font-family: 'Open Sans', verdana, arial, sans-serif; font-size: 12px; fill: rgb(42, 63, 95); fill-opacity: 1; white-space: pre;">S̲F̲ T̲S̲</text></g></g></g><g class="annotation" data-index="1" style="opacity: 1;"><g class="annotation-text-g" transform="rotate(0,115,209)"><g class="cursor-pointer" transform="translate(98,197)"><rect class="bg" x="1.5" y="1.5" width="32" height="22" style="stroke-width: 3px; stroke: rgb(125, 190, 60); stroke-opacity: 1; fill: rgb(255, 255, 255); fill-opacity: 1;"/><text class="annotation-text" text-anchor="middle" x="17.34375" y="17" style="font-family: 'Open Sans', verdana, arial, sans-serif; font-size: 12px; fill: rgb(42, 63, 95); fill-opacity: 1; white-space: pre;">M̲E̲D̲</text></g></g></g><g class="annotation" data-index="2" style="opacity: 1;"><g class="annotation-text-g" transform="rotate(0,128.37,227.4)"><g class="cursor-pointer" transform="translate(107,215)"><rect class="bg" x="1.5" y="1.5" width="39" height="22" style="stroke-width: 3px; stroke: rgb(238, 202, 59); stroke-opacity: 1; fill: rgb(255, 255, 255); fill-opacity: 1;"/><text class="annotation-text" text-anchor="middle" x="20.90625" y="17" style="font-family: 'Open Sans', verdana, arial, sans-serif; font-size: 12px; fill: rgb(42, 63, 95); fill-opacity: 1; white-space: pre;">S̅F̅ T̲S̲</text></g></g></g><g class="annotation" data-index="3" style="opacity: 1;"><g class="annotation-text-g" transform="rotate(0,128.37,209)"><g class="cursor-pointer" transform="translate(111,197)"><rect class="bg" x="1.5" y="1.5" width="32" height="22" style="stroke-width: 3px; stroke: rgb(125, 190, 60); stroke-opacity: 1; fill: rgb(255, 255, 255); fill-opacity: 1;"/><text class="annotation-text" text-anchor="middle" x="17.34375" y="17" style="font-family: 'Open Sans', verdana, arial, sans-serif; font-size: 12px; fill: rgb(42, 63, 95); fill-opacity: 1; white-space: pre;">M̲E̲D̲</text></g></g></g><g class="annotation" data-index="4" style="opacity: 1;"><g class="annotation-text-g" transform="rotate(0,141.74,135.4)"><g class="cursor-pointer" transform="translate(121,123)"><rect class="bg" x="1.5" y="1.5" width="39" height="22" style="stroke-width: 3px; stroke: rgb(238, 202, 59); stroke-opacity: 1; fill: rgb(238, 202, 59); fill-opacity: 1;"/><text class="annotation-text" text-anchor="middle" x="20.90625" y="17" style="font-family: 'Open Sans', verdana, arial, sans-serif; font-size: 12px; fill: rgb(42, 63, 95); fill-opacity: 1; white-space: pre;">S̅F̅ T̅S̅</text></g></g></g><g class="annotation" data-index="5" style="opacity: 1;"><g class="annotation-text-g" transform="rotate(0,141.74,301)"><g class="cursor-pointer" transform="translate(124,289)"><rect class="bg" x="1.5" y="1.5" width="32" height="22" style="stroke-width: 3px; stroke: rgb(0, 0, 0); stroke-opacity: 0; fill: rgb(226, 226, 226); fill-opacity: 1;"/><text class="annotation-text" text-anchor="middle" x="17.34375" y="17" style="font-family: 'Open Sans', verdana, arial, sans-serif; font-size: 12px; fill: rgb(42, 63, 95); fill-opacity: 1; white-space: pre;">M̲E̲D̲</text></g></g></g><g class="annotation" data-index="6" style="opacity: 1;"><g class="annotation-text-g" transform="rotate(0,155.11,135.4)"><g class="cursor-pointer" transform="translate(134,123)"><rect class="bg" x="1.5" y="1.5" width="39" height="22" style="stroke-width: 3px; stroke: rgb(238, 202, 59); stroke-opacity: 1; fill: rgb(238, 202, 59); fill-opacity: 1;"/><text class="annotation-text" text-anchor="middle" x="20.90625" y="17" style="font-family: 'Open Sans', verdana, arial, sans-serif; font-size: 12px; fill: rgb(42, 63, 95); fill-opacity: 1; white-space: pre;">S̅F̅ T̅S̅</text></g></g></g><g class="annotation" data-index="7" style="opacity: 1;"><g class="annotation-text-g" transform="rotate(0,155.11,209)"><g class="cursor-pointer" transform="translate(138,197)"><rect class="bg" x="1.5" y="1.5" width="32" height="22" style="stroke-width: 3px; stroke: rgb(125, 190, 60); stroke-opacity: 1; fill: rgb(255, 255, 255); fill-opacity: 1;"/><text class="annotation-text" text-anchor="middle" x="17.34375" y="17" style="font-family: 'Open Sans', verdana, arial, sans-serif; font-size: 12px; fill: rgb(42, 63, 95); fill-opacity: 1; white-space: pre;">M̲E̲D̲</text></g></g></g><g class="annotation" data-index="8" style="opacity: 1;"><g class="annotation-text-g" transform="rotate(0,168.47,135.4)"><g class="cursor-pointer" transform="translate(147,123)"><rect class="bg" x="1.5" y="1.5" width="39" height="22" style="stroke-width: 3px; stroke: rgb(238, 202, 59); stroke-opacity: 1; fill: rgb(238, 202, 59); fill-opacity: 1;"/><text class="annotation-text" text-anchor="middle" x="20.90625" y="17" style="font-family: 'Open Sans', verdana, arial, sans-serif; font-size: 12px; fill: rgb(42, 63, 95); fill-opacity: 1; white-space: pre;">S̅F̅ T̅S̅</text></g></g></g><g class="annotation" data-index="9" style="opacity: 1;"><g class="annotation-text-g" transform="rotate(0,168.47,209)"><g class="cursor-pointer" transform="translate(151,197)"><rect class="bg" x="1.5" y="1.5" width="32" height="22" style="stroke-width: 3px; stroke: rgb(125, 190, 60); stroke-opacity: 1; fill: rgb(255, 255, 255); fill-opacity: 1;"/><text class="annotation-text" text-anchor="middle" x="17.34375" y="17" style="font-family: 'Open Sans', verdana, arial, sans-serif; font-size: 12px; fill: rgb(42, 63, 95); fill-opacity: 1; white-space: pre;">M̲E̲D̲</text></g></g></g><g class="annotation" data-index="10" style="opacity: 1;"><g class="annotation-text-g" transform="rotate(0,181.84,135.4)"><g class="cursor-pointer" transform="translate(161,123)"><rect class="bg" x="1.5" y="1.5" width="39" height="22" style="stroke-width: 3px; stroke: rgb(238, 202, 59); stroke-opacity: 1; fill: rgb(238, 202, 59); fill-opacity: 1;"/><text class="annotation-text" text-anchor="middle" x="20.90625" y="17" style="font-family: 'Open Sans', verdana, arial, sans-serif; font-size: 12px; fill: rgb(42, 63, 95); fill-opacity: 1; white-space: pre;">S̅F̅ T̅S̅</text></g></g></g><g class="annotation" data-index="11" style="opacity: 1;"><g class="annotation-text-g" transform="rotate(0,181.84,209)"><g class="cursor-pointer" transform="translate(164,197)"><rect class="bg" x="1.5" y="1.5" width="32" height="22" style="stroke-width: 3px; stroke: rgb(125, 190, 60); stroke-opacity: 1; fill: rgb(255, 255, 255); fill-opacity: 1;"/><text class="annotation-text" text-anchor="middle" x="17.34375" y="17" style="font-family: 'Open Sans', verdana, arial, sans-serif; font-size: 12px; fill: rgb(42, 63, 95); fill-opacity: 1; white-space: pre;">M̲E̲D̲</text></g></g></g><g class="annotation" data-index="12" style="opacity: 1;"><g class="annotation-text-g" transform="rotate(0,195.20999999999998,319.4)"><g class="cursor-pointer" transform="translate(174,307)"><rect class="bg" x="1.5" y="1.5" width="39" height="22" style="stroke-width: 3px; stroke: rgb(0, 0, 0); stroke-opacity: 0; fill: rgb(226, 226, 226); fill-opacity: 1;"/><text class="annotation-text" text-anchor="middle" x="20.90625" y="17" style="font-family: 'Open Sans', verdana, arial, sans-serif; font-size: 12px; fill: rgb(42, 63, 95); fill-opacity: 1; white-space: pre;">S̲F̲ T̲S̲</text></g></g></g><g class="annotation" data-index="13" style="opacity: 1;"><g class="annotation-text-g" transform="rotate(0,195.20999999999998,209)"><g class="cursor-pointer" transform="translate(178,197)"><rect class="bg" x="1.5" y="1.5" width="32" height="22" style="stroke-width: 3px; stroke: rgb(125, 190, 60); stroke-opacity: 1; fill: rgb(255, 255, 255); fill-opacity: 1;"/><text class="annotation-text" text-anchor="middle" x="17.34375" y="17" style="font-family: 'Open Sans', verdana, arial, sans-serif; font-size: 12px; fill: rgb(42, 63, 95); fill-opacity: 1; white-space: pre;">M̲E̲D̲</text></g></g></g><g class="annotation" data-index="14" style="opacity: 1;"><g class="annotation-text-g" transform="rotate(0,208.57999999999998,227.4)"><g class="cursor-pointer" transform="translate(188,215)"><rect class="bg" x="1.5" y="1.5" width="39" height="22" style="stroke-width: 3px; stroke: rgb(238, 202, 59); stroke-opacity: 1; fill: rgb(255, 255, 255); fill-opacity: 1;"/><text class="annotation-text" text-anchor="middle" x="20.90625" y="17" style="font-family: 'Open Sans', verdana, arial, sans-serif; font-size: 12px; fill: rgb(42, 63, 95); fill-opacity: 1; white-space: pre;">S̅F̅ T̲S̲</text></g></g></g><g class="annotation" data-index="15" style="opacity: 1;"><g class="annotation-text-g" transform="rotate(0,208.57999999999998,209)"><g class="cursor-pointer" transform="translate(191,197)"><rect class="bg" x="1.5" y="1.5" width="32" height="22" style="stroke-width: 3px; stroke: rgb(125, 190, 60); stroke-opacity: 1; fill: rgb(255, 255, 255); fill-opacity: 1;"/><text class="annotation-text" text-anchor="middle" x="17.34375" y="17" style="font-family: 'Open Sans', verdana, arial, sans-serif; font-size: 12px; fill: rgb(42, 63, 95); fill-opacity: 1; white-space: pre;">M̲E̲D̲</text></g></g></g><g class="annotation" data-index="16" style="opacity: 1;"><g class="annotation-text-g" transform="rotate(0,221.95,319.4)"><g class="cursor-pointer" transform="translate(201,307)"><rect class="bg" x="1.5" y="1.5" width="39" height="22" style="stroke-width: 3px; stroke: rgb(0, 0, 0); stroke-opacity: 0; fill: rgb(226, 226, 226); fill-opacity: 1;"/><text class="annotation-text" text-anchor="middle" x="20.90625" y="17" style="font-family: 'Open Sans', verdana, arial, sans-serif; font-size: 12px; fill: rgb(42, 63, 95); fill-opacity: 1; white-space: pre;">S̲F̲ T̲S̲</text></g></g></g><g class="annotation" data-index="17" style="opacity: 1;"><g class="annotation-text-g" transform="rotate(0,221.95,209)"><g class="cursor-pointer" transform="translate(204,197)"><rect class="bg" x="1.5" y="1.5" width="32" height="22" style="stroke-width: 3px; stroke: rgb(125, 190, 60); stroke-opacity: 1; fill: rgb(255, 255, 255); fill-opacity: 1;"/><text class="annotation-text" text-anchor="middle" x="17.34375" y="17" style="font-family: 'Open Sans', verdana, arial, sans-serif; font-size: 12px; fill: rgb(42, 63, 95); fill-opacity: 1; white-space: pre;">M̲E̲D̲</text></g></g></g><g class="annotation" data-index="18" style="opacity: 1;"><g class="annotation-text-g" transform="rotate(0,235.32,319.4)"><g class="cursor-pointer" transform="translate(214,307)"><rect class="bg" x="1.5" y="1.5" width="39" height="22" style="stroke-width: 3px; stroke: rgb(0, 0, 0); stroke-opacity: 0; fill: rgb(226, 226, 226); fill-opacity: 1;"/><text class="annotation-text" text-anchor="middle" x="20.90625" y="17" style="font-family: 'Open Sans', verdana, arial, sans-serif; font-size: 12px; fill: rgb(42, 63, 95); fill-opacity: 1; white-space: pre;">S̲F̲ T̲S̲</text></g></g></g><g class="annotation" data-index="19" style="opacity: 1;"><g class="annotation-text-g" transform="rotate(0,235.32,209)"><g class="cursor-pointer" transform="translate(218,197)"><rect class="bg" x="1.5" y="1.5" width="32" height="22" style="stroke-width: 3px; stroke: rgb(125, 190, 60); stroke-opacity: 1; fill: rgb(255, 255, 255); fill-opacity: 1;"/><text class="annotation-text" text-anchor="middle" x="17.34375" y="17" style="font-family: 'Open Sans', verdana, arial, sans-serif; font-size: 12px; fill: rgb(42, 63, 95); fill-opacity: 1; white-space: pre;">M̲E̲D̲</text></g></g></g><g class="annotation" data-index="20" style="opacity: 1;"><g class="annotation-text-g" transform="rotate(0,248.68,227.4)"><g class="cursor-pointer" transform="translate(228,215)"><rect class="bg" x="1.5" y="1.5" width="39" height="22" style="stroke-width: 3px; stroke: rgb(238, 202, 59); stroke-opacity: 1; fill: rgb(255, 255, 255); fill-opacity: 1;"/><text class="annotation-text" text-anchor="middle" x="20.90625" y="17" style="font-family: 'Open Sans', verdana, arial, sans-serif; font-size: 12px; fill: rgb(42, 63, 95); fill-opacity: 1; white-space: pre;">S̅F̅ T̲S̲</text></g></g></g><g class="annotation" data-index="21" style="opacity: 1;"><g class="annotation-text-g" transform="rotate(0,248.68,209)"><g class="cursor-pointer" transform="translate(231,197)"><rect class="bg" x="1.5" y="1.5" width="32" height="22" style="stroke-width: 3px; stroke: rgb(125, 190, 60); stroke-opacity: 1; fill: rgb(255, 255, 255); fill-opacity: 1;"/><text class="annotation-text" text-anchor="middle" x="17.34375" y="17" style="font-family: 'Open Sans', verdana, arial, sans-serif; font-size: 12px; fill: rgb(42, 63, 95); fill-opacity: 1; white-space: pre;">M̲E̲D̲</text></g></g></g><g class="annotation" data-index="22" style="opacity: 1;"><g class="annotation-text-g" transform="rotate(0,262.05,135.4)"><g class="cursor-pointer" transform="translate(241,123)"><rect class="bg" x="1.5" y="1.5" width="39" height="22" style="stroke-width: 3px; stroke: rgb(238, 202, 59); stroke-opacity: 1; fill: rgb(238, 202, 59); fill-opacity: 1;"/><text class="annotation-text" text-anchor="middle" x="20.90625" y="17" style="font-family: 'Open Sans', verdana, arial, sans-serif; font-size: 12px; fill: rgb(42, 63, 95); fill-opacity: 1; white-space: pre;">S̅F̅ T̅S̅</text></g></g></g><g class="annotation" data-index="23" style="opacity: 1;"><g class="annotation-text-g" transform="rotate(0,262.05,117)"><g class="cursor-pointer" transform="translate(245,105)"><rect class="bg" x="1.5" y="1.5" width="32" height="22" style="stroke-width: 3px; stroke: rgb(125, 190, 60); stroke-opacity: 1; fill: rgb(125, 190, 60); fill-opacity: 1;"/><text class="annotation-text" text-anchor="middle" x="17.34375" y="17" style="font-family: 'Open Sans', verdana, arial, sans-serif; font-size: 12px; fill: rgb(42, 63, 95); fill-opacity: 1; white-space: pre;">M̅E̅D̅</text></g></g></g><g class="annotation" data-index="24" style="opacity: 1;"><g class="annotation-text-g" transform="rotate(0,275.41999999999996,135.4)"><g class="cursor-pointer" transform="translate(254,123)"><rect class="bg" x="1.5" y="1.5" width="39" height="22" style="stroke-width: 3px; stroke: rgb(238, 202, 59); stroke-opacity: 1; fill: rgb(238, 202, 59); fill-opacity: 1;"/><text class="annotation-text" text-anchor="middle" x="20.90625" y="17" style="font-family: 'Open Sans', verdana, arial, sans-serif; font-size: 12px; fill: rgb(42, 63, 95); fill-opacity: 1; white-space: pre;">S̅F̅ T̅S̅</text></g></g></g><g class="annotation" data-index="25" style="opacity: 1;"><g class="annotation-text-g" transform="rotate(0,275.41999999999996,117)"><g class="cursor-pointer" transform="translate(258,105)"><rect class="bg" x="1.5" y="1.5" width="32" height="22" style="stroke-width: 3px; stroke: rgb(125, 190, 60); stroke-opacity: 1; fill: rgb(125, 190, 60); fill-opacity: 1;"/><text class="annotation-text" text-anchor="middle" x="17.34375" y="17" style="font-family: 'Open Sans', verdana, arial, sans-serif; font-size: 12px; fill: rgb(42, 63, 95); fill-opacity: 1; white-space: pre;">M̅E̅D̅</text></g></g></g><g class="annotation" data-index="26" style="opacity: 1;"><g class="annotation-text-g" transform="rotate(0,288.78999999999996,135.4)"><g class="cursor-pointer" transform="translate(268,123)"><rect class="bg" x="1.5" y="1.5" width="39" height="22" style="stroke-width: 3px; stroke: rgb(238, 202, 59); stroke-opacity: 1; fill: rgb(238, 202, 59); fill-opacity: 1;"/><text class="annotation-text" text-anchor="middle" x="20.90625" y="17" style="font-family: 'Open Sans', verdana, arial, sans-serif; font-size: 12px; fill: rgb(42, 63, 95); fill-opacity: 1; white-space: pre;">S̅F̅ T̅S̅</text></g></g></g><g class="annotation" data-index="27" style="opacity: 1;"><g class="annotation-text-g" transform="rotate(0,288.78999999999996,117)"><g class="cursor-pointer" transform="translate(271,105)"><rect class="bg" x="1.5" y="1.5" width="32" height="22" style="stroke-width: 3px; stroke: rgb(125, 190, 60); stroke-opacity: 1; fill: rgb(125, 190, 60); fill-opacity: 1;"/><text class="annotation-text" text-anchor="middle" x="17.34375" y="17" style="font-family: 'Open Sans', verdana, arial, sans-serif; font-size: 12px; fill: rgb(42, 63, 95); fill-opacity: 1; white-space: pre;">M̅E̅D̅</text></g></g></g><g class="annotation" data-index="28" style="opacity: 1;"><g class="annotation-text-g" transform="rotate(0,302.15999999999997,135.4)"><g class="cursor-pointer" transform="translate(281,123)"><rect class="bg" x="1.5" y="1.5" width="39" height="22" style="stroke-width: 3px; stroke: rgb(238, 202, 59); stroke-opacity: 1; fill: rgb(238, 202, 59); fill-opacity: 1;"/><text class="annotation-text" text-anchor="middle" x="20.90625" y="17" style="font-family: 'Open Sans', verdana, arial, sans-serif; font-size: 12px; fill: rgb(42, 63, 95); fill-opacity: 1; white-space: pre;">S̅F̅ T̅S̅</text></g></g></g><g class="annotation" data-index="29" style="opacity: 1;"><g class="annotation-text-g" transform="rotate(0,302.15999999999997,209)"><g class="cursor-pointer" transform="translate(285,197)"><rect class="bg" x="1.5" y="1.5" width="32" height="22" style="stroke-width: 3px; stroke: rgb(125, 190, 60); stroke-opacity: 1; fill: rgb(255, 255, 255); fill-opacity: 1;"/><text class="annotation-text" text-anchor="middle" x="17.34375" y="17" style="font-family: 'Open Sans', verdana, arial, sans-serif; font-size: 12px; fill: rgb(42, 63, 95); fill-opacity: 1; white-space: pre;">M̲E̲D̲</text></g></g></g><g class="annotation" data-index="30" style="opacity: 1;"><g class="annotation-text-g" transform="rotate(0,315.53,319.4)"><g class="cursor-pointer" transform="translate(295,307)"><rect class="bg" x="1.5" y="1.5" width="39" height="22" style="stroke-width: 3px; stroke: rgb(0, 0, 0); stroke-opacity: 0; fill: rgb(226, 226, 226); fill-opacity: 1;"/><text class="annotation-text" text-anchor="middle" x="20.90625" y="17" style="font-family: 'Open Sans', verdana, arial, sans-serif; font-size: 12px; fill: rgb(42, 63, 95); fill-opacity: 1; white-space: pre;">S̲F̲ T̲S̲</text></g></g></g><g class="annotation" data-index="31" style="opacity: 1;"><g class="annotation-text-g" transform="rotate(0,315.53,209)"><g class="cursor-pointer" transform="translate(298,197)"><rect class="bg" x="1.5" y="1.5" width="32" height="22" style="stroke-width: 3px; stroke: rgb(125, 190, 60); stroke-opacity: 1; fill: rgb(255, 255, 255); fill-opacity: 1;"/><text class="annotation-text" text-anchor="middle" x="17.34375" y="17" style="font-family: 'Open Sans', verdana, arial, sans-serif; font-size: 12px; fill: rgb(42, 63, 95); fill-opacity: 1; white-space: pre;">M̲E̲D̲</text></g></g></g><g class="annotation" data-index="32" style="opacity: 1;"><g class="annotation-text-g" transform="rotate(0,328.89,227.4)"><g class="cursor-pointer" transform="translate(308,215)"><rect class="bg" x="1.5" y="1.5" width="39" height="22" style="stroke-width: 3px; stroke: rgb(238, 202, 59); stroke-opacity: 1; fill: rgb(255, 255, 255); fill-opacity: 1;"/><text class="annotation-text" text-anchor="middle" x="20.90625" y="17" style="font-family: 'Open Sans', verdana, arial, sans-serif; font-size: 12px; fill: rgb(42, 63, 95); fill-opacity: 1; white-space: pre;">S̅F̅ T̲S̲</text></g></g></g><g class="annotation" data-index="33" style="opacity: 1;"><g class="annotation-text-g" transform="rotate(0,328.89,209)"><g class="cursor-pointer" transform="translate(311,197)"><rect class="bg" x="1.5" y="1.5" width="32" height="22" style="stroke-width: 3px; stroke: rgb(125, 190, 60); stroke-opacity: 1; fill: rgb(255, 255, 255); fill-opacity: 1;"/><text class="annotation-text" text-anchor="middle" x="17.34375" y="17" style="font-family: 'Open Sans', verdana, arial, sans-serif; font-size: 12px; fill: rgb(42, 63, 95); fill-opacity: 1; white-space: pre;">M̲E̲D̲</text></g></g></g><g class="annotation" data-index="34" style="opacity: 1;"><g class="annotation-text-g" transform="rotate(0,342.26,319.4)"><g class="cursor-pointer" transform="translate(321,307)"><rect class="bg" x="1.5" y="1.5" width="39" height="22" style="stroke-width: 3px; stroke: rgb(0, 0, 0); stroke-opacity: 0; fill: rgb(226, 226, 226); fill-opacity: 1;"/><text class="annotation-text" text-anchor="middle" x="20.90625" y="17" style="font-family: 'Open Sans', verdana, arial, sans-serif; font-size: 12px; fill: rgb(42, 63, 95); fill-opacity: 1; white-space: pre;">S̲F̲ T̲S̲</text></g></g></g><g class="annotation" data-index="35" style="opacity: 1;"><g class="annotation-text-g" transform="rotate(0,342.26,209)"><g class="cursor-pointer" transform="translate(325,197)"><rect class="bg" x="1.5" y="1.5" width="32" height="22" style="stroke-width: 3px; stroke: rgb(125, 190, 60); stroke-opacity: 1; fill: rgb(255, 255, 255); fill-opacity: 1;"/><text class="annotation-text" text-anchor="middle" x="17.34375" y="17" style="font-family: 'Open Sans', verdana, arial, sans-serif; font-size: 12px; fill: rgb(42, 63, 95); fill-opacity: 1; white-space: pre;">M̲E̲D̲</text></g></g></g><g class="annotation" data-index="36" style="opacity: 1;"><g class="annotation-text-g" transform="rotate(0,355.63,319.4)"><g class="cursor-pointer" transform="translate(335,307)"><rect class="bg" x="1.5" y="1.5" width="39" height="22" style="stroke-width: 3px; stroke: rgb(0, 0, 0); stroke-opacity: 0; fill: rgb(226, 226, 226); fill-opacity: 1;"/><text class="annotation-text" text-anchor="middle" x="20.90625" y="17" style="font-family: 'Open Sans', verdana, arial, sans-serif; font-size: 12px; fill: rgb(42, 63, 95); fill-opacity: 1; white-space: pre;">S̲F̲ T̲S̲</text></g></g></g><g class="annotation" data-index="37" style="opacity: 1;"><g class="annotation-text-g" transform="rotate(0,355.63,117)"><g class="cursor-pointer" transform="translate(338,105)"><rect class="bg" x="1.5" y="1.5" width="32" height="22" style="stroke-width: 3px; stroke: rgb(125, 190, 60); stroke-opacity: 1; fill: rgb(125, 190, 60); fill-opacity: 1;"/><text class="annotation-text" text-anchor="middle" x="17.34375" y="17" style="font-family: 'Open Sans', verdana, arial, sans-serif; font-size: 12px; fill: rgb(42, 63, 95); fill-opacity: 1; white-space: pre;">M̅E̅D̅</text></g></g></g><g class="annotation" data-index="38" style="opacity: 1;"><g class="annotation-text-g" transform="rotate(0,369,227.4)"><g class="cursor-pointer" transform="translate(348,215)"><rect class="bg" x="1.5" y="1.5" width="39" height="22" style="stroke-width: 3px; stroke: rgb(238, 202, 59); stroke-opacity: 1; fill: rgb(255, 255, 255); fill-opacity: 1;"/><text class="annotation-text" text-anchor="middle" x="20.90625" y="17" style="font-family: 'Open Sans', verdana, arial, sans-serif; font-size: 12px; fill: rgb(42, 63, 95); fill-opacity: 1; white-space: pre;">S̅F̅ T̲S̲</text></g></g></g><g class="annotation" data-index="39" style="opacity: 1;"><g class="annotation-text-g" transform="rotate(0,369,209)"><g class="cursor-pointer" transform="translate(352,197)"><rect class="bg" x="1.5" y="1.5" width="32" height="22" style="stroke-width: 3px; stroke: rgb(125, 190, 60); stroke-opacity: 1; fill: rgb(255, 255, 255); fill-opacity: 1;"/><text class="annotation-text" text-anchor="middle" x="17.34375" y="17" style="font-family: 'Open Sans', verdana, arial, sans-serif; font-size: 12px; fill: rgb(42, 63, 95); fill-opacity: 1; white-space: pre;">M̲E̲D̲</text></g></g></g></g></svg>