<svg class="main-svg" xmlns="http://www.w3.org/2000/svg" xmlns:xlink="http://www.w3.org/1999/xlink" width="800" height="800" style="" viewBox="0 0 400 400"><rect x="0" y="0" width="400" height="400" style="fill: rgb(255, 255, 255); fill-opacity: 1;"/><defs id="defs-b120ca"><g class="clips"><clipPath id="clipb120caxyplot" class="plotclip"><rect width="296" height="278"/></clipPath><clipPath class="axesclip" id="clipb120cax"><rect x="94" y="0" width="296" height="400"/></clipPath><clipPath class="axesclip" id="clipb120cay"><rect x="0" y="70" width="400" height="278"/></clipPath><clipPath class="axesclip" id="clipb120caxy"><rect x="94" y="70" width="296" height="278"/></clipPath></g><g class="gradients"/><g class="patterns"/></defs><g class="bglayer"><rect class="bg" x="94" y="70" width="296" height="278" style="fill: rgb(229, 236, 246); fill-opacity: 1; stroke-width: 0;"/></g><g class="layer-below"><g class="imagelayer"/><g class="shapelayer"/></g><g class="cartesianlayer"><g class="subplot xy"><g class="layer-subplot"><g class="shapelayer"/><g class="imagelayer"/></g><g class="minor-gridlayer"><g class="x"/><g class="y"><path class="ygrid crisp" transform="translate(0,255)" d="M94,0h296" style="stroke: rgb(153, 158, 165); stroke-opacity: 1; stroke-width: 10px;"/><path class="ygrid crisp" transform="translate(0,181.4)" d="M94,0h296" style="stroke: rgb(153, 158, 165); stroke-opacity: 1; stroke-width: 10px;"/></g></g><g class="gridlayer"><g class="x"><path class="xgrid crisp" transform="translate(115,0)" d="M0,70v278" style="stroke: rgb(255, 255, 255); stroke-opacity: 1; stroke-width: 1px;"/><path class="xgrid crisp" transform="translate(209.07,0)" d="M0,70v278" style="stroke: rgb(255, 255, 255); stroke-opacity: 1; stroke-width: 1px;"/><path class="xgrid crisp" transform="translate(303.15,0)" d="M0,70v278" style="stroke: rgb(255, 255, 255); stroke-opacity: 1; stroke-width: 1px;"/></g><g class="y"/></g><g class="zerolinelayer"/><path class="xlines-below"/><path class="ylines-below"/><g class="overlines-below"/><g class="xaxislayer-below"/><g class="yaxislayer-below"/><g class="overaxes-below"/><g class="plot" transform="translate(94,70)" clip-path="url(#clipb120caxyplot)"><g class="scatterlayer mlayer"><g class="trace scatter trace24e749" style="stroke-miterlimit: 2; opacity: 1;"><g class="fills"/><g class="errorbars"/><g class="lines"><path class="js-line" d="M21,249.4L39.81,65.4L49.22,65.4L68.04,65.4L77.44,249.4L86.85,157.4L96.26,249.4L105.67,249.4L115.07,157.4L124.48,65.4L133.89,65.4L152.7,65.4L162.11,249.4L171.52,157.4L180.93,249.4L190.33,249.4L199.74,157.4L209.15,65.4L218.56,65.4L237.37,65.4L246.78,249.4L256.19,157.4L265.59,249.4L275,249.4" style="vector-effect: none; fill: none; stroke: rgb(238, 202, 59); stroke-opacity: 1; stroke-width: 0.5px; opacity: 1;"/></g><g class="points"><path class="point" transform="translate(21,249.4)" d="M3,0A3,3 0 1,1 0,-3A3,3 0 0,1 3,0Z" style="opacity: 1; stroke-width: 0px; fill: rgb(238, 202, 59); fill-opacity: 1;"/><path class="point" transform="translate(30.41,157.4)" d="M3,0A3,3 0 1,1 0,-3A3,3 0 0,1 3,0Z" style="opacity: 1; stroke-width: 0px; fill: rgb(238, 202, 59); fill-opacity: 1;"/><path class="point" transform="translate(39.81,65.4)" d="M3,0A3,3 0 1,1 0,-3A3,3 0 0,1 3,0Z" style="opacity: 1; stroke-width: 0px; fill: rgb(238, 202, 59); fill-opacity: 1;"/><path class="point" transform="translate(49.22,65.4)" d="M3,0A3,3 0 1,1 0,-3A3,3 0 0,1 3,0Z" style="opacity: 1; stroke-width: 0px; fill: rgb(238, 202, 59); fill-opacity: 1;"/><path class="point" transform="translate(58.63,65.4)" d="M3,0A3,3 0 1,1 0,-3A3,3 0 0,1 3,0Z" style="opacity: 1; stroke-width: 0px; fill: rgb(238, 202, 59); fill-opacity: 1;"/><path class="point" transform="translate(68.04,65.4)" d="M3,0A3,3 0 1,1 0,-3A3,3 0 0,1 3,0Z" style="opacity: 1; stroke-width: 0px; fill: rgb(238, 202, 59); fill-opacity: 1;"/><path class="point" transform="translate(77.44,249.4)" d="M3,0A3,3 0 1,1 0,-3A3,3 0 0,1 3,0Z" style="opacity: 1; stroke-width: 0px; fill: rgb(238, 202, 59); fill-opacity: 1;"/><path class="point" transform="translate(86.85,157.4)" d="M3,0A3,3 0 1,1 0,-3A3,3 0 0,1 3,0Z" style="opacity: 1; stroke-width: 0px; fill: rgb(238, 202, 59); fill-opacity: 1;"/><path class="point" transform="translate(96.26,249.4)" d="M3,0A3,3 0 1,1 0,-3A3,3 0 0,1 3,0Z" style="opacity: 1; stroke-width: 0px; fill: rgb(238, 202, 59); fill-opacity: 1;"/><path class="point" transform="translate(105.67,249.4)" d="M3,0A3,3 0 1,1 0,-3A3,3 0 0,1 3,0Z" style="opacity: 1; stroke-width: 0px; fill: rgb(238, 202, 59); fill-opacity: 1;"/><path class="point" transform="translate(115.07,157.4)" d="M3,0A3,3 0 1,1 0,-3A3,3 0 0,1 3,0Z" style="opacity: 1; stroke-width: 0px; fill: rgb(238, 202, 59); fill-opacity: 1;"/><path class="point" transform="translate(124.48,65.4)" d="M3,0A3,3 0 1,1 0,-3A3,3 0 0,1 3,0Z" style="opacity: 1; stroke-width: 0px; fill: rgb(238, 202, 59); fill-opacity: 1;"/><path class="point" transform="translate(133.89,65.4)" d="M3,0A3,3 0 1,1 0,-3A3,3 0 0,1 3,0Z" style="opacity: 1; stroke-width: 0px; fill: rgb(238, 202, 59); fill-opacity: 1;"/><path class="point" transform="translate(143.3,65.4)" d="M3,0A3,3 0 1,1 0,-3A3,3 0 0,1 3,0Z" style="opacity: 1; stroke-width: 0px; fill: rgb(238, 202, 59); fill-opacity: 1;"/><path class="point" transform="translate(152.7,65.4)" d="M3,0A3,3 0 1,1 0,-3A3,3 0 0,1 3,0Z" style="opacity: 1; stroke-width: 0px; fill: rgb(238, 202, 59); fill-opacity: 1;"/><path class="point" transform="translate(162.11,249.4)" d="M3,0A3,3 0 1,1 0,-3A3,3 0 0,1 3,0Z" style="opacity: 1; stroke-width: 0px; fill: rgb(238, 202, 59); fill-opacity: 1;"/><path class="point" transform="translate(171.52,157.4)" d="M3,0A3,3 0 1,1 0,-3A3,3 0 0,1 3,0Z" style="opacity: 1; stroke-width: 0px; fill: rgb(238, 202, 59); fill-opacity: 1;"/><path class="point" transform="translate(180.93,249.4)" d="M3,0A3,3 0 1,1 0,-3A3,3 0 0,1 3,0Z" style="opacity: 1; stroke-width: 0px; fill: rgb(238, 202, 59); fill-opacity: 1;"/><path class="point" transform="translate(190.33,249.4)" d="M3,0A3,3 0 1,1 0,-3A3,3 0 0,1 3,0Z" style="opacity: 1; stroke-width: 0px; fill: rgb(238, 202, 59); fill-opacity: 1;"/><path class="point" transform="translate(199.74,157.4)" d="M3,0A3,3 0 1,1 0,-3A3,3 0 0,1 3,0Z" style="opacity: 1; stroke-width: 0px; fill: rgb(238, 202, 59); fill-opacity: 1;"/><path class="point" transform="translate(209.15,65.4)" d="M3,0A3,3 0 1,1 0,-3A3,3 0 0,1 3,0Z" style="opacity: 1; stroke-width: 0px; fill: rgb(238, 202, 59); fill-opacity: 1;"/><path class="point" transform="translate(218.56,65.4)" d="M3,0A3,3 0 1,1 0,-3A3,3 0 0,1 3,0Z" style="opacity: 1; stroke-width: 0px; fill: rgb(238, 202, 59); fill-opacity: 1;"/><path class="point" transform="translate(227.96,65.4)" d="M3,0A3,3 0 1,1 0,-3A3,3 0 0,1 3,0Z" style="opacity: 1; stroke-width: 0px; fill: rgb(238, 202, 59); fill-opacity: 1;"/><path class="point" transform="translate(237.37,65.4)" d="M3,0A3,3 0 1,1 0,-3A3,3 0 0,1 3,0Z" style="opacity: 1; stroke-width: 0px; fill: rgb(238, 202, 59); fill-opacity: 1;"/><path class="point" transform="translate(246.78,249.4)" d="M3,0A3,3 0 1,1 0,-3A3,3 0 0,1 3,0Z" style="opacity: 1; stroke-width: 0px; fill: rgb(238, 202, 59); fill-opacity: 1;"/><path class="point" transform="translate(256.19,157.4)" d="M3,0A3,3 0 1,1 0,-3A3,3 0 0,1 3,0Z" style="opacity: 1; stroke-width: 0px; fill: rgb(238, 202, 59); fill-opacity: 1;"/><path class="point" transform="translate(265.59,249.4)" d="M3,0A3,3 0 1,1 0,-3A3,3 0 0,1 3,0Z" style="opacity: 1; stroke-width: 0px; fill: rgb(238, 202, 59); fill-opacity: 1;"/><path class="point" transform="translate(275,249.4)" d="M3,0A3,3 0 1,1 0,-3A3,3 0 0,1 3,0Z" style="opacity: 1; stroke-width: 0px; fill: rgb(238, 202, 59); fill-opacity: 1;"/></g><g class="text"/></g><g class="trace scatter trace9521cd" style="stroke-miterlimit: 2; opacity: 1;"><g class="fills"/><g class="errorbars"/><g class="lines"><path class="js-line" d="M21,139L30.41,139L39.81,231L49.22,139L58.63,139L115.07,139L124.48,47L143.3,47L152.7,139L180.93,139L190.33,47L209.15,231L218.56,139L227.96,231L237.37,139L265.59,139L275,47" style="vector-effect: none; fill: none; stroke: rgb(163, 73, 164); stroke-opacity: 1; stroke-width: 0.5px; opacity: 1;"/></g><g class="points"/><g class="text"/></g></g></g><g class="overplot"/><path class="xlines-above crisp" d="M0,0" style="fill: none;"/><path class="ylines-above crisp" d="M93.5,70V348" style="fill: none; stroke-width: 1px; stroke: rgb(255, 255, 255); stroke-opacity: 1;"/><g class="overlines-above"/><g class="xaxislayer-above"><g class="xtick"><text text-anchor="middle" x="0" y="361" transform="translate(115,0)" style="font-family: 'Open Sans', verdana, arial, sans-serif; font-size: 12px; fill: rgb(42, 63, 95); fill-opacity: 1; white-space: pre; opacity: 1;">0</text></g><g class="xtick"><text text-anchor="middle" x="0" y="361" style="font-family: 'Open Sans', verdana, arial, sans-serif; font-size: 12px; fill: rgb(42, 63, 95); fill-opacity: 1; white-space: pre; opacity: 1;" transform="translate(209.07,0)">10</text></g><g class="xtick"><text text-anchor="middle" x="0" y="361" style="font-family: 'Open Sans', verdana, arial, sans-serif; font-size: 12px; fill: rgb(42, 63, 95); fill-opacity: 1; white-space: pre; opacity: 1;" transform="translate(303.15,0)">20</text></g></g><g class="yaxislayer-above"><g class="ytick"><text text-anchor="end" x="90.6" y="4.199999999999999" transform="translate(0,310.2)" style="font-family: 'Open Sans', verdana, arial, sans-serif; font-size: 12px; fill: rgb(42, 63, 95); fill-opacity: 1; white-space: pre; opacity: 1;">Idle</text></g><g class="ytick"><text text-anchor="end" x="90.6" y="4.199999999999999" style="font-family: 'Open Sans', verdana, arial, sans-serif; font-size: 12px; fill: rgb(42, 63, 95); fill-opacity: 1; white-space: pre; opacity: 1;" transform="translate(0,218.2)">Transition</text></g><g class="ytick"><text text-anchor="end" x="90.6" y="4.199999999999999" style="font-family: 'Open Sans', verdana, arial, sans-serif; font-size: 12px; fill: rgb(42, 63, 95); fill-opacity: 1; white-space: pre; opacity: 1;" transform="translate(0,126.2)">Active</text></g></g><g class="overaxes-above"/></g></g><g class="polarlayer"/><g class="smithlayer"/><g class="ternarylayer"/><g class="geolayer"/><g class="funnelarealayer"/><g class="pielayer"/><g class="iciclelayer"/><g class="treemaplayer"/><g class="sunburstlayer"/><g class="glimages"/><defs id="topdefs-b120ca"><g class="clips"/></defs><g class="layer-above"><g class="imagelayer"/><g class="shapelayer"><g class="shape-group" data-index="0" clip-path="url(#clipb120caxy)"><path data-index="0" fill-rule="evenodd" d="M364.3,347H373.7V71H364.3Z" style="opacity: 1; stroke: rgb(42, 63, 95); stroke-opacity: 1; fill: rgb(182, 182, 182); fill-opacity: 0.1; stroke-width: 2px;"/></g></g></g><g class="infolayer"><g class="g-gtitle"><text class="gtitle" x="20" y="35" text-anchor="start" dy="0em" style="font-family: 'Open Sans', verdana, arial, sans-serif; font-size: 17px; fill: rgb(42, 63, 95); opacity: 1; font-weight: normal; white-space: pre;"><tspan class="line" dy="0em" x="20" y="35"><tspan style="font-weight:bold">State Machine evolution</tspan> - Iteration 27</tspan><tspan class="line" dy="1.3em" x="20" y="35">SF idle-TS idle-MED active</tspan><tspan class="line" dy="2.6em" x="20" y="35"></tspan></text></g><g class="g-xtitle"><text class="xtitle" x="242" y="389.3" text-anchor="middle" style="font-family: 'Open Sans', verdana, arial, sans-serif; font-size: 14px; fill: rgb(42, 63, 95); opacity: 1; font-weight: normal; white-space: pre;">Time</text></g><g class="g-ytitle" transform="translate(4.9248046875,0)"><text class="ytitle" transform="rotate(-90,10.075000000000003,209)" x="10.075000000000003" y="209" text-anchor="middle" style="font-family: 'Open Sans', verdana, arial, sans-serif; font-size: 14px; fill: rgb(42, 63, 95); opacity: 1; font-weight: normal; white-space: pre;">State</text></g><g class="annotation" data-index="0" style="opacity: 1;"><g class="annotation-text-g" transform="rotate(0,115,319.4)"><g class="cursor-pointer" transform="translate(94,307)"><rect class="bg" x="1.5" y="1.5" width="39" height="22" style="stroke-width: 3px; stroke: rgb(0, 0, 0); stroke-opacity: 0; fill: rgb(226, 226, 226); fill-opacity: 1;"/><text class="annotation-text" text-anchor="middle" x="20.90625" y="17" style="font-family: 'Open Sans', verdana, arial, sans-serif; font-size: 12px; fill: rgb(42, 63, 95); fill-opacity: 1; white-space: pre;">S̲F̲ T̲S̲</text></g></g></g><g class="annotation" data-index="1" style="opacity: 1;"><g class="annotation-text-g" transform="rotate(0,115,209)"><g class="cursor-pointer" transform="translate(98,197)"><rect class="bg" x="1.5" y="1.5" width="32" height="22" style="stroke-width: 3px; stroke: rgb(125, 190, 60); stroke-opacity: 1; fill: rgb(255, 255, 255); fill-opacity: 1;"/><text class="annotation-text" text-anchor="middle" x="17.34375" y="17" style="font-family: 'Open Sans', verdana, arial, sans-serif; font-size: 12px; fill: rgb(42, 63, 95); fill-opacity: 1; white-space: pre;">M̲E̲D̲</text></g></g></g><g class="annotation" data-index="2" style="opacity: 1;"><g class="annotation-text-g" transform="rotate(0,124.41,227.4)"><g class="cursor-pointer" transform="translate(103,215)"><rect class="bg" x="1.5" y="1.5" width="39" height="22" style="stroke-width: 3px; stroke: rgb(238, 202, 59); stroke-opacity: 1; fill: rgb(255, 255, 255); fill-opacity: 1;"/><text class="annotation-text" text-anchor="middle" x="20.90625" y="17" style="font-family: 'Open Sans', verdana, arial, sans-serif; font-size: 12px; fill: rgb(42, 63, 95); fill-opacity: 1; white-space: pre;">S̅F̅ T̲S̲</text></g></g></g><g class="annotation" data-index="3" style="opacity: 1;"><g class="annotation-text-g" transform="rotate(0,124.41,209)"><g class="cursor-pointer" transform="translate(107,197)"><rect class="bg" x="1.5" y="1.5" width="32" height="22" style="stroke-width: 3px; stroke: rgb(125, 190, 60); stroke-opacity: 1; fill: rgb(255, 255, 255); fill-opacity: 1;"/><text class="annotation-text" text-anchor="middle" x="17.34375" y="17" style="font-family: 'Open Sans', verdana, arial, sans-serif; font-size: 12px; fill: rgb(42, 63, 95); fill-opacity: 1; white-space: pre;">M̲E̲D̲</text></g></g></g><g class="annotation" data-index="4" style="opacity: 1;"><g class="annotation-text-g" transform="rotate(0,133.81,135.4)"><g class="cursor-pointer" transform="translate(113,123)"><rect class="bg" x="1.5" y="1.5" width="39" height="22" style="stroke-width: 3px; stroke: rgb(238, 202, 59); stroke-opacity: 1; fill: rgb(238, 202, 59); fill-opacity: 1;"/><text class="annotation-text" text-anchor="middle" x="20.90625" y="17" style="font-family: 'Open Sans', verdana, arial, sans-serif; font-size: 12px; fill: rgb(42, 63, 95); fill-opacity: 1; white-space: pre;">S̅F̅ T̅S̅</text></g></g></g><g class="annotation" data-index="5" style="opacity: 1;"><g class="annotation-text-g" transform="rotate(0,133.81,301)"><g class="cursor-pointer" transform="translate(116,289)"><rect class="bg" x="1.5" y="1.5" width="32" height="22" style="stroke-width: 3px; stroke: rgb(0, 0, 0); stroke-opacity: 0; fill: rgb(226, 226, 226); fill-opacity: 1;"/><text class="annotation-text" text-anchor="middle" x="17.34375" y="17" style="font-family: 'Open Sans', verdana, arial, sans-serif; font-size: 12px; fill: rgb(42, 63, 95); fill-opacity: 1; white-space: pre;">M̲E̲D̲</text></g></g></g><g class="annotation" data-index="6" style="opacity: 1;"><g class="annotation-text-g" transform="rotate(0,143.22,135.4)"><g class="cursor-pointer" transform="translate(122,123)"><rect class="bg" x="1.5" y="1.5" width="39" height="22" style="stroke-width: 3px; stroke: rgb(238, 202, 59); stroke-opacity: 1; fill: rgb(238, 202, 59); fill-opacity: 1;"/><text class="annotation-text" text-anchor="middle" x="20.90625" y="17" style="font-family: 'Open Sans', verdana, arial, sans-serif; font-size: 12px; fill: rgb(42, 63, 95); fill-opacity: 1; white-space: pre;">S̅F̅ T̅S̅</text></g></g></g><g class="annotation" data-index="7" style="opacity: 1;"><g class="annotation-text-g" transform="rotate(0,143.22,209)"><g class="cursor-pointer" transform="translate(126,197)"><rect class="bg" x="1.5" y="1.5" width="32" height="22" style="stroke-width: 3px; stroke: rgb(125, 190, 60); stroke-opacity: 1; fill: rgb(255, 255, 255); fill-opacity: 1;"/><text class="annotation-text" text-anchor="middle" x="17.34375" y="17" style="font-family: 'Open Sans', verdana, arial, sans-serif; font-size: 12px; fill: rgb(42, 63, 95); fill-opacity: 1; white-space: pre;">M̲E̲D̲</text></g></g></g><g class="annotation" data-index="8" style="opacity: 1;"><g class="annotation-text-g" transform="rotate(0,152.63,135.4)"><g class="cursor-pointer" transform="translate(132,123)"><rect class="bg" x="1.5" y="1.5" width="39" height="22" style="stroke-width: 3px; stroke: rgb(238, 202, 59); stroke-opacity: 1; fill: rgb(238, 202, 59); fill-opacity: 1;"/><text class="annotation-text" text-anchor="middle" x="20.90625" y="17" style="font-family: 'Open Sans', verdana, arial, sans-serif; font-size: 12px; fill: rgb(42, 63, 95); fill-opacity: 1; white-space: pre;">S̅F̅ T̅S̅</text></g></g></g><g class="annotation" data-index="9" style="opacity: 1;"><g class="annotation-text-g" transform="rotate(0,152.63,209)"><g class="cursor-pointer" transform="translate(135,197)"><rect class="bg" x="1.5" y="1.5" width="32" height="22" style="stroke-width: 3px; stroke: rgb(125, 190, 60); stroke-opacity: 1; fill: rgb(255, 255, 255); fill-opacity: 1;"/><text class="annotation-text" text-anchor="middle" x="17.34375" y="17" style="font-family: 'Open Sans', verdana, arial, sans-serif; font-size: 12px; fill: rgb(42, 63, 95); fill-opacity: 1; white-space: pre;">M̲E̲D̲</text></g></g></g><g class="annotation" data-index="10" style="opacity: 1;"><g class="annotation-text-g" transform="rotate(0,162.04000000000002,135.4)"><g class="cursor-pointer" transform="translate(141,123)"><rect class="bg" x="1.5" y="1.5" width="39" height="22" style="stroke-width: 3px; stroke: rgb(238, 202, 59); stroke-opacity: 1; fill: rgb(238, 202, 59); fill-opacity: 1;"/><text class="annotation-text" text-anchor="middle" x="20.90625" y="17" style="font-family: 'Open Sans', verdana, arial, sans-serif; font-size: 12px; fill: rgb(42, 63, 95); fill-opacity: 1; white-space: pre;">S̅F̅ T̅S̅</text></g></g></g><g class="annotation" data-index="11" style="opacity: 1;"><g class="annotation-text-g" transform="rotate(0,162.04000000000002,209)"><g class="cursor-pointer" transform="translate(145,197)"><rect class="bg" x="1.5" y="1.5" width="32" height="22" style="stroke-width: 3px; stroke: rgb(125, 190, 60); stroke-opacity: 1; fill: rgb(255, 255, 255); fill-opacity: 1;"/><text class="annotation-text" text-anchor="middle" x="17.34375" y="17" style="font-family: 'Open Sans', verdana, arial, sans-serif; font-size: 12px; fill: rgb(42, 63, 95); fill-opacity: 1; white-space: pre;">M̲E̲D̲</text></g></g></g><g class="annotation" data-index="12" style="opacity: 1;"><g class="annotation-text-g" transform="rotate(0,171.44,319.4)"><g class="cursor-pointer" transform="translate(150,307)"><rect class="bg" x="1.5" y="1.5" width="39" height="22" style="stroke-width: 3px; stroke: rgb(0, 0, 0); stroke-opacity: 0; fill: rgb(226, 226, 226); fill-opacity: 1;"/><text class="annotation-text" text-anchor="middle" x="20.90625" y="17" style="font-family: 'Open Sans', verdana, arial, sans-serif; font-size: 12px; fill: rgb(42, 63, 95); fill-opacity: 1; white-space: pre;">S̲F̲ T̲S̲</text></g></g></g><g class="annotation" data-index="13" style="opacity: 1;"><g class="annotation-text-g" transform="rotate(0,171.44,209)"><g class="cursor-pointer" transform="translate(154,197)"><rect class="bg" x="1.5" y="1.5" width="32" height="22" style="stroke-width: 3px; stroke: rgb(125, 190, 60); stroke-opacity: 1; fill: rgb(255, 255, 255); fill-opacity: 1;"/><text class="annotation-text" text-anchor="middle" x="17.34375" y="17" style="font-family: 'Open Sans', verdana, arial, sans-serif; font-size: 12px; fill: rgb(42, 63, 95); fill-opacity: 1; white-space: pre;">M̲E̲D̲</text></g></g></g><g class="annotation" data-index="14" style="opacity: 1;"><g class="annotation-text-g" transform="rotate(0,180.85,227.4)"><g class="cursor-pointer" transform="translate(160,215)"><rect class="bg" x="1.5" y="1.5" width="39" height="22" style="stroke-width: 3px; stroke: rgb(238, 202, 59); stroke-opacity: 1; fill: rgb(255, 255, 255); fill-opacity: 1;"/><text class="annotation-text" text-anchor="middle" x="20.90625" y="17" style="font-family: 'Open Sans', verdana, arial, sans-serif; font-size: 12px; fill: rgb(42, 63, 95); fill-opacity: 1; white-space: pre;">S̅F̅ T̲S̲</text></g></g></g><g class="annotation" data-index="15" style="opacity: 1;"><g class="annotation-text-g" transform="rotate(0,180.85,209)"><g class="cursor-pointer" transform="translate(163,197)"><rect class="bg" x="1.5" y="1.5" width="32" height="22" style="stroke-width: 3px; stroke: rgb(125, 190, 60); stroke-opacity: 1; fill: rgb(255, 255, 255); fill-opacity: 1;"/><text class="annotation-text" text-anchor="middle" x="17.34375" y="17" style="font-family: 'Open Sans', verdana, arial, sans-serif; font-size: 12px; fill: rgb(42, 63, 95); fill-opacity: 1; white-space: pre;">M̲E̲D̲</text></g></g></g><g class="annotation" data-index="16" style="opacity: 1;"><g class="annotation-text-g" transform="rotate(0,190.26,319.4)"><g class="cursor-pointer" transform="translate(169,307)"><rect class="bg" x="1.5" y="1.5" width="39" height="22" style="stroke-width: 3px; stroke: rgb(0, 0, 0); stroke-opacity: 0; fill: rgb(226, 226, 226); fill-opacity: 1;"/><text class="annotation-text" text-anchor="middle" x="20.90625" y="17" style="font-family: 'Open Sans', verdana, arial, sans-serif; font-size: 12px; fill: rgb(42, 63, 95); fill-opacity: 1; white-space: pre;">S̲F̲ T̲S̲</text></g></g></g><g class="annotation" data-index="17" style="opacity: 1;"><g class="annotation-text-g" transform="rotate(0,190.26,209)"><g class="cursor-pointer" transform="translate(173,197)"><rect class="bg" x="1.5" y="1.5" width="32" height="22" style="stroke-width: 3px; stroke: rgb(125, 190, 60); stroke-opacity: 1; fill: rgb(255, 255, 255); fill-opacity: 1;"/><text class="annotation-text" text-anchor="middle" x="17.34375" y="17" style="font-family: 'Open Sans', verdana, arial, sans-serif; font-size: 12px; fill: rgb(42, 63, 95); fill-opacity: 1; white-space: pre;">M̲E̲D̲</text></g></g></g><g class="annotation" data-index="18" style="opacity: 1;"><g class="annotation-text-g" transform="rotate(0,199.67000000000002,319.4)"><g class="cursor-pointer" transform="translate(179,307)"><rect class="bg" x="1.5" y="1.5" width="39" height="22" style="stroke-width: 3px; stroke: rgb(0, 0, 0); stroke-opacity: 0; fill: rgb(226, 226, 226); fill-opacity: 1;"/><text class="annotation-text" text-anchor="middle" x="20.90625" y="17" style="font-family: 'Open Sans', verdana, arial, sans-serif; font-size: 12px; fill: rgb(42, 63, 95); fill-opacity: 1; white-space: pre;">S̲F̲ T̲S̲</text></g></g></g><g class="annotation" data-index="19" style="opacity: 1;"><g class="annotation-text-g" transform="rotate(0,199.67000000000002,209)"><g class="cursor-pointer" transform="translate(182,197)"><rect class="bg" x="1.5" y="1.5" width="32" height="22" style="stroke-width: 3px; stroke: rgb(125, 190, 60); stroke-opacity: 1; fill: rgb(255, 255, 255); fill-opacity: 1;"/><text class="annotation-text" text-anchor="middle" x="17.34375" y="17" style="font-family: 'Open Sans', verdana, arial, sans-serif; font-size: 12px; fill: rgb(42, 63, 95); fill-opacity: 1; white-space: pre;">M̲E̲D̲</text></g></g></g><g class="annotation" data-index="20" style="opacity: 1;"><g class="annotation-text-g" transform="rotate(0,209.07,227.4)"><g class="cursor-pointer" transform="translate(188,215)"><rect class="bg" x="1.5" y="1.5" width="39" height="22" style="stroke-width: 3px; stroke: rgb(238, 202, 59); stroke-opacity: 1; fill: rgb(255, 255, 255); fill-opacity: 1;"/><text class="annotation-text" text-anchor="middle" x="20.90625" y="17" style="font-family: 'Open Sans', verdana, arial, sans-serif; font-size: 12px; fill: rgb(42, 63, 95); fill-opacity: 1; white-space: pre;">S̅F̅ T̲S̲</text></g></g></g><g class="annotation" data-index="21" style="opacity: 1;"><g class="annotation-text-g" transform="rotate(0,209.07,209)"><g class="cursor-pointer" transform="translate(192,197)"><rect class="bg" x="1.5" y="1.5" width="32" height="22" style="stroke-width: 3px; stroke: rgb(125, 190, 60); stroke-opacity: 1; fill: rgb(255, 255, 255); fill-opacity: 1;"/><text class="annotation-text" text-anchor="middle" x="17.34375" y="17" style="font-family: 'Open Sans', verdana, arial, sans-serif; font-size: 12px; fill: rgb(42, 63, 95); fill-opacity: 1; white-space: pre;">M̲E̲D̲</text></g></g></g><g class="annotation" data-index="22" style="opacity: 1;"><g class="annotation-text-g" transform="rotate(0,218.48000000000002,135.4)"><g class="cursor-pointer" transform="translate(197,123)"><rect class="bg" x="1.5" y="1.5" width="39" height="22" style="stroke-width: 3px; stroke: rgb(238, 202, 59); stroke-opacity: 1; fill: rgb(238, 202, 59); fill-opacity: 1;"/><text class="annotation-text" text-anchor="middle" x="20.90625" y="17" style="font-family: 'Open Sans', verdana, arial, sans-serif; font-size: 12px; fill: rgb(42, 63, 95); fill-opacity: 1; white-space: pre;">S̅F̅ T̅S̅</text></g></g></g><g class="annotation" data-index="23" style="opacity: 1;"><g class="annotation-text-g" transform="rotate(0,218.48000000000002,117)"><g class="cursor-pointer" transform="translate(201,105)"><rect class="bg" x="1.5" y="1.5" width="32" height="22" style="stroke-width: 3px; stroke: rgb(125, 190, 60); stroke-opacity: 1; fill: rgb(125, 190, 60); fill-opacity: 1;"/><text class="annotation-text" text-anchor="middle" x="17.34375" y="17" style="font-family: 'Open Sans', verdana, arial, sans-serif; font-size: 12px; fill: rgb(42, 63, 95); fill-opacity: 1; white-space: pre;">M̅E̅D̅</text></g></g></g><g class="annotation" data-index="24" style="opacity: 1;"><g class="annotation-text-g" transform="rotate(0,227.89,135.4)"><g class="cursor-pointer" transform="translate(207,123)"><rect class="bg" x="1.5" y="1.5" width="39" height="22" style="stroke-width: 3px; stroke: rgb(238, 202, 59); stroke-opacity: 1; fill: rgb(238, 202, 59); fill-opacity: 1;"/><text class="annotation-text" text-anchor="middle" x="20.90625" y="17" style="font-family: 'Open Sans', verdana, arial, sans-serif; font-size: 12px; fill: rgb(42, 63, 95); fill-opacity: 1; white-space: pre;">S̅F̅ T̅S̅</text></g></g></g><g class="annotation" data-index="25" style="opacity: 1;"><g class="annotation-text-g" transform="rotate(0,227.89,117)"><g class="cursor-pointer" transform="translate(210,105)"><rect class="bg" x="1.5" y="1.5" width="32" height="22" style="stroke-width: 3px; stroke: rgb(125, 190, 60); stroke-opacity: 1; fill: rgb(125, 190, 60); fill-opacity: 1;"/><text class="annotation-text" text-anchor="middle" x="17.34375" y="17" style="font-family: 'Open Sans', verdana, arial, sans-serif; font-size: 12px; fill: rgb(42, 63, 95); fill-opacity: 1; white-space: pre;">M̅E̅D̅</text></g></g></g><g class="annotation" data-index="26" style="opacity: 1;"><g class="annotation-text-g" transform="rotate(0,237.3,135.4)"><g class="cursor-pointer" transform="translate(216,123)"><rect class="bg" x="1.5" y="1.5" width="39" height="22" style="stroke-width: 3px; stroke: rgb(238, 202, 59); stroke-opacity: 1; fill: rgb(238, 202, 59); fill-opacity: 1;"/><text class="annotation-text" text-anchor="middle" x="20.90625" y="17" style="font-family: 'Open Sans', verdana, arial, sans-serif; font-size: 12px; fill: rgb(42, 63, 95); fill-opacity: 1; white-space: pre;">S̅F̅ T̅S̅</text></g></g></g><g class="annotation" data-index="27" style="opacity: 1;"><g class="annotation-text-g" transform="rotate(0,237.3,117)"><g class="cursor-pointer" transform="translate(220,105)"><rect class="bg" x="1.5" y="1.5" width="32" height="22" style="stroke-width: 3px; stroke: rgb(125, 190, 60); stroke-opacity: 1; fill: rgb(125, 190, 60); fill-opacity: 1;"/><text class="annotation-text" text-anchor="middle" x="17.34375" y="17" style="font-family: 'Open Sans', verdana, arial, sans-serif; font-size: 12px; fill: rgb(42, 63, 95); fill-opacity: 1; white-space: pre;">M̅E̅D̅</text></g></g></g><g class="annotation" data-index="28" style="opacity: 1;"><g class="annotation-text-g" transform="rotate(0,246.7,135.4)"><g class="cursor-pointer" transform="translate(226,123)"><rect class="bg" x="1.5" y="1.5" width="39" height="22" style="stroke-width: 3px; stroke: rgb(238, 202, 59); stroke-opacity: 1; fill: rgb(238, 202, 59); fill-opacity: 1;"/><text class="annotation-text" text-anchor="middle" x="20.90625" y="17" style="font-family: 'Open Sans', verdana, arial, sans-serif; font-size: 12px; fill: rgb(42, 63, 95); fill-opacity: 1; white-space: pre;">S̅F̅ T̅S̅</text></g></g></g><g class="annotation" data-index="29" style="opacity: 1;"><g class="annotation-text-g" transform="rotate(0,246.7,209)"><g class="cursor-pointer" transform="translate(229,197)"><rect class="bg" x="1.5" y="1.5" width="32" height="22" style="stroke-width: 3px; stroke: rgb(125, 190, 60); stroke-opacity: 1; fill: rgb(255, 255, 255); fill-opacity: 1;"/><text class="annotation-text" text-anchor="middle" x="17.34375" y="17" style="font-family: 'Open Sans', verdana, arial, sans-serif; font-size: 12px; fill: rgb(42, 63, 95); fill-opacity: 1; white-space: pre;">M̲E̲D̲</text></g></g></g><g class="annotation" data-index="30" style="opacity: 1;"><g class="annotation-text-g" transform="rotate(0,256.11,319.4)"><g class="cursor-pointer" transform="translate(235,307)"><rect class="bg" x="1.5" y="1.5" width="39" height="22" style="stroke-width: 3px; stroke: rgb(0, 0, 0); stroke-opacity: 0; fill: rgb(226, 226, 226); fill-opacity: 1;"/><text class="annotation-text" text-anchor="middle" x="20.90625" y="17" style="font-family: 'Open Sans', verdana, arial, sans-serif; font-size: 12px; fill: rgb(42, 63, 95); fill-opacity: 1; white-space: pre;">S̲F̲ T̲S̲</text></g></g></g><g class="annotation" data-index="31" style="opacity: 1;"><g class="annotation-text-g" transform="rotate(0,256.11,209)"><g class="cursor-pointer" transform="translate(239,197)"><rect class="bg" x="1.5" y="1.5" width="32" height="22" style="stroke-width: 3px; stroke: rgb(125, 190, 60); stroke-opacity: 1; fill: rgb(255, 255, 255); fill-opacity: 1;"/><text class="annotation-text" text-anchor="middle" x="17.34375" y="17" style="font-family: 'Open Sans', verdana, arial, sans-serif; font-size: 12px; fill: rgb(42, 63, 95); fill-opacity: 1; white-space: pre;">M̲E̲D̲</text></g></g></g><g class="annotation" data-index="32" style="opacity: 1;"><g class="annotation-text-g" transform="rotate(0,265.52,227.4)"><g class="cursor-pointer" transform="translate(245,215)"><rect class="bg" x="1.5" y="1.5" width="39" height="22" style="stroke-width: 3px; stroke: rgb(238, 202, 59); stroke-opacity: 1; fill: rgb(255, 255, 255); fill-opacity: 1;"/><text class="annotation-text" text-anchor="middle" x="20.90625" y="17" style="font-family: 'Open Sans', verdana, arial, sans-serif; font-size: 12px; fill: rgb(42, 63, 95); fill-opacity: 1; white-space: pre;">S̅F̅ T̲S̲</text></g></g></g><g class="annotation" data-index="33" style="opacity: 1;"><g class="annotation-text-g" transform="rotate(0,265.52,209)"><g class="cursor-pointer" transform="translate(248,197)"><rect class="bg" x="1.5" y="1.5" width="32" height="22" style="stroke-width: 3px; stroke: rgb(125, 190, 60); stroke-opacity: 1; fill: rgb(255, 255, 255); fill-opacity: 1;"/><text class="annotation-text" text-anchor="middle" x="17.34375" y="17" style="font-family: 'Open Sans', verdana, arial, sans-serif; font-size: 12px; fill: rgb(42, 63, 95); fill-opacity: 1; white-space: pre;">M̲E̲D̲</text></g></g></g><g class="annotation" data-index="34" style="opacity: 1;"><g class="annotation-text-g" transform="rotate(0,274.93,319.4)"><g class="cursor-pointer" transform="translate(254,307)"><rect class="bg" x="1.5" y="1.5" width="39" height="22" style="stroke-width: 3px; stroke: rgb(0, 0, 0); stroke-opacity: 0; fill: rgb(226, 226, 226); fill-opacity: 1;"/><text class="annotation-text" text-anchor="middle" x="20.90625" y="17" style="font-family: 'Open Sans', verdana, arial, sans-serif; font-size: 12px; fill: rgb(42, 63, 95); fill-opacity: 1; white-space: pre;">S̲F̲ T̲S̲</text></g></g></g><g class="annotation" data-index="35" style="opacity: 1;"><g class="annotation-text-g" transform="rotate(0,274.93,209)"><g class="cursor-pointer" transform="translate(257,197)"><rect class="bg" x="1.5" y="1.5" width="32" height="22" style="stroke-width: 3px; stroke: rgb(125, 190, 60); stroke-opacity: 1; fill: rgb(255, 255, 255); fill-opacity: 1;"/><text class="annotation-text" text-anchor="middle" x="17.34375" y="17" style="font-family: 'Open Sans', verdana, arial, sans-serif; font-size: 12px; fill: rgb(42, 63, 95); fill-opacity: 1; white-space: pre;">M̲E̲D̲</text></g></g></g><g class="annotation" data-index="36" style="opacity: 1;"><g class="annotation-text-g" transform="rotate(0,284.33000000000004,319.4)"><g class="cursor-pointer" transform="translate(263,307)"><rect class="bg" x="1.5" y="1.5" width="39" height="22" style="stroke-width: 3px; stroke: rgb(0, 0, 0); stroke-opacity: 0; fill: rgb(226, 226, 226); fill-opacity: 1;"/><text class="annotation-text" text-anchor="middle" x="20.90625" y="17" style="font-family: 'Open Sans', verdana, arial, sans-serif; font-size: 12px; fill: rgb(42, 63, 95); fill-opacity: 1; white-space: pre;">S̲F̲ T̲S̲</text></g></g></g><g class="annotation" data-index="37" style="opacity: 1;"><g class="annotation-text-g" transform="rotate(0,284.33000000000004,117)"><g class="cursor-pointer" transform="translate(267,105)"><rect class="bg" x="1.5" y="1.5" width="32" height="22" style="stroke-width: 3px; stroke: rgb(125, 190, 60); stroke-opacity: 1; fill: rgb(125, 190, 60); fill-opacity: 1;"/><text class="annotation-text" text-anchor="middle" x="17.34375" y="17" style="font-family: 'Open Sans', verdana, arial, sans-serif; font-size: 12px; fill: rgb(42, 63, 95); fill-opacity: 1; white-space: pre;">M̅E̅D̅</text></g></g></g><g class="annotation" data-index="38" style="opacity: 1;"><g class="annotation-text-g" transform="rotate(0,293.74,227.4)"><g class="cursor-pointer" transform="translate(273,215)"><rect class="bg" x="1.5" y="1.5" width="39" height="22" style="stroke-width: 3px; stroke: rgb(238, 202, 59); stroke-opacity: 1; fill: rgb(255, 255, 255); fill-opacity: 1;"/><text class="annotation-text" text-anchor="middle" x="20.90625" y="17" style="font-family: 'Open Sans', verdana, arial, sans-serif; font-size: 12px; fill: rgb(42, 63, 95); fill-opacity: 1; white-space: pre;">S̅F̅ T̲S̲</text></g></g></g><g class="annotation" data-index="39" style="opacity: 1;"><g class="annotation-text-g" transform="rotate(0,293.74,209)"><g class="cursor-pointer" transform="translate(276,197)"><rect class="bg" x="1.5" y="1.5" width="32" height="22" style="stroke-width: 3px; stroke: rgb(125, 190, 60); stroke-opacity: 1; fill: rgb(255, 255, 255); fill-opacity: 1;"/><text class="annotation-text" text-anchor="middle" x="17.34375" y="17" style="font-family: 'Open Sans', verdana, arial, sans-serif; font-size: 12px; fill: rgb(42, 63, 95); fill-opacity: 1; white-space: pre;">M̲E̲D̲</text></g></g></g><g class="annotation" data-index="40" style="opacity: 1;"><g class="annotation-text-g" transform="rotate(0,303.15,135.4)"><g class="cursor-pointer" transform="translate(282,123)"><rect class="bg" x="1.5" y="1.5" width="39" height="22" style="stroke-width: 3px; stroke: rgb(238, 202, 59); stroke-opacity: 1; fill: rgb(238, 202, 59); fill-opacity: 1;"/><text class="annotation-text" text-anchor="middle" x="20.90625" y="17" style="font-family: 'Open Sans', verdana, arial, sans-serif; font-size: 12px; fill: rgb(42, 63, 95); fill-opacity: 1; white-space: pre;">S̅F̅ T̅S̅</text></g></g></g><g class="annotation" data-index="41" style="opacity: 1;"><g class="annotation-text-g" transform="rotate(0,303.15,301)"><g class="cursor-pointer" transform="translate(286,289)"><rect class="bg" x="1.5" y="1.5" width="32" height="22" style="stroke-width: 3px; stroke: rgb(0, 0, 0); stroke-opacity: 0; fill: rgb(226, 226, 226); fill-opacity: 1;"/><text class="annotation-text" text-anchor="middle" x="17.34375" y="17" style="font-family: 'Open Sans', verdana, arial, sans-serif; font-size: 12px; fill: rgb(42, 63, 95); fill-opacity: 1; white-space: pre;">M̲E̲D̲</text></g></g></g><g class="annotation" data-index="42" style="opacity: 1;"><g class="annotation-text-g" transform="rotate(0,312.56,135.4)"><g class="cursor-pointer" transform="translate(292,123)"><rect class="bg" x="1.5" y="1.5" width="39" height="22" style="stroke-width: 3px; stroke: rgb(238, 202, 59); stroke-opacity: 1; fill: rgb(238, 202, 59); fill-opacity: 1;"/><text class="annotation-text" text-anchor="middle" x="20.90625" y="17" style="font-family: 'Open Sans', verdana, arial, sans-serif; font-size: 12px; fill: rgb(42, 63, 95); fill-opacity: 1; white-space: pre;">S̅F̅ T̅S̅</text></g></g></g><g class="annotation" data-index="43" style="opacity: 1;"><g class="annotation-text-g" transform="rotate(0,312.56,209)"><g class="cursor-pointer" transform="translate(295,197)"><rect class="bg" x="1.5" y="1.5" width="32" height="22" style="stroke-width: 3px; stroke: rgb(125, 190, 60); stroke-opacity: 1; fill: rgb(255, 255, 255); fill-opacity: 1;"/><text class="annotation-text" text-anchor="middle" x="17.34375" y="17" style="font-family: 'Open Sans', verdana, arial, sans-serif; font-size: 12px; fill: rgb(42, 63, 95); fill-opacity: 1; white-space: pre;">M̲E̲D̲</text></g></g></g><g class="annotation" data-index="44" style="opacity: 1;"><g class="annotation-text-g" transform="rotate(0,321.96000000000004,135.4)"><g class="cursor-pointer" transform="translate(301,123)"><rect class="bg" x="1.5" y="1.5" width="39" height="22" style="stroke-width: 3px; stroke: rgb(238, 202, 59); stroke-opacity: 1; fill: rgb(238, 202, 59); fill-opacity: 1;"/><text class="annotation-text" text-anchor="middle" x="20.90625" y="17" style="font-family: 'Open Sans', verdana, arial, sans-serif; font-size: 12px; fill: rgb(42, 63, 95); fill-opacity: 1; white-space: pre;">S̅F̅ T̅S̅</text></g></g></g><g class="annotation" data-index="45" style="opacity: 1;"><g class="annotation-text-g" transform="rotate(0,321.96000000000004,301)"><g class="cursor-pointer" transform="translate(304,289)"><rect class="bg" x="1.5" y="1.5" width="32" height="22" style="stroke-width: 3px; stroke: rgb(0, 0, 0); stroke-opacity: 0; fill: rgb(226, 226, 226); fill-opacity: 1;"/><text class="annotation-text" text-anchor="middle" x="17.34375" y="17" style="font-family: 'Open Sans', verdana, arial, sans-serif; font-size: 12px; fill: rgb(42, 63, 95); fill-opacity: 1; white-space: pre;">M̲E̲D̲</text></g></g></g><g class="annotation" data-index="46" style="opacity: 1;"><g class="annotation-text-g" transform="rotate(0,331.37,135.4)"><g class="cursor-pointer" transform="translate(310,123)"><rect class="bg" x="1.5" y="1.5" width="39" height="22" style="stroke-width: 3px; stroke: rgb(238, 202, 59); stroke-opacity: 1; fill: rgb(238, 202, 59); fill-opacity: 1;"/><text class="annotation-text" text-anchor="middle" x="20.90625" y="17" style="font-family: 'Open Sans', verdana, arial, sans-serif; font-size: 12px; fill: rgb(42, 63, 95); fill-opacity: 1; white-space: pre;">S̅F̅ T̅S̅</text></g></g></g><g class="annotation" data-index="47" style="opacity: 1;"><g class="annotation-text-g" transform="rotate(0,331.37,209)"><g class="cursor-pointer" transform="translate(314,197)"><rect class="bg" x="1.5" y="1.5" width="32" height="22" style="stroke-width: 3px; stroke: rgb(125, 190, 60); stroke-opacity: 1; fill: rgb(255, 255, 255); fill-opacity: 1;"/><text class="annotation-text" text-anchor="middle" x="17.34375" y="17" style="font-family: 'Open Sans', verdana, arial, sans-serif; font-size: 12px; fill: rgb(42, 63, 95); fill-opacity: 1; white-space: pre;">M̲E̲D̲</text></g></g></g><g class="annotation" data-index="48" style="opacity: 1;"><g class="annotation-text-g" transform="rotate(0,340.78,319.4)"><g class="cursor-pointer" transform="translate(320,307)"><rect class="bg" x="1.5" y="1.5" width="39" height="22" style="stroke-width: 3px; stroke: rgb(0, 0, 0); stroke-opacity: 0; fill: rgb(226, 226, 226); fill-opacity: 1;"/><text class="annotation-text" text-anchor="middle" x="20.90625" y="17" style="font-family: 'Open Sans', verdana, arial, sans-serif; font-size: 12px; fill: rgb(42, 63, 95); fill-opacity: 1; white-space: pre;">S̲F̲ T̲S̲</text></g></g></g><g class="annotation" data-index="49" style="opacity: 1;"><g class="annotation-text-g" transform="rotate(0,340.78,209)"><g class="cursor-pointer" transform="translate(323,197)"><rect class="bg" x="1.5" y="1.5" width="32" height="22" style="stroke-width: 3px; stroke: rgb(125, 190, 60); stroke-opacity: 1; fill: rgb(255, 255, 255); fill-opacity: 1;"/><text class="annotation-text" text-anchor="middle" x="17.34375" y="17" style="font-family: 'Open Sans', verdana, arial, sans-serif; font-size: 12px; fill: rgb(42, 63, 95); fill-opacity: 1; white-space: pre;">M̲E̲D̲</text></g></g></g><g class="annotation" data-index="50" style="opacity: 1;"><g class="annotation-text-g" transform="rotate(0,350.19,227.4)"><g class="cursor-pointer" transform="translate(329,215)"><rect class="bg" x="1.5" y="1.5" width="39" height="22" style="stroke-width: 3px; stroke: rgb(238, 202, 59); stroke-opacity: 1; fill: rgb(255, 255, 255); fill-opacity: 1;"/><text class="annotation-text" text-anchor="middle" x="20.90625" y="17" style="font-family: 'Open Sans', verdana, arial, sans-serif; font-size: 12px; fill: rgb(42, 63, 95); fill-opacity: 1; white-space: pre;">S̅F̅ T̲S̲</text></g></g></g><g class="annotation" data-index="51" style="opacity: 1;"><g class="annotation-text-g" transform="rotate(0,350.19,209)"><g class="cursor-pointer" transform="translate(333,197)"><rect class="bg" x="1.5" y="1.5" width="32" height="22" style="stroke-width: 3px; stroke: rgb(125, 190, 60); stroke-opacity: 1; fill: rgb(255, 255, 255); fill-opacity: 1;"/><text class="annotation-text" text-anchor="middle" x="17.34375" y="17" style="font-family: 'Open Sans', verdana, arial, sans-serif; font-size: 12px; fill: rgb(42, 63, 95); fill-opacity: 1; white-space: pre;">M̲E̲D̲</text></g></g></g><g class="annotation" data-index="52" style="opacity: 1;"><g class="annotation-text-g" transform="rotate(0,359.59,319.4)"><g class="cursor-pointer" transform="translate(339,307)"><rect class="bg" x="1.5" y="1.5" width="39" height="22" style="stroke-width: 3px; stroke: rgb(0, 0, 0); stroke-opacity: 0; fill: rgb(226, 226, 226); fill-opacity: 1;"/><text class="annotation-text" text-anchor="middle" x="20.90625" y="17" style="font-family: 'Open Sans', verdana, arial, sans-serif; font-size: 12px; fill: rgb(42, 63, 95); fill-opacity: 1; white-space: pre;">S̲F̲ T̲S̲</text></g></g></g><g class="annotation" data-index="53" style="opacity: 1;"><g class="annotation-text-g" transform="rotate(0,359.59,209)"><g class="cursor-pointer" transform="translate(342,197)"><rect class="bg" x="1.5" y="1.5" width="32" height="22" style="stroke-width: 3px; stroke: rgb(125, 190, 60); stroke-opacity: 1; fill: rgb(255, 255, 255); fill-opacity: 1;"/><text class="annotation-text" text-anchor="middle" x="17.34375" y="17" style="font-family: 'Open Sans', verdana, arial, sans-serif; font-size: 12px; fill: rgb(42, 63, 95); fill-opacity: 1; white-space: pre;">M̲E̲D̲</text></g></g></g><g class="annotation" data-index="54" style="opacity: 1;"><g class="annotation-text-g" transform="rotate(0,369,319.4)"><g class="cursor-pointer" transform="translate(348,307)"><rect class="bg" x="1.5" y="1.5" width="39" height="22" style="stroke-width: 3px; stroke: rgb(0, 0, 0); stroke-opacity: 0; fill: rgb(226, 226, 226); fill-opacity: 1;"/><text class="annotation-text" text-anchor="middle" x="20.90625" y="17" style="font-family: 'Open Sans', verdana, arial, sans-serif; font-size: 12px; fill: rgb(42, 63, 95); fill-opacity: 1; white-space: pre;">S̲F̲ T̲S̲</text></g></g></g><g class="annotation" data-index="55" style="opacity: 1;"><g class="annotation-text-g" transform="rotate(0,369,117)"><g class="cursor-pointer" transform="translate(352,105)"><rect class="bg" x="1.5" y="1.5" width="32" height="22" style="stroke-width: 3px; stroke: rgb(125, 190, 60); stroke-opacity: 1; fill: rgb(125, 190, 60); fill-opacity: 1;"/><text class="annotation-text" text-anchor="middle" x="17.34375" y="17" style="font-family: 'Open Sans', verdana, arial, sans-serif; font-size: 12px; fill: rgb(42, 63, 95); fill-opacity: 1; white-space: pre;">M̅E̅D̅</text></g></g></g></g></svg>