<svg class="main-svg" xmlns="http://www.w3.org/2000/svg" xmlns:xlink="http://www.w3.org/1999/xlink" width="800" height="800" style="" viewBox="0 0 400 400"><rect x="0" y="0" width="400" height="400" style="fill: rgb(255, 255, 255); fill-opacity: 1;"/><defs id="defs-965dd8"><g class="clips"><clipPath id="clip965dd8xyplot" class="plotclip"><rect width="296" height="278"/></clipPath><clipPath class="axesclip" id="clip965dd8x"><rect x="94" y="0" width="296" height="400"/></clipPath><clipPath class="axesclip" id="clip965dd8y"><rect x="0" y="70" width="400" height="278"/></clipPath><clipPath class="axesclip" id="clip965dd8xy"><rect x="94" y="70" width="296" height="278"/></clipPath></g><g class="gradients"/><g class="patterns"/></defs><g class="bglayer"><rect class="bg" x="94" y="70" width="296" height="278" style="fill: rgb(229, 236, 246); fill-opacity: 1; stroke-width: 0;"/></g><g class="layer-below"><g class="imagelayer"/><g class="shapelayer"/></g><g class="cartesianlayer"><g class="subplot xy"><g class="layer-subplot"><g class="shapelayer"/><g class="imagelayer"/></g><g class="minor-gridlayer"><g class="x"/><g class="y"><path class="ygrid crisp" transform="translate(0,255)" d="M94,0h296" style="stroke: rgb(153, 158, 165); stroke-opacity: 1; stroke-width: 10px;"/><path class="ygrid crisp" transform="translate(0,181.4)" d="M94,0h296" style="stroke: rgb(153, 158, 165); stroke-opacity: 1; stroke-width: 10px;"/></g></g><g class="gridlayer"><g class="x"><path class="xgrid crisp" transform="translate(115,0)" d="M0,70v278" style="stroke: rgb(255, 255, 255); stroke-opacity: 1; stroke-width: 1px;"/><path class="xgrid crisp" transform="translate(212.69,0)" d="M0,70v278" style="stroke: rgb(255, 255, 255); stroke-opacity: 1; stroke-width: 1px;"/><path class="xgrid crisp" transform="translate(310.38,0)" d="M0,70v278" style="stroke: rgb(255, 255, 255); stroke-opacity: 1; stroke-width: 1px;"/></g><g class="y"/></g><g class="zerolinelayer"/><path class="xlines-below"/><path class="ylines-below"/><g class="overlines-below"/><g class="xaxislayer-below"/><g class="yaxislayer-below"/><g class="overaxes-below"/><g class="plot" transform="translate(94,70)" clip-path="url(#clip965dd8xyplot)"><g class="scatterlayer mlayer"><g class="trace scatter traced7c42d" style="stroke-miterlimit: 2; opacity: 1;"><g class="fills"/><g class="errorbars"/><g class="lines"><path class="js-line" d="M21,249.4L40.54,65.4L50.31,65.4L69.85,65.4L79.62,249.4L89.38,157.4L99.15,249.4L108.92,249.4L118.69,157.4L128.46,65.4L138.23,65.4L157.77,65.4L167.54,249.4L177.31,157.4L187.08,249.4L196.85,249.4L206.62,157.4L216.38,65.4L226.15,65.4L245.69,65.4L255.46,249.4L265.23,157.4L275,249.4" style="vector-effect: none; fill: none; stroke: rgb(238, 202, 59); stroke-opacity: 1; stroke-width: 0.5px; opacity: 1;"/></g><g class="points"><path class="point" transform="translate(21,249.4)" d="M3,0A3,3 0 1,1 0,-3A3,3 0 0,1 3,0Z" style="opacity: 1; stroke-width: 0px; fill: rgb(238, 202, 59); fill-opacity: 1;"/><path class="point" transform="translate(30.77,157.4)" d="M3,0A3,3 0 1,1 0,-3A3,3 0 0,1 3,0Z" style="opacity: 1; stroke-width: 0px; fill: rgb(238, 202, 59); fill-opacity: 1;"/><path class="point" transform="translate(40.54,65.4)" d="M3,0A3,3 0 1,1 0,-3A3,3 0 0,1 3,0Z" style="opacity: 1; stroke-width: 0px; fill: rgb(238, 202, 59); fill-opacity: 1;"/><path class="point" transform="translate(50.31,65.4)" d="M3,0A3,3 0 1,1 0,-3A3,3 0 0,1 3,0Z" style="opacity: 1; stroke-width: 0px; fill: rgb(238, 202, 59); fill-opacity: 1;"/><path class="point" transform="translate(60.08,65.4)" d="M3,0A3,3 0 1,1 0,-3A3,3 0 0,1 3,0Z" style="opacity: 1; stroke-width: 0px; fill: rgb(238, 202, 59); fill-opacity: 1;"/><path class="point" transform="translate(69.85,65.4)" d="M3,0A3,3 0 1,1 0,-3A3,3 0 0,1 3,0Z" style="opacity: 1; stroke-width: 0px; fill: rgb(238, 202, 59); fill-opacity: 1;"/><path class="point" transform="translate(79.62,249.4)" d="M3,0A3,3 0 1,1 0,-3A3,3 0 0,1 3,0Z" style="opacity: 1; stroke-width: 0px; fill: rgb(238, 202, 59); fill-opacity: 1;"/><path class="point" transform="translate(89.38,157.4)" d="M3,0A3,3 0 1,1 0,-3A3,3 0 0,1 3,0Z" style="opacity: 1; stroke-width: 0px; fill: rgb(238, 202, 59); fill-opacity: 1;"/><path class="point" transform="translate(99.15,249.4)" d="M3,0A3,3 0 1,1 0,-3A3,3 0 0,1 3,0Z" style="opacity: 1; stroke-width: 0px; fill: rgb(238, 202, 59); fill-opacity: 1;"/><path class="point" transform="translate(108.92,249.4)" d="M3,0A3,3 0 1,1 0,-3A3,3 0 0,1 3,0Z" style="opacity: 1; stroke-width: 0px; fill: rgb(238, 202, 59); fill-opacity: 1;"/><path class="point" transform="translate(118.69,157.4)" d="M3,0A3,3 0 1,1 0,-3A3,3 0 0,1 3,0Z" style="opacity: 1; stroke-width: 0px; fill: rgb(238, 202, 59); fill-opacity: 1;"/><path class="point" transform="translate(128.46,65.4)" d="M3,0A3,3 0 1,1 0,-3A3,3 0 0,1 3,0Z" style="opacity: 1; stroke-width: 0px; fill: rgb(238, 202, 59); fill-opacity: 1;"/><path class="point" transform="translate(138.23,65.4)" d="M3,0A3,3 0 1,1 0,-3A3,3 0 0,1 3,0Z" style="opacity: 1; stroke-width: 0px; fill: rgb(238, 202, 59); fill-opacity: 1;"/><path class="point" transform="translate(148,65.4)" d="M3,0A3,3 0 1,1 0,-3A3,3 0 0,1 3,0Z" style="opacity: 1; stroke-width: 0px; fill: rgb(238, 202, 59); fill-opacity: 1;"/><path class="point" transform="translate(157.77,65.4)" d="M3,0A3,3 0 1,1 0,-3A3,3 0 0,1 3,0Z" style="opacity: 1; stroke-width: 0px; fill: rgb(238, 202, 59); fill-opacity: 1;"/><path class="point" transform="translate(167.54,249.4)" d="M3,0A3,3 0 1,1 0,-3A3,3 0 0,1 3,0Z" style="opacity: 1; stroke-width: 0px; fill: rgb(238, 202, 59); fill-opacity: 1;"/><path class="point" transform="translate(177.31,157.4)" d="M3,0A3,3 0 1,1 0,-3A3,3 0 0,1 3,0Z" style="opacity: 1; stroke-width: 0px; fill: rgb(238, 202, 59); fill-opacity: 1;"/><path class="point" transform="translate(187.08,249.4)" d="M3,0A3,3 0 1,1 0,-3A3,3 0 0,1 3,0Z" style="opacity: 1; stroke-width: 0px; fill: rgb(238, 202, 59); fill-opacity: 1;"/><path class="point" transform="translate(196.85,249.4)" d="M3,0A3,3 0 1,1 0,-3A3,3 0 0,1 3,0Z" style="opacity: 1; stroke-width: 0px; fill: rgb(238, 202, 59); fill-opacity: 1;"/><path class="point" transform="translate(206.62,157.4)" d="M3,0A3,3 0 1,1 0,-3A3,3 0 0,1 3,0Z" style="opacity: 1; stroke-width: 0px; fill: rgb(238, 202, 59); fill-opacity: 1;"/><path class="point" transform="translate(216.38,65.4)" d="M3,0A3,3 0 1,1 0,-3A3,3 0 0,1 3,0Z" style="opacity: 1; stroke-width: 0px; fill: rgb(238, 202, 59); fill-opacity: 1;"/><path class="point" transform="translate(226.15,65.4)" d="M3,0A3,3 0 1,1 0,-3A3,3 0 0,1 3,0Z" style="opacity: 1; stroke-width: 0px; fill: rgb(238, 202, 59); fill-opacity: 1;"/><path class="point" transform="translate(235.92,65.4)" d="M3,0A3,3 0 1,1 0,-3A3,3 0 0,1 3,0Z" style="opacity: 1; stroke-width: 0px; fill: rgb(238, 202, 59); fill-opacity: 1;"/><path class="point" transform="translate(245.69,65.4)" d="M3,0A3,3 0 1,1 0,-3A3,3 0 0,1 3,0Z" style="opacity: 1; stroke-width: 0px; fill: rgb(238, 202, 59); fill-opacity: 1;"/><path class="point" transform="translate(255.46,249.4)" d="M3,0A3,3 0 1,1 0,-3A3,3 0 0,1 3,0Z" style="opacity: 1; stroke-width: 0px; fill: rgb(238, 202, 59); fill-opacity: 1;"/><path class="point" transform="translate(265.23,157.4)" d="M3,0A3,3 0 1,1 0,-3A3,3 0 0,1 3,0Z" style="opacity: 1; stroke-width: 0px; fill: rgb(238, 202, 59); fill-opacity: 1;"/><path class="point" transform="translate(275,249.4)" d="M3,0A3,3 0 1,1 0,-3A3,3 0 0,1 3,0Z" style="opacity: 1; stroke-width: 0px; fill: rgb(238, 202, 59); fill-opacity: 1;"/></g><g class="text"/></g><g class="trace scatter trace8b8643" style="stroke-miterlimit: 2; opacity: 1;"><g class="fills"/><g class="errorbars"/><g class="lines"><path class="js-line" d="M21,139L30.77,139L40.54,231L50.31,139L60.08,139L118.69,139L128.46,47L148,47L157.77,139L187.08,139L196.85,47L216.38,231L226.15,139L235.92,231L245.69,139L275,139" style="vector-effect: none; fill: none; stroke: rgb(163, 73, 164); stroke-opacity: 1; stroke-width: 0.5px; opacity: 1;"/></g><g class="points"/><g class="text"/></g></g></g><g class="overplot"/><path class="xlines-above crisp" d="M0,0" style="fill: none;"/><path class="ylines-above crisp" d="M93.5,70V348" style="fill: none; stroke-width: 1px; stroke: rgb(255, 255, 255); stroke-opacity: 1;"/><g class="overlines-above"/><g class="xaxislayer-above"><g class="xtick"><text text-anchor="middle" x="0" y="361" transform="translate(115,0)" style="font-family: 'Open Sans', verdana, arial, sans-serif; font-size: 12px; fill: rgb(42, 63, 95); fill-opacity: 1; white-space: pre; opacity: 1;">0</text></g><g class="xtick"><text text-anchor="middle" x="0" y="361" style="font-family: 'Open Sans', verdana, arial, sans-serif; font-size: 12px; fill: rgb(42, 63, 95); fill-opacity: 1; white-space: pre; opacity: 1;" transform="translate(212.69,0)">10</text></g><g class="xtick"><text text-anchor="middle" x="0" y="361" style="font-family: 'Open Sans', verdana, arial, sans-serif; font-size: 12px; fill: rgb(42, 63, 95); fill-opacity: 1; white-space: pre; opacity: 1;" transform="translate(310.38,0)">20</text></g></g><g class="yaxislayer-above"><g class="ytick"><text text-anchor="end" x="90.6" y="4.199999999999999" transform="translate(0,310.2)" style="font-family: 'Open Sans', verdana, arial, sans-serif; font-size: 12px; fill: rgb(42, 63, 95); fill-opacity: 1; white-space: pre; opacity: 1;">Idle</text></g><g class="ytick"><text text-anchor="end" x="90.6" y="4.199999999999999" style="font-family: 'Open Sans', verdana, arial, sans-serif; font-size: 12px; fill: rgb(42, 63, 95); fill-opacity: 1; white-space: pre; opacity: 1;" transform="translate(0,218.2)">Transition</text></g><g class="ytick"><text text-anchor="end" x="90.6" y="4.199999999999999" style="font-family: 'Open Sans', verdana, arial, sans-serif; font-size: 12px; fill: rgb(42, 63, 95); fill-opacity: 1; white-space: pre; opacity: 1;" transform="translate(0,126.2)">Active</text></g></g><g class="overaxes-above"/></g></g><g class="polarlayer"/><g class="smithlayer"/><g class="ternarylayer"/><g class="geolayer"/><g class="funnelarealayer"/><g class="pielayer"/><g class="iciclelayer"/><g class="treemaplayer"/><g class="sunburstlayer"/><g class="glimages"/><defs id="topdefs-965dd8"><g class="clips"/></defs><g class="layer-above"><g class="imagelayer"/><g class="shapelayer"><g class="shape-group" data-index="0" clip-path="url(#clip965dd8xy)"><path data-index="0" fill-rule="evenodd" d="M364.12,347H373.88V71H364.12Z" style="opacity: 1; stroke: rgb(42, 63, 95); stroke-opacity: 1; fill: rgb(182, 182, 182); fill-opacity: 0.1; stroke-width: 2px;"/></g></g></g><g class="infolayer"><g class="g-gtitle"><text class="gtitle" x="20" y="35" text-anchor="start" dy="0em" style="font-family: 'Open Sans', verdana, arial, sans-serif; font-size: 17px; fill: rgb(42, 63, 95); opacity: 1; font-weight: normal; white-space: pre;"><tspan class="line" dy="0em" x="20" y="35"><tspan style="font-weight:bold">State Machine evolution</tspan> - Iteration 26</tspan><tspan class="line" dy="1.3em" x="20" y="35">SF idle-TS idle-MED starting up</tspan><tspan class="line" dy="2.6em" x="20" y="35"></tspan></text></g><g class="g-xtitle"><text class="xtitle" x="242" y="389.3" text-anchor="middle" style="font-family: 'Open Sans', verdana, arial, sans-serif; font-size: 14px; fill: rgb(42, 63, 95); opacity: 1; font-weight: normal; white-space: pre;">Time</text></g><g class="g-ytitle" transform="translate(4.9248046875,0)"><text class="ytitle" transform="rotate(-90,10.075000000000003,209)" x="10.075000000000003" y="209" text-anchor="middle" style="font-family: 'Open Sans', verdana, arial, sans-serif; font-size: 14px; fill: rgb(42, 63, 95); opacity: 1; font-weight: normal; white-space: pre;">State</text></g><g class="annotation" data-index="0" style="opacity: 1;"><g class="annotation-text-g" transform="rotate(0,115,319.4)"><g class="cursor-pointer" transform="translate(94,307)"><rect class="bg" x="1.5" y="1.5" width="39" height="22" style="stroke-width: 3px; stroke: rgb(0, 0, 0); stroke-opacity: 0; fill: rgb(226, 226, 226); fill-opacity: 1;"/><text class="annotation-text" text-anchor="middle" x="20.90625" y="17" style="font-family: 'Open Sans', verdana, arial, sans-serif; font-size: 12px; fill: rgb(42, 63, 95); fill-opacity: 1; white-space: pre;">S̲F̲ T̲S̲</text></g></g></g><g class="annotation" data-index="1" style="opacity: 1;"><g class="annotation-text-g" transform="rotate(0,115,209)"><g class="cursor-pointer" transform="translate(98,197)"><rect class="bg" x="1.5" y="1.5" width="32" height="22" style="stroke-width: 3px; stroke: rgb(125, 190, 60); stroke-opacity: 1; fill: rgb(255, 255, 255); fill-opacity: 1;"/><text class="annotation-text" text-anchor="middle" x="17.34375" y="17" style="font-family: 'Open Sans', verdana, arial, sans-serif; font-size: 12px; fill: rgb(42, 63, 95); fill-opacity: 1; white-space: pre;">M̲E̲D̲</text></g></g></g><g class="annotation" data-index="2" style="opacity: 1;"><g class="annotation-text-g" transform="rotate(0,124.77,227.4)"><g class="cursor-pointer" transform="translate(104,215)"><rect class="bg" x="1.5" y="1.5" width="39" height="22" style="stroke-width: 3px; stroke: rgb(238, 202, 59); stroke-opacity: 1; fill: rgb(255, 255, 255); fill-opacity: 1;"/><text class="annotation-text" text-anchor="middle" x="20.90625" y="17" style="font-family: 'Open Sans', verdana, arial, sans-serif; font-size: 12px; fill: rgb(42, 63, 95); fill-opacity: 1; white-space: pre;">S̅F̅ T̲S̲</text></g></g></g><g class="annotation" data-index="3" style="opacity: 1;"><g class="annotation-text-g" transform="rotate(0,124.77,209)"><g class="cursor-pointer" transform="translate(107,197)"><rect class="bg" x="1.5" y="1.5" width="32" height="22" style="stroke-width: 3px; stroke: rgb(125, 190, 60); stroke-opacity: 1; fill: rgb(255, 255, 255); fill-opacity: 1;"/><text class="annotation-text" text-anchor="middle" x="17.34375" y="17" style="font-family: 'Open Sans', verdana, arial, sans-serif; font-size: 12px; fill: rgb(42, 63, 95); fill-opacity: 1; white-space: pre;">M̲E̲D̲</text></g></g></g><g class="annotation" data-index="4" style="opacity: 1;"><g class="annotation-text-g" transform="rotate(0,134.54,135.4)"><g class="cursor-pointer" transform="translate(114,123)"><rect class="bg" x="1.5" y="1.5" width="39" height="22" style="stroke-width: 3px; stroke: rgb(238, 202, 59); stroke-opacity: 1; fill: rgb(238, 202, 59); fill-opacity: 1;"/><text class="annotation-text" text-anchor="middle" x="20.90625" y="17" style="font-family: 'Open Sans', verdana, arial, sans-serif; font-size: 12px; fill: rgb(42, 63, 95); fill-opacity: 1; white-space: pre;">S̅F̅ T̅S̅</text></g></g></g><g class="annotation" data-index="5" style="opacity: 1;"><g class="annotation-text-g" transform="rotate(0,134.54,301)"><g class="cursor-pointer" transform="translate(117,289)"><rect class="bg" x="1.5" y="1.5" width="32" height="22" style="stroke-width: 3px; stroke: rgb(0, 0, 0); stroke-opacity: 0; fill: rgb(226, 226, 226); fill-opacity: 1;"/><text class="annotation-text" text-anchor="middle" x="17.34375" y="17" style="font-family: 'Open Sans', verdana, arial, sans-serif; font-size: 12px; fill: rgb(42, 63, 95); fill-opacity: 1; white-space: pre;">M̲E̲D̲</text></g></g></g><g class="annotation" data-index="6" style="opacity: 1;"><g class="annotation-text-g" transform="rotate(0,144.31,135.4)"><g class="cursor-pointer" transform="translate(123,123)"><rect class="bg" x="1.5" y="1.5" width="39" height="22" style="stroke-width: 3px; stroke: rgb(238, 202, 59); stroke-opacity: 1; fill: rgb(238, 202, 59); fill-opacity: 1;"/><text class="annotation-text" text-anchor="middle" x="20.90625" y="17" style="font-family: 'Open Sans', verdana, arial, sans-serif; font-size: 12px; fill: rgb(42, 63, 95); fill-opacity: 1; white-space: pre;">S̅F̅ T̅S̅</text></g></g></g><g class="annotation" data-index="7" style="opacity: 1;"><g class="annotation-text-g" transform="rotate(0,144.31,209)"><g class="cursor-pointer" transform="translate(127,197)"><rect class="bg" x="1.5" y="1.5" width="32" height="22" style="stroke-width: 3px; stroke: rgb(125, 190, 60); stroke-opacity: 1; fill: rgb(255, 255, 255); fill-opacity: 1;"/><text class="annotation-text" text-anchor="middle" x="17.34375" y="17" style="font-family: 'Open Sans', verdana, arial, sans-serif; font-size: 12px; fill: rgb(42, 63, 95); fill-opacity: 1; white-space: pre;">M̲E̲D̲</text></g></g></g><g class="annotation" data-index="8" style="opacity: 1;"><g class="annotation-text-g" transform="rotate(0,154.07999999999998,135.4)"><g class="cursor-pointer" transform="translate(133,123)"><rect class="bg" x="1.5" y="1.5" width="39" height="22" style="stroke-width: 3px; stroke: rgb(238, 202, 59); stroke-opacity: 1; fill: rgb(238, 202, 59); fill-opacity: 1;"/><text class="annotation-text" text-anchor="middle" x="20.90625" y="17" style="font-family: 'Open Sans', verdana, arial, sans-serif; font-size: 12px; fill: rgb(42, 63, 95); fill-opacity: 1; white-space: pre;">S̅F̅ T̅S̅</text></g></g></g><g class="annotation" data-index="9" style="opacity: 1;"><g class="annotation-text-g" transform="rotate(0,154.07999999999998,209)"><g class="cursor-pointer" transform="translate(137,197)"><rect class="bg" x="1.5" y="1.5" width="32" height="22" style="stroke-width: 3px; stroke: rgb(125, 190, 60); stroke-opacity: 1; fill: rgb(255, 255, 255); fill-opacity: 1;"/><text class="annotation-text" text-anchor="middle" x="17.34375" y="17" style="font-family: 'Open Sans', verdana, arial, sans-serif; font-size: 12px; fill: rgb(42, 63, 95); fill-opacity: 1; white-space: pre;">M̲E̲D̲</text></g></g></g><g class="annotation" data-index="10" style="opacity: 1;"><g class="annotation-text-g" transform="rotate(0,163.85,135.4)"><g class="cursor-pointer" transform="translate(143,123)"><rect class="bg" x="1.5" y="1.5" width="39" height="22" style="stroke-width: 3px; stroke: rgb(238, 202, 59); stroke-opacity: 1; fill: rgb(238, 202, 59); fill-opacity: 1;"/><text class="annotation-text" text-anchor="middle" x="20.90625" y="17" style="font-family: 'Open Sans', verdana, arial, sans-serif; font-size: 12px; fill: rgb(42, 63, 95); fill-opacity: 1; white-space: pre;">S̅F̅ T̅S̅</text></g></g></g><g class="annotation" data-index="11" style="opacity: 1;"><g class="annotation-text-g" transform="rotate(0,163.85,209)"><g class="cursor-pointer" transform="translate(146,197)"><rect class="bg" x="1.5" y="1.5" width="32" height="22" style="stroke-width: 3px; stroke: rgb(125, 190, 60); stroke-opacity: 1; fill: rgb(255, 255, 255); fill-opacity: 1;"/><text class="annotation-text" text-anchor="middle" x="17.34375" y="17" style="font-family: 'Open Sans', verdana, arial, sans-serif; font-size: 12px; fill: rgb(42, 63, 95); fill-opacity: 1; white-space: pre;">M̲E̲D̲</text></g></g></g><g class="annotation" data-index="12" style="opacity: 1;"><g class="annotation-text-g" transform="rotate(0,173.62,319.4)"><g class="cursor-pointer" transform="translate(153,307)"><rect class="bg" x="1.5" y="1.5" width="39" height="22" style="stroke-width: 3px; stroke: rgb(0, 0, 0); stroke-opacity: 0; fill: rgb(226, 226, 226); fill-opacity: 1;"/><text class="annotation-text" text-anchor="middle" x="20.90625" y="17" style="font-family: 'Open Sans', verdana, arial, sans-serif; font-size: 12px; fill: rgb(42, 63, 95); fill-opacity: 1; white-space: pre;">S̲F̲ T̲S̲</text></g></g></g><g class="annotation" data-index="13" style="opacity: 1;"><g class="annotation-text-g" transform="rotate(0,173.62,209)"><g class="cursor-pointer" transform="translate(156,197)"><rect class="bg" x="1.5" y="1.5" width="32" height="22" style="stroke-width: 3px; stroke: rgb(125, 190, 60); stroke-opacity: 1; fill: rgb(255, 255, 255); fill-opacity: 1;"/><text class="annotation-text" text-anchor="middle" x="17.34375" y="17" style="font-family: 'Open Sans', verdana, arial, sans-serif; font-size: 12px; fill: rgb(42, 63, 95); fill-opacity: 1; white-space: pre;">M̲E̲D̲</text></g></g></g><g class="annotation" data-index="14" style="opacity: 1;"><g class="annotation-text-g" transform="rotate(0,183.38,227.4)"><g class="cursor-pointer" transform="translate(162,215)"><rect class="bg" x="1.5" y="1.5" width="39" height="22" style="stroke-width: 3px; stroke: rgb(238, 202, 59); stroke-opacity: 1; fill: rgb(255, 255, 255); fill-opacity: 1;"/><text class="annotation-text" text-anchor="middle" x="20.90625" y="17" style="font-family: 'Open Sans', verdana, arial, sans-serif; font-size: 12px; fill: rgb(42, 63, 95); fill-opacity: 1; white-space: pre;">S̅F̅ T̲S̲</text></g></g></g><g class="annotation" data-index="15" style="opacity: 1;"><g class="annotation-text-g" transform="rotate(0,183.38,209)"><g class="cursor-pointer" transform="translate(166,197)"><rect class="bg" x="1.5" y="1.5" width="32" height="22" style="stroke-width: 3px; stroke: rgb(125, 190, 60); stroke-opacity: 1; fill: rgb(255, 255, 255); fill-opacity: 1;"/><text class="annotation-text" text-anchor="middle" x="17.34375" y="17" style="font-family: 'Open Sans', verdana, arial, sans-serif; font-size: 12px; fill: rgb(42, 63, 95); fill-opacity: 1; white-space: pre;">M̲E̲D̲</text></g></g></g><g class="annotation" data-index="16" style="opacity: 1;"><g class="annotation-text-g" transform="rotate(0,193.15,319.4)"><g class="cursor-pointer" transform="translate(172,307)"><rect class="bg" x="1.5" y="1.5" width="39" height="22" style="stroke-width: 3px; stroke: rgb(0, 0, 0); stroke-opacity: 0; fill: rgb(226, 226, 226); fill-opacity: 1;"/><text class="annotation-text" text-anchor="middle" x="20.90625" y="17" style="font-family: 'Open Sans', verdana, arial, sans-serif; font-size: 12px; fill: rgb(42, 63, 95); fill-opacity: 1; white-space: pre;">S̲F̲ T̲S̲</text></g></g></g><g class="annotation" data-index="17" style="opacity: 1;"><g class="annotation-text-g" transform="rotate(0,193.15,209)"><g class="cursor-pointer" transform="translate(176,197)"><rect class="bg" x="1.5" y="1.5" width="32" height="22" style="stroke-width: 3px; stroke: rgb(125, 190, 60); stroke-opacity: 1; fill: rgb(255, 255, 255); fill-opacity: 1;"/><text class="annotation-text" text-anchor="middle" x="17.34375" y="17" style="font-family: 'Open Sans', verdana, arial, sans-serif; font-size: 12px; fill: rgb(42, 63, 95); fill-opacity: 1; white-space: pre;">M̲E̲D̲</text></g></g></g><g class="annotation" data-index="18" style="opacity: 1;"><g class="annotation-text-g" transform="rotate(0,202.92000000000002,319.4)"><g class="cursor-pointer" transform="translate(182,307)"><rect class="bg" x="1.5" y="1.5" width="39" height="22" style="stroke-width: 3px; stroke: rgb(0, 0, 0); stroke-opacity: 0; fill: rgb(226, 226, 226); fill-opacity: 1;"/><text class="annotation-text" text-anchor="middle" x="20.90625" y="17" style="font-family: 'Open Sans', verdana, arial, sans-serif; font-size: 12px; fill: rgb(42, 63, 95); fill-opacity: 1; white-space: pre;">S̲F̲ T̲S̲</text></g></g></g><g class="annotation" data-index="19" style="opacity: 1;"><g class="annotation-text-g" transform="rotate(0,202.92000000000002,209)"><g class="cursor-pointer" transform="translate(185,197)"><rect class="bg" x="1.5" y="1.5" width="32" height="22" style="stroke-width: 3px; stroke: rgb(125, 190, 60); stroke-opacity: 1; fill: rgb(255, 255, 255); fill-opacity: 1;"/><text class="annotation-text" text-anchor="middle" x="17.34375" y="17" style="font-family: 'Open Sans', verdana, arial, sans-serif; font-size: 12px; fill: rgb(42, 63, 95); fill-opacity: 1; white-space: pre;">M̲E̲D̲</text></g></g></g><g class="annotation" data-index="20" style="opacity: 1;"><g class="annotation-text-g" transform="rotate(0,212.69,227.4)"><g class="cursor-pointer" transform="translate(192,215)"><rect class="bg" x="1.5" y="1.5" width="39" height="22" style="stroke-width: 3px; stroke: rgb(238, 202, 59); stroke-opacity: 1; fill: rgb(255, 255, 255); fill-opacity: 1;"/><text class="annotation-text" text-anchor="middle" x="20.90625" y="17" style="font-family: 'Open Sans', verdana, arial, sans-serif; font-size: 12px; fill: rgb(42, 63, 95); fill-opacity: 1; white-space: pre;">S̅F̅ T̲S̲</text></g></g></g><g class="annotation" data-index="21" style="opacity: 1;"><g class="annotation-text-g" transform="rotate(0,212.69,209)"><g class="cursor-pointer" transform="translate(195,197)"><rect class="bg" x="1.5" y="1.5" width="32" height="22" style="stroke-width: 3px; stroke: rgb(125, 190, 60); stroke-opacity: 1; fill: rgb(255, 255, 255); fill-opacity: 1;"/><text class="annotation-text" text-anchor="middle" x="17.34375" y="17" style="font-family: 'Open Sans', verdana, arial, sans-serif; font-size: 12px; fill: rgb(42, 63, 95); fill-opacity: 1; white-space: pre;">M̲E̲D̲</text></g></g></g><g class="annotation" data-index="22" style="opacity: 1;"><g class="annotation-text-g" transform="rotate(0,222.46,135.4)"><g class="cursor-pointer" transform="translate(201,123)"><rect class="bg" x="1.5" y="1.5" width="39" height="22" style="stroke-width: 3px; stroke: rgb(238, 202, 59); stroke-opacity: 1; fill: rgb(238, 202, 59); fill-opacity: 1;"/><text class="annotation-text" text-anchor="middle" x="20.90625" y="17" style="font-family: 'Open Sans', verdana, arial, sans-serif; font-size: 12px; fill: rgb(42, 63, 95); fill-opacity: 1; white-space: pre;">S̅F̅ T̅S̅</text></g></g></g><g class="annotation" data-index="23" style="opacity: 1;"><g class="annotation-text-g" transform="rotate(0,222.46,117)"><g class="cursor-pointer" transform="translate(205,105)"><rect class="bg" x="1.5" y="1.5" width="32" height="22" style="stroke-width: 3px; stroke: rgb(125, 190, 60); stroke-opacity: 1; fill: rgb(125, 190, 60); fill-opacity: 1;"/><text class="annotation-text" text-anchor="middle" x="17.34375" y="17" style="font-family: 'Open Sans', verdana, arial, sans-serif; font-size: 12px; fill: rgb(42, 63, 95); fill-opacity: 1; white-space: pre;">M̅E̅D̅</text></g></g></g><g class="annotation" data-index="24" style="opacity: 1;"><g class="annotation-text-g" transform="rotate(0,232.23,135.4)"><g class="cursor-pointer" transform="translate(211,123)"><rect class="bg" x="1.5" y="1.5" width="39" height="22" style="stroke-width: 3px; stroke: rgb(238, 202, 59); stroke-opacity: 1; fill: rgb(238, 202, 59); fill-opacity: 1;"/><text class="annotation-text" text-anchor="middle" x="20.90625" y="17" style="font-family: 'Open Sans', verdana, arial, sans-serif; font-size: 12px; fill: rgb(42, 63, 95); fill-opacity: 1; white-space: pre;">S̅F̅ T̅S̅</text></g></g></g><g class="annotation" data-index="25" style="opacity: 1;"><g class="annotation-text-g" transform="rotate(0,232.23,117)"><g class="cursor-pointer" transform="translate(215,105)"><rect class="bg" x="1.5" y="1.5" width="32" height="22" style="stroke-width: 3px; stroke: rgb(125, 190, 60); stroke-opacity: 1; fill: rgb(125, 190, 60); fill-opacity: 1;"/><text class="annotation-text" text-anchor="middle" x="17.34375" y="17" style="font-family: 'Open Sans', verdana, arial, sans-serif; font-size: 12px; fill: rgb(42, 63, 95); fill-opacity: 1; white-space: pre;">M̅E̅D̅</text></g></g></g><g class="annotation" data-index="26" style="opacity: 1;"><g class="annotation-text-g" transform="rotate(0,242,135.4)"><g class="cursor-pointer" transform="translate(221,123)"><rect class="bg" x="1.5" y="1.5" width="39" height="22" style="stroke-width: 3px; stroke: rgb(238, 202, 59); stroke-opacity: 1; fill: rgb(238, 202, 59); fill-opacity: 1;"/><text class="annotation-text" text-anchor="middle" x="20.90625" y="17" style="font-family: 'Open Sans', verdana, arial, sans-serif; font-size: 12px; fill: rgb(42, 63, 95); fill-opacity: 1; white-space: pre;">S̅F̅ T̅S̅</text></g></g></g><g class="annotation" data-index="27" style="opacity: 1;"><g class="annotation-text-g" transform="rotate(0,242,117)"><g class="cursor-pointer" transform="translate(225,105)"><rect class="bg" x="1.5" y="1.5" width="32" height="22" style="stroke-width: 3px; stroke: rgb(125, 190, 60); stroke-opacity: 1; fill: rgb(125, 190, 60); fill-opacity: 1;"/><text class="annotation-text" text-anchor="middle" x="17.34375" y="17" style="font-family: 'Open Sans', verdana, arial, sans-serif; font-size: 12px; fill: rgb(42, 63, 95); fill-opacity: 1; white-space: pre;">M̅E̅D̅</text></g></g></g><g class="annotation" data-index="28" style="opacity: 1;"><g class="annotation-text-g" transform="rotate(0,251.77,135.4)"><g class="cursor-pointer" transform="translate(231,123)"><rect class="bg" x="1.5" y="1.5" width="39" height="22" style="stroke-width: 3px; stroke: rgb(238, 202, 59); stroke-opacity: 1; fill: rgb(238, 202, 59); fill-opacity: 1;"/><text class="annotation-text" text-anchor="middle" x="20.90625" y="17" style="font-family: 'Open Sans', verdana, arial, sans-serif; font-size: 12px; fill: rgb(42, 63, 95); fill-opacity: 1; white-space: pre;">S̅F̅ T̅S̅</text></g></g></g><g class="annotation" data-index="29" style="opacity: 1;"><g class="annotation-text-g" transform="rotate(0,251.77,209)"><g class="cursor-pointer" transform="translate(234,197)"><rect class="bg" x="1.5" y="1.5" width="32" height="22" style="stroke-width: 3px; stroke: rgb(125, 190, 60); stroke-opacity: 1; fill: rgb(255, 255, 255); fill-opacity: 1;"/><text class="annotation-text" text-anchor="middle" x="17.34375" y="17" style="font-family: 'Open Sans', verdana, arial, sans-serif; font-size: 12px; fill: rgb(42, 63, 95); fill-opacity: 1; white-space: pre;">M̲E̲D̲</text></g></g></g><g class="annotation" data-index="30" style="opacity: 1;"><g class="annotation-text-g" transform="rotate(0,261.53999999999996,319.4)"><g class="cursor-pointer" transform="translate(241,307)"><rect class="bg" x="1.5" y="1.5" width="39" height="22" style="stroke-width: 3px; stroke: rgb(0, 0, 0); stroke-opacity: 0; fill: rgb(226, 226, 226); fill-opacity: 1;"/><text class="annotation-text" text-anchor="middle" x="20.90625" y="17" style="font-family: 'Open Sans', verdana, arial, sans-serif; font-size: 12px; fill: rgb(42, 63, 95); fill-opacity: 1; white-space: pre;">S̲F̲ T̲S̲</text></g></g></g><g class="annotation" data-index="31" style="opacity: 1;"><g class="annotation-text-g" transform="rotate(0,261.53999999999996,209)"><g class="cursor-pointer" transform="translate(244,197)"><rect class="bg" x="1.5" y="1.5" width="32" height="22" style="stroke-width: 3px; stroke: rgb(125, 190, 60); stroke-opacity: 1; fill: rgb(255, 255, 255); fill-opacity: 1;"/><text class="annotation-text" text-anchor="middle" x="17.34375" y="17" style="font-family: 'Open Sans', verdana, arial, sans-serif; font-size: 12px; fill: rgb(42, 63, 95); fill-opacity: 1; white-space: pre;">M̲E̲D̲</text></g></g></g><g class="annotation" data-index="32" style="opacity: 1;"><g class="annotation-text-g" transform="rotate(0,271.31,227.4)"><g class="cursor-pointer" transform="translate(250,215)"><rect class="bg" x="1.5" y="1.5" width="39" height="22" style="stroke-width: 3px; stroke: rgb(238, 202, 59); stroke-opacity: 1; fill: rgb(255, 255, 255); fill-opacity: 1;"/><text class="annotation-text" text-anchor="middle" x="20.90625" y="17" style="font-family: 'Open Sans', verdana, arial, sans-serif; font-size: 12px; fill: rgb(42, 63, 95); fill-opacity: 1; white-space: pre;">S̅F̅ T̲S̲</text></g></g></g><g class="annotation" data-index="33" style="opacity: 1;"><g class="annotation-text-g" transform="rotate(0,271.31,209)"><g class="cursor-pointer" transform="translate(254,197)"><rect class="bg" x="1.5" y="1.5" width="32" height="22" style="stroke-width: 3px; stroke: rgb(125, 190, 60); stroke-opacity: 1; fill: rgb(255, 255, 255); fill-opacity: 1;"/><text class="annotation-text" text-anchor="middle" x="17.34375" y="17" style="font-family: 'Open Sans', verdana, arial, sans-serif; font-size: 12px; fill: rgb(42, 63, 95); fill-opacity: 1; white-space: pre;">M̲E̲D̲</text></g></g></g><g class="annotation" data-index="34" style="opacity: 1;"><g class="annotation-text-g" transform="rotate(0,281.08000000000004,319.4)"><g class="cursor-pointer" transform="translate(260,307)"><rect class="bg" x="1.5" y="1.5" width="39" height="22" style="stroke-width: 3px; stroke: rgb(0, 0, 0); stroke-opacity: 0; fill: rgb(226, 226, 226); fill-opacity: 1;"/><text class="annotation-text" text-anchor="middle" x="20.90625" y="17" style="font-family: 'Open Sans', verdana, arial, sans-serif; font-size: 12px; fill: rgb(42, 63, 95); fill-opacity: 1; white-space: pre;">S̲F̲ T̲S̲</text></g></g></g><g class="annotation" data-index="35" style="opacity: 1;"><g class="annotation-text-g" transform="rotate(0,281.08000000000004,209)"><g class="cursor-pointer" transform="translate(264,197)"><rect class="bg" x="1.5" y="1.5" width="32" height="22" style="stroke-width: 3px; stroke: rgb(125, 190, 60); stroke-opacity: 1; fill: rgb(255, 255, 255); fill-opacity: 1;"/><text class="annotation-text" text-anchor="middle" x="17.34375" y="17" style="font-family: 'Open Sans', verdana, arial, sans-serif; font-size: 12px; fill: rgb(42, 63, 95); fill-opacity: 1; white-space: pre;">M̲E̲D̲</text></g></g></g><g class="annotation" data-index="36" style="opacity: 1;"><g class="annotation-text-g" transform="rotate(0,290.85,319.4)"><g class="cursor-pointer" transform="translate(270,307)"><rect class="bg" x="1.5" y="1.5" width="39" height="22" style="stroke-width: 3px; stroke: rgb(0, 0, 0); stroke-opacity: 0; fill: rgb(226, 226, 226); fill-opacity: 1;"/><text class="annotation-text" text-anchor="middle" x="20.90625" y="17" style="font-family: 'Open Sans', verdana, arial, sans-serif; font-size: 12px; fill: rgb(42, 63, 95); fill-opacity: 1; white-space: pre;">S̲F̲ T̲S̲</text></g></g></g><g class="annotation" data-index="37" style="opacity: 1;"><g class="annotation-text-g" transform="rotate(0,290.85,117)"><g class="cursor-pointer" transform="translate(273,105)"><rect class="bg" x="1.5" y="1.5" width="32" height="22" style="stroke-width: 3px; stroke: rgb(125, 190, 60); stroke-opacity: 1; fill: rgb(125, 190, 60); fill-opacity: 1;"/><text class="annotation-text" text-anchor="middle" x="17.34375" y="17" style="font-family: 'Open Sans', verdana, arial, sans-serif; font-size: 12px; fill: rgb(42, 63, 95); fill-opacity: 1; white-space: pre;">M̅E̅D̅</text></g></g></g><g class="annotation" data-index="38" style="opacity: 1;"><g class="annotation-text-g" transform="rotate(0,300.62,227.4)"><g class="cursor-pointer" transform="translate(280,215)"><rect class="bg" x="1.5" y="1.5" width="39" height="22" style="stroke-width: 3px; stroke: rgb(238, 202, 59); stroke-opacity: 1; fill: rgb(255, 255, 255); fill-opacity: 1;"/><text class="annotation-text" text-anchor="middle" x="20.90625" y="17" style="font-family: 'Open Sans', verdana, arial, sans-serif; font-size: 12px; fill: rgb(42, 63, 95); fill-opacity: 1; white-space: pre;">S̅F̅ T̲S̲</text></g></g></g><g class="annotation" data-index="39" style="opacity: 1;"><g class="annotation-text-g" transform="rotate(0,300.62,209)"><g class="cursor-pointer" transform="translate(283,197)"><rect class="bg" x="1.5" y="1.5" width="32" height="22" style="stroke-width: 3px; stroke: rgb(125, 190, 60); stroke-opacity: 1; fill: rgb(255, 255, 255); fill-opacity: 1;"/><text class="annotation-text" text-anchor="middle" x="17.34375" y="17" style="font-family: 'Open Sans', verdana, arial, sans-serif; font-size: 12px; fill: rgb(42, 63, 95); fill-opacity: 1; white-space: pre;">M̲E̲D̲</text></g></g></g><g class="annotation" data-index="40" style="opacity: 1;"><g class="annotation-text-g" transform="rotate(0,310.38,135.4)"><g class="cursor-pointer" transform="translate(289,123)"><rect class="bg" x="1.5" y="1.5" width="39" height="22" style="stroke-width: 3px; stroke: rgb(238, 202, 59); stroke-opacity: 1; fill: rgb(238, 202, 59); fill-opacity: 1;"/><text class="annotation-text" text-anchor="middle" x="20.90625" y="17" style="font-family: 'Open Sans', verdana, arial, sans-serif; font-size: 12px; fill: rgb(42, 63, 95); fill-opacity: 1; white-space: pre;">S̅F̅ T̅S̅</text></g></g></g><g class="annotation" data-index="41" style="opacity: 1;"><g class="annotation-text-g" transform="rotate(0,310.38,301)"><g class="cursor-pointer" transform="translate(293,289)"><rect class="bg" x="1.5" y="1.5" width="32" height="22" style="stroke-width: 3px; stroke: rgb(0, 0, 0); stroke-opacity: 0; fill: rgb(226, 226, 226); fill-opacity: 1;"/><text class="annotation-text" text-anchor="middle" x="17.34375" y="17" style="font-family: 'Open Sans', verdana, arial, sans-serif; font-size: 12px; fill: rgb(42, 63, 95); fill-opacity: 1; white-space: pre;">M̲E̲D̲</text></g></g></g><g class="annotation" data-index="42" style="opacity: 1;"><g class="annotation-text-g" transform="rotate(0,320.15,135.4)"><g class="cursor-pointer" transform="translate(299,123)"><rect class="bg" x="1.5" y="1.5" width="39" height="22" style="stroke-width: 3px; stroke: rgb(238, 202, 59); stroke-opacity: 1; fill: rgb(238, 202, 59); fill-opacity: 1;"/><text class="annotation-text" text-anchor="middle" x="20.90625" y="17" style="font-family: 'Open Sans', verdana, arial, sans-serif; font-size: 12px; fill: rgb(42, 63, 95); fill-opacity: 1; white-space: pre;">S̅F̅ T̅S̅</text></g></g></g><g class="annotation" data-index="43" style="opacity: 1;"><g class="annotation-text-g" transform="rotate(0,320.15,209)"><g class="cursor-pointer" transform="translate(303,197)"><rect class="bg" x="1.5" y="1.5" width="32" height="22" style="stroke-width: 3px; stroke: rgb(125, 190, 60); stroke-opacity: 1; fill: rgb(255, 255, 255); fill-opacity: 1;"/><text class="annotation-text" text-anchor="middle" x="17.34375" y="17" style="font-family: 'Open Sans', verdana, arial, sans-serif; font-size: 12px; fill: rgb(42, 63, 95); fill-opacity: 1; white-space: pre;">M̲E̲D̲</text></g></g></g><g class="annotation" data-index="44" style="opacity: 1;"><g class="annotation-text-g" transform="rotate(0,329.91999999999996,135.4)"><g class="cursor-pointer" transform="translate(309,123)"><rect class="bg" x="1.5" y="1.5" width="39" height="22" style="stroke-width: 3px; stroke: rgb(238, 202, 59); stroke-opacity: 1; fill: rgb(238, 202, 59); fill-opacity: 1;"/><text class="annotation-text" text-anchor="middle" x="20.90625" y="17" style="font-family: 'Open Sans', verdana, arial, sans-serif; font-size: 12px; fill: rgb(42, 63, 95); fill-opacity: 1; white-space: pre;">S̅F̅ T̅S̅</text></g></g></g><g class="annotation" data-index="45" style="opacity: 1;"><g class="annotation-text-g" transform="rotate(0,329.91999999999996,301)"><g class="cursor-pointer" transform="translate(312,289)"><rect class="bg" x="1.5" y="1.5" width="32" height="22" style="stroke-width: 3px; stroke: rgb(0, 0, 0); stroke-opacity: 0; fill: rgb(226, 226, 226); fill-opacity: 1;"/><text class="annotation-text" text-anchor="middle" x="17.34375" y="17" style="font-family: 'Open Sans', verdana, arial, sans-serif; font-size: 12px; fill: rgb(42, 63, 95); fill-opacity: 1; white-space: pre;">M̲E̲D̲</text></g></g></g><g class="annotation" data-index="46" style="opacity: 1;"><g class="annotation-text-g" transform="rotate(0,339.69,135.4)"><g class="cursor-pointer" transform="translate(319,123)"><rect class="bg" x="1.5" y="1.5" width="39" height="22" style="stroke-width: 3px; stroke: rgb(238, 202, 59); stroke-opacity: 1; fill: rgb(238, 202, 59); fill-opacity: 1;"/><text class="annotation-text" text-anchor="middle" x="20.90625" y="17" style="font-family: 'Open Sans', verdana, arial, sans-serif; font-size: 12px; fill: rgb(42, 63, 95); fill-opacity: 1; white-space: pre;">S̅F̅ T̅S̅</text></g></g></g><g class="annotation" data-index="47" style="opacity: 1;"><g class="annotation-text-g" transform="rotate(0,339.69,209)"><g class="cursor-pointer" transform="translate(322,197)"><rect class="bg" x="1.5" y="1.5" width="32" height="22" style="stroke-width: 3px; stroke: rgb(125, 190, 60); stroke-opacity: 1; fill: rgb(255, 255, 255); fill-opacity: 1;"/><text class="annotation-text" text-anchor="middle" x="17.34375" y="17" style="font-family: 'Open Sans', verdana, arial, sans-serif; font-size: 12px; fill: rgb(42, 63, 95); fill-opacity: 1; white-space: pre;">M̲E̲D̲</text></g></g></g><g class="annotation" data-index="48" style="opacity: 1;"><g class="annotation-text-g" transform="rotate(0,349.46000000000004,319.4)"><g class="cursor-pointer" transform="translate(328,307)"><rect class="bg" x="1.5" y="1.5" width="39" height="22" style="stroke-width: 3px; stroke: rgb(0, 0, 0); stroke-opacity: 0; fill: rgb(226, 226, 226); fill-opacity: 1;"/><text class="annotation-text" text-anchor="middle" x="20.90625" y="17" style="font-family: 'Open Sans', verdana, arial, sans-serif; font-size: 12px; fill: rgb(42, 63, 95); fill-opacity: 1; white-space: pre;">S̲F̲ T̲S̲</text></g></g></g><g class="annotation" data-index="49" style="opacity: 1;"><g class="annotation-text-g" transform="rotate(0,349.46000000000004,209)"><g class="cursor-pointer" transform="translate(332,197)"><rect class="bg" x="1.5" y="1.5" width="32" height="22" style="stroke-width: 3px; stroke: rgb(125, 190, 60); stroke-opacity: 1; fill: rgb(255, 255, 255); fill-opacity: 1;"/><text class="annotation-text" text-anchor="middle" x="17.34375" y="17" style="font-family: 'Open Sans', verdana, arial, sans-serif; font-size: 12px; fill: rgb(42, 63, 95); fill-opacity: 1; white-space: pre;">M̲E̲D̲</text></g></g></g><g class="annotation" data-index="50" style="opacity: 1;"><g class="annotation-text-g" transform="rotate(0,359.23,227.4)"><g class="cursor-pointer" transform="translate(338,215)"><rect class="bg" x="1.5" y="1.5" width="39" height="22" style="stroke-width: 3px; stroke: rgb(238, 202, 59); stroke-opacity: 1; fill: rgb(255, 255, 255); fill-opacity: 1;"/><text class="annotation-text" text-anchor="middle" x="20.90625" y="17" style="font-family: 'Open Sans', verdana, arial, sans-serif; font-size: 12px; fill: rgb(42, 63, 95); fill-opacity: 1; white-space: pre;">S̅F̅ T̲S̲</text></g></g></g><g class="annotation" data-index="51" style="opacity: 1;"><g class="annotation-text-g" transform="rotate(0,359.23,209)"><g class="cursor-pointer" transform="translate(342,197)"><rect class="bg" x="1.5" y="1.5" width="32" height="22" style="stroke-width: 3px; stroke: rgb(125, 190, 60); stroke-opacity: 1; fill: rgb(255, 255, 255); fill-opacity: 1;"/><text class="annotation-text" text-anchor="middle" x="17.34375" y="17" style="font-family: 'Open Sans', verdana, arial, sans-serif; font-size: 12px; fill: rgb(42, 63, 95); fill-opacity: 1; white-space: pre;">M̲E̲D̲</text></g></g></g><g class="annotation" data-index="52" style="opacity: 1;"><g class="annotation-text-g" transform="rotate(0,369,319.4)"><g class="cursor-pointer" transform="translate(348,307)"><rect class="bg" x="1.5" y="1.5" width="39" height="22" style="stroke-width: 3px; stroke: rgb(0, 0, 0); stroke-opacity: 0; fill: rgb(226, 226, 226); fill-opacity: 1;"/><text class="annotation-text" text-anchor="middle" x="20.90625" y="17" style="font-family: 'Open Sans', verdana, arial, sans-serif; font-size: 12px; fill: rgb(42, 63, 95); fill-opacity: 1; white-space: pre;">S̲F̲ T̲S̲</text></g></g></g><g class="annotation" data-index="53" style="opacity: 1;"><g class="annotation-text-g" transform="rotate(0,369,209)"><g class="cursor-pointer" transform="translate(352,197)"><rect class="bg" x="1.5" y="1.5" width="32" height="22" style="stroke-width: 3px; stroke: rgb(125, 190, 60); stroke-opacity: 1; fill: rgb(255, 255, 255); fill-opacity: 1;"/><text class="annotation-text" text-anchor="middle" x="17.34375" y="17" style="font-family: 'Open Sans', verdana, arial, sans-serif; font-size: 12px; fill: rgb(42, 63, 95); fill-opacity: 1; white-space: pre;">M̲E̲D̲</text></g></g></g></g></svg>