<svg class="main-svg" xmlns="http://www.w3.org/2000/svg" xmlns:xlink="http://www.w3.org/1999/xlink" width="800" height="800" style="" viewBox="0 0 400 400"><rect x="0" y="0" width="400" height="400" style="fill: rgb(255, 255, 255); fill-opacity: 1;"/><defs id="defs-de916a"><g class="clips"><clipPath id="clipde916axyplot" class="plotclip"><rect width="296" height="278"/></clipPath><clipPath class="axesclip" id="clipde916ax"><rect x="94" y="0" width="296" height="400"/></clipPath><clipPath class="axesclip" id="clipde916ay"><rect x="0" y="70" width="400" height="278"/></clipPath><clipPath class="axesclip" id="clipde916axy"><rect x="94" y="70" width="296" height="278"/></clipPath></g><g class="gradients"/><g class="patterns"/></defs><g class="bglayer"><rect class="bg" x="94" y="70" width="296" height="278" style="fill: rgb(229, 236, 246); fill-opacity: 1; stroke-width: 0;"/></g><g class="layer-below"><g class="imagelayer"/><g class="shapelayer"/></g><g class="cartesianlayer"><g class="subplot xy"><g class="layer-subplot"><g class="shapelayer"/><g class="imagelayer"/></g><g class="minor-gridlayer"><g class="x"/><g class="y"><path class="ygrid crisp" transform="translate(0,255)" d="M94,0h296" style="stroke: rgb(153, 158, 165); stroke-opacity: 1; stroke-width: 10px;"/><path class="ygrid crisp" transform="translate(0,181.4)" d="M94,0h296" style="stroke: rgb(153, 158, 165); stroke-opacity: 1; stroke-width: 10px;"/></g></g><g class="gridlayer"><g class="x"><path class="xgrid crisp" transform="translate(115,0)" d="M0,70v278" style="stroke: rgb(255, 255, 255); stroke-opacity: 1; stroke-width: 1px;"/><path class="xgrid crisp" transform="translate(202.59,0)" d="M0,70v278" style="stroke: rgb(255, 255, 255); stroke-opacity: 1; stroke-width: 1px;"/><path class="xgrid crisp" transform="translate(290.16999999999996,0)" d="M0,70v278" style="stroke: rgb(255, 255, 255); stroke-opacity: 1; stroke-width: 1px;"/><path class="xgrid crisp" transform="translate(377.76,0)" d="M0,70v278" style="stroke: rgb(255, 255, 255); stroke-opacity: 1; stroke-width: 1px;"/></g><g class="y"/></g><g class="zerolinelayer"/><path class="xlines-below"/><path class="ylines-below"/><g class="overlines-below"/><g class="xaxislayer-below"/><g class="yaxislayer-below"/><g class="overaxes-below"/><g class="plot" transform="translate(94,70)" clip-path="url(#clipde916axyplot)"><g class="scatterlayer mlayer"><g class="trace scatter trace86d58b" style="stroke-miterlimit: 2; opacity: 1;"><g class="fills"/><g class="errorbars"/><g class="lines"><path class="js-line" d="M21,249.4L38.52,65.4L47.28,65.4L64.79,65.4L73.55,249.4L82.31,157.4L91.07,249.4L99.83,249.4L108.59,157.4L117.34,65.4L126.1,65.4L143.62,65.4L152.38,249.4L161.14,157.4L169.9,249.4L178.66,249.4L187.41,157.4L196.17,65.4L204.93,65.4L222.45,65.4L231.21,249.4L239.97,157.4L248.72,249.4L257.48,249.4L266.24,157.4L275,65.4" style="vector-effect: none; fill: none; stroke: rgb(238, 202, 59); stroke-opacity: 1; stroke-width: 0.5px; opacity: 1;"/></g><g class="points"><path class="point" transform="translate(21,249.4)" d="M3,0A3,3 0 1,1 0,-3A3,3 0 0,1 3,0Z" style="opacity: 1; stroke-width: 0px; fill: rgb(238, 202, 59); fill-opacity: 1;"/><path class="point" transform="translate(29.76,157.4)" d="M3,0A3,3 0 1,1 0,-3A3,3 0 0,1 3,0Z" style="opacity: 1; stroke-width: 0px; fill: rgb(238, 202, 59); fill-opacity: 1;"/><path class="point" transform="translate(38.52,65.4)" d="M3,0A3,3 0 1,1 0,-3A3,3 0 0,1 3,0Z" style="opacity: 1; stroke-width: 0px; fill: rgb(238, 202, 59); fill-opacity: 1;"/><path class="point" transform="translate(47.28,65.4)" d="M3,0A3,3 0 1,1 0,-3A3,3 0 0,1 3,0Z" style="opacity: 1; stroke-width: 0px; fill: rgb(238, 202, 59); fill-opacity: 1;"/><path class="point" transform="translate(56.03,65.4)" d="M3,0A3,3 0 1,1 0,-3A3,3 0 0,1 3,0Z" style="opacity: 1; stroke-width: 0px; fill: rgb(238, 202, 59); fill-opacity: 1;"/><path class="point" transform="translate(64.79,65.4)" d="M3,0A3,3 0 1,1 0,-3A3,3 0 0,1 3,0Z" style="opacity: 1; stroke-width: 0px; fill: rgb(238, 202, 59); fill-opacity: 1;"/><path class="point" transform="translate(73.55,249.4)" d="M3,0A3,3 0 1,1 0,-3A3,3 0 0,1 3,0Z" style="opacity: 1; stroke-width: 0px; fill: rgb(238, 202, 59); fill-opacity: 1;"/><path class="point" transform="translate(82.31,157.4)" d="M3,0A3,3 0 1,1 0,-3A3,3 0 0,1 3,0Z" style="opacity: 1; stroke-width: 0px; fill: rgb(238, 202, 59); fill-opacity: 1;"/><path class="point" transform="translate(91.07,249.4)" d="M3,0A3,3 0 1,1 0,-3A3,3 0 0,1 3,0Z" style="opacity: 1; stroke-width: 0px; fill: rgb(238, 202, 59); fill-opacity: 1;"/><path class="point" transform="translate(99.83,249.4)" d="M3,0A3,3 0 1,1 0,-3A3,3 0 0,1 3,0Z" style="opacity: 1; stroke-width: 0px; fill: rgb(238, 202, 59); fill-opacity: 1;"/><path class="point" transform="translate(108.59,157.4)" d="M3,0A3,3 0 1,1 0,-3A3,3 0 0,1 3,0Z" style="opacity: 1; stroke-width: 0px; fill: rgb(238, 202, 59); fill-opacity: 1;"/><path class="point" transform="translate(117.34,65.4)" d="M3,0A3,3 0 1,1 0,-3A3,3 0 0,1 3,0Z" style="opacity: 1; stroke-width: 0px; fill: rgb(238, 202, 59); fill-opacity: 1;"/><path class="point" transform="translate(126.1,65.4)" d="M3,0A3,3 0 1,1 0,-3A3,3 0 0,1 3,0Z" style="opacity: 1; stroke-width: 0px; fill: rgb(238, 202, 59); fill-opacity: 1;"/><path class="point" transform="translate(134.86,65.4)" d="M3,0A3,3 0 1,1 0,-3A3,3 0 0,1 3,0Z" style="opacity: 1; stroke-width: 0px; fill: rgb(238, 202, 59); fill-opacity: 1;"/><path class="point" transform="translate(143.62,65.4)" d="M3,0A3,3 0 1,1 0,-3A3,3 0 0,1 3,0Z" style="opacity: 1; stroke-width: 0px; fill: rgb(238, 202, 59); fill-opacity: 1;"/><path class="point" transform="translate(152.38,249.4)" d="M3,0A3,3 0 1,1 0,-3A3,3 0 0,1 3,0Z" style="opacity: 1; stroke-width: 0px; fill: rgb(238, 202, 59); fill-opacity: 1;"/><path class="point" transform="translate(161.14,157.4)" d="M3,0A3,3 0 1,1 0,-3A3,3 0 0,1 3,0Z" style="opacity: 1; stroke-width: 0px; fill: rgb(238, 202, 59); fill-opacity: 1;"/><path class="point" transform="translate(169.9,249.4)" d="M3,0A3,3 0 1,1 0,-3A3,3 0 0,1 3,0Z" style="opacity: 1; stroke-width: 0px; fill: rgb(238, 202, 59); fill-opacity: 1;"/><path class="point" transform="translate(178.66,249.4)" d="M3,0A3,3 0 1,1 0,-3A3,3 0 0,1 3,0Z" style="opacity: 1; stroke-width: 0px; fill: rgb(238, 202, 59); fill-opacity: 1;"/><path class="point" transform="translate(187.41,157.4)" d="M3,0A3,3 0 1,1 0,-3A3,3 0 0,1 3,0Z" style="opacity: 1; stroke-width: 0px; fill: rgb(238, 202, 59); fill-opacity: 1;"/><path class="point" transform="translate(196.17,65.4)" d="M3,0A3,3 0 1,1 0,-3A3,3 0 0,1 3,0Z" style="opacity: 1; stroke-width: 0px; fill: rgb(238, 202, 59); fill-opacity: 1;"/><path class="point" transform="translate(204.93,65.4)" d="M3,0A3,3 0 1,1 0,-3A3,3 0 0,1 3,0Z" style="opacity: 1; stroke-width: 0px; fill: rgb(238, 202, 59); fill-opacity: 1;"/><path class="point" transform="translate(213.69,65.4)" d="M3,0A3,3 0 1,1 0,-3A3,3 0 0,1 3,0Z" style="opacity: 1; stroke-width: 0px; fill: rgb(238, 202, 59); fill-opacity: 1;"/><path class="point" transform="translate(222.45,65.4)" d="M3,0A3,3 0 1,1 0,-3A3,3 0 0,1 3,0Z" style="opacity: 1; stroke-width: 0px; fill: rgb(238, 202, 59); fill-opacity: 1;"/><path class="point" transform="translate(231.21,249.4)" d="M3,0A3,3 0 1,1 0,-3A3,3 0 0,1 3,0Z" style="opacity: 1; stroke-width: 0px; fill: rgb(238, 202, 59); fill-opacity: 1;"/><path class="point" transform="translate(239.97,157.4)" d="M3,0A3,3 0 1,1 0,-3A3,3 0 0,1 3,0Z" style="opacity: 1; stroke-width: 0px; fill: rgb(238, 202, 59); fill-opacity: 1;"/><path class="point" transform="translate(248.72,249.4)" d="M3,0A3,3 0 1,1 0,-3A3,3 0 0,1 3,0Z" style="opacity: 1; stroke-width: 0px; fill: rgb(238, 202, 59); fill-opacity: 1;"/><path class="point" transform="translate(257.48,249.4)" d="M3,0A3,3 0 1,1 0,-3A3,3 0 0,1 3,0Z" style="opacity: 1; stroke-width: 0px; fill: rgb(238, 202, 59); fill-opacity: 1;"/><path class="point" transform="translate(266.24,157.4)" d="M3,0A3,3 0 1,1 0,-3A3,3 0 0,1 3,0Z" style="opacity: 1; stroke-width: 0px; fill: rgb(238, 202, 59); fill-opacity: 1;"/><path class="point" transform="translate(275,65.4)" d="M3,0A3,3 0 1,1 0,-3A3,3 0 0,1 3,0Z" style="opacity: 1; stroke-width: 0px; fill: rgb(238, 202, 59); fill-opacity: 1;"/></g><g class="text"/></g><g class="trace scatter trace97b942" style="stroke-miterlimit: 2; opacity: 1;"><g class="fills"/><g class="errorbars"/><g class="lines"><path class="js-line" d="M21,139L29.76,139L38.52,231L47.28,139L56.03,139L108.59,139L117.34,47L134.86,47L143.62,139L169.9,139L178.66,47L196.17,231L204.93,139L213.69,231L222.45,139L248.72,139L257.48,47L275,47" style="vector-effect: none; fill: none; stroke: rgb(163, 73, 164); stroke-opacity: 1; stroke-width: 0.5px; opacity: 1;"/></g><g class="points"/><g class="text"/></g></g></g><g class="overplot"/><path class="xlines-above crisp" d="M0,0" style="fill: none;"/><path class="ylines-above crisp" d="M93.5,70V348" style="fill: none; stroke-width: 1px; stroke: rgb(255, 255, 255); stroke-opacity: 1;"/><g class="overlines-above"/><g class="xaxislayer-above"><g class="xtick"><text text-anchor="middle" x="0" y="361" transform="translate(115,0)" style="font-family: 'Open Sans', verdana, arial, sans-serif; font-size: 12px; fill: rgb(42, 63, 95); fill-opacity: 1; white-space: pre; opacity: 1;">0</text></g><g class="xtick"><text text-anchor="middle" x="0" y="361" style="font-family: 'Open Sans', verdana, arial, sans-serif; font-size: 12px; fill: rgb(42, 63, 95); fill-opacity: 1; white-space: pre; opacity: 1;" transform="translate(202.59,0)">10</text></g><g class="xtick"><text text-anchor="middle" x="0" y="361" style="font-family: 'Open Sans', verdana, arial, sans-serif; font-size: 12px; fill: rgb(42, 63, 95); fill-opacity: 1; white-space: pre; opacity: 1;" transform="translate(290.16999999999996,0)">20</text></g><g class="xtick"><text text-anchor="middle" x="0" y="361" style="font-family: 'Open Sans', verdana, arial, sans-serif; font-size: 12px; fill: rgb(42, 63, 95); fill-opacity: 1; white-space: pre; opacity: 1;" transform="translate(377.76,0)">30</text></g></g><g class="yaxislayer-above"><g class="ytick"><text text-anchor="end" x="90.6" y="4.199999999999999" transform="translate(0,310.2)" style="font-family: 'Open Sans', verdana, arial, sans-serif; font-size: 12px; fill: rgb(42, 63, 95); fill-opacity: 1; white-space: pre; opacity: 1;">Idle</text></g><g class="ytick"><text text-anchor="end" x="90.6" y="4.199999999999999" style="font-family: 'Open Sans', verdana, arial, sans-serif; font-size: 12px; fill: rgb(42, 63, 95); fill-opacity: 1; white-space: pre; opacity: 1;" transform="translate(0,218.2)">Transition</text></g><g class="ytick"><text text-anchor="end" x="90.6" y="4.199999999999999" style="font-family: 'Open Sans', verdana, arial, sans-serif; font-size: 12px; fill: rgb(42, 63, 95); fill-opacity: 1; white-space: pre; opacity: 1;" transform="translate(0,126.2)">Active</text></g></g><g class="overaxes-above"/></g></g><g class="polarlayer"/><g class="smithlayer"/><g class="ternarylayer"/><g class="geolayer"/><g class="funnelarealayer"/><g class="pielayer"/><g class="iciclelayer"/><g class="treemaplayer"/><g class="sunburstlayer"/><g class="glimages"/><defs id="topdefs-de916a"><g class="clips"/></defs><g class="layer-above"><g class="imagelayer"/><g class="shapelayer"><g class="shape-group" data-index="0" clip-path="url(#clipde916axy)"><path data-index="0" fill-rule="evenodd" d="M364.62,347H373.38V71H364.62Z" style="opacity: 1; stroke: rgb(42, 63, 95); stroke-opacity: 1; fill: rgb(182, 182, 182); fill-opacity: 0.1; stroke-width: 2px;"/></g></g></g><g class="infolayer"><g class="g-gtitle"><text class="gtitle" x="20" y="35" text-anchor="start" dy="0em" style="font-family: 'Open Sans', verdana, arial, sans-serif; font-size: 17px; fill: rgb(42, 63, 95); opacity: 1; font-weight: normal; white-space: pre;"><tspan class="line" dy="0em" x="20" y="35"><tspan style="font-weight:bold">State Machine evolution</tspan> - Iteration 29</tspan><tspan class="line" dy="1.3em" x="20" y="35">SF active-TS active-MED active</tspan><tspan class="line" dy="2.6em" x="20" y="35"></tspan></text></g><g class="g-xtitle"><text class="xtitle" x="242" y="389.3" text-anchor="middle" style="font-family: 'Open Sans', verdana, arial, sans-serif; font-size: 14px; fill: rgb(42, 63, 95); opacity: 1; font-weight: normal; white-space: pre;">Time</text></g><g class="g-ytitle" transform="translate(4.9248046875,0)"><text class="ytitle" transform="rotate(-90,10.075000000000003,209)" x="10.075000000000003" y="209" text-anchor="middle" style="font-family: 'Open Sans', verdana, arial, sans-serif; font-size: 14px; fill: rgb(42, 63, 95); opacity: 1; font-weight: normal; white-space: pre;">State</text></g><g class="annotation" data-index="0" style="opacity: 1;"><g class="annotation-text-g" transform="rotate(0,115,319.4)"><g class="cursor-pointer" transform="translate(94,307)"><rect class="bg" x="1.5" y="1.5" width="39" height="22" style="stroke-width: 3px; stroke: rgb(0, 0, 0); stroke-opacity: 0; fill: rgb(226, 226, 226); fill-opacity: 1;"/><text class="annotation-text" text-anchor="middle" x="20.90625" y="17" style="font-family: 'Open Sans', verdana, arial, sans-serif; font-size: 12px; fill: rgb(42, 63, 95); fill-opacity: 1; white-space: pre;">S̲F̲ T̲S̲</text></g></g></g><g class="annotation" data-index="1" style="opacity: 1;"><g class="annotation-text-g" transform="rotate(0,115,209)"><g class="cursor-pointer" transform="translate(98,197)"><rect class="bg" x="1.5" y="1.5" width="32" height="22" style="stroke-width: 3px; stroke: rgb(125, 190, 60); stroke-opacity: 1; fill: rgb(255, 255, 255); fill-opacity: 1;"/><text class="annotation-text" text-anchor="middle" x="17.34375" y="17" style="font-family: 'Open Sans', verdana, arial, sans-serif; font-size: 12px; fill: rgb(42, 63, 95); fill-opacity: 1; white-space: pre;">M̲E̲D̲</text></g></g></g><g class="annotation" data-index="2" style="opacity: 1;"><g class="annotation-text-g" transform="rotate(0,123.76,227.4)"><g class="cursor-pointer" transform="translate(103,215)"><rect class="bg" x="1.5" y="1.5" width="39" height="22" style="stroke-width: 3px; stroke: rgb(238, 202, 59); stroke-opacity: 1; fill: rgb(255, 255, 255); fill-opacity: 1;"/><text class="annotation-text" text-anchor="middle" x="20.90625" y="17" style="font-family: 'Open Sans', verdana, arial, sans-serif; font-size: 12px; fill: rgb(42, 63, 95); fill-opacity: 1; white-space: pre;">S̅F̅ T̲S̲</text></g></g></g><g class="annotation" data-index="3" style="opacity: 1;"><g class="annotation-text-g" transform="rotate(0,123.76,209)"><g class="cursor-pointer" transform="translate(106,197)"><rect class="bg" x="1.5" y="1.5" width="32" height="22" style="stroke-width: 3px; stroke: rgb(125, 190, 60); stroke-opacity: 1; fill: rgb(255, 255, 255); fill-opacity: 1;"/><text class="annotation-text" text-anchor="middle" x="17.34375" y="17" style="font-family: 'Open Sans', verdana, arial, sans-serif; font-size: 12px; fill: rgb(42, 63, 95); fill-opacity: 1; white-space: pre;">M̲E̲D̲</text></g></g></g><g class="annotation" data-index="4" style="opacity: 1;"><g class="annotation-text-g" transform="rotate(0,132.52,135.4)"><g class="cursor-pointer" transform="translate(112,123)"><rect class="bg" x="1.5" y="1.5" width="39" height="22" style="stroke-width: 3px; stroke: rgb(238, 202, 59); stroke-opacity: 1; fill: rgb(238, 202, 59); fill-opacity: 1;"/><text class="annotation-text" text-anchor="middle" x="20.90625" y="17" style="font-family: 'Open Sans', verdana, arial, sans-serif; font-size: 12px; fill: rgb(42, 63, 95); fill-opacity: 1; white-space: pre;">S̅F̅ T̅S̅</text></g></g></g><g class="annotation" data-index="5" style="opacity: 1;"><g class="annotation-text-g" transform="rotate(0,132.52,301)"><g class="cursor-pointer" transform="translate(115,289)"><rect class="bg" x="1.5" y="1.5" width="32" height="22" style="stroke-width: 3px; stroke: rgb(0, 0, 0); stroke-opacity: 0; fill: rgb(226, 226, 226); fill-opacity: 1;"/><text class="annotation-text" text-anchor="middle" x="17.34375" y="17" style="font-family: 'Open Sans', verdana, arial, sans-serif; font-size: 12px; fill: rgb(42, 63, 95); fill-opacity: 1; white-space: pre;">M̲E̲D̲</text></g></g></g><g class="annotation" data-index="6" style="opacity: 1;"><g class="annotation-text-g" transform="rotate(0,141.28,135.4)"><g class="cursor-pointer" transform="translate(120,123)"><rect class="bg" x="1.5" y="1.5" width="39" height="22" style="stroke-width: 3px; stroke: rgb(238, 202, 59); stroke-opacity: 1; fill: rgb(238, 202, 59); fill-opacity: 1;"/><text class="annotation-text" text-anchor="middle" x="20.90625" y="17" style="font-family: 'Open Sans', verdana, arial, sans-serif; font-size: 12px; fill: rgb(42, 63, 95); fill-opacity: 1; white-space: pre;">S̅F̅ T̅S̅</text></g></g></g><g class="annotation" data-index="7" style="opacity: 1;"><g class="annotation-text-g" transform="rotate(0,141.28,209)"><g class="cursor-pointer" transform="translate(124,197)"><rect class="bg" x="1.5" y="1.5" width="32" height="22" style="stroke-width: 3px; stroke: rgb(125, 190, 60); stroke-opacity: 1; fill: rgb(255, 255, 255); fill-opacity: 1;"/><text class="annotation-text" text-anchor="middle" x="17.34375" y="17" style="font-family: 'Open Sans', verdana, arial, sans-serif; font-size: 12px; fill: rgb(42, 63, 95); fill-opacity: 1; white-space: pre;">M̲E̲D̲</text></g></g></g><g class="annotation" data-index="8" style="opacity: 1;"><g class="annotation-text-g" transform="rotate(0,150.03,135.4)"><g class="cursor-pointer" transform="translate(129,123)"><rect class="bg" x="1.5" y="1.5" width="39" height="22" style="stroke-width: 3px; stroke: rgb(238, 202, 59); stroke-opacity: 1; fill: rgb(238, 202, 59); fill-opacity: 1;"/><text class="annotation-text" text-anchor="middle" x="20.90625" y="17" style="font-family: 'Open Sans', verdana, arial, sans-serif; font-size: 12px; fill: rgb(42, 63, 95); fill-opacity: 1; white-space: pre;">S̅F̅ T̅S̅</text></g></g></g><g class="annotation" data-index="9" style="opacity: 1;"><g class="annotation-text-g" transform="rotate(0,150.03,209)"><g class="cursor-pointer" transform="translate(133,197)"><rect class="bg" x="1.5" y="1.5" width="32" height="22" style="stroke-width: 3px; stroke: rgb(125, 190, 60); stroke-opacity: 1; fill: rgb(255, 255, 255); fill-opacity: 1;"/><text class="annotation-text" text-anchor="middle" x="17.34375" y="17" style="font-family: 'Open Sans', verdana, arial, sans-serif; font-size: 12px; fill: rgb(42, 63, 95); fill-opacity: 1; white-space: pre;">M̲E̲D̲</text></g></g></g><g class="annotation" data-index="10" style="opacity: 1;"><g class="annotation-text-g" transform="rotate(0,158.79000000000002,135.4)"><g class="cursor-pointer" transform="translate(138,123)"><rect class="bg" x="1.5" y="1.5" width="39" height="22" style="stroke-width: 3px; stroke: rgb(238, 202, 59); stroke-opacity: 1; fill: rgb(238, 202, 59); fill-opacity: 1;"/><text class="annotation-text" text-anchor="middle" x="20.90625" y="17" style="font-family: 'Open Sans', verdana, arial, sans-serif; font-size: 12px; fill: rgb(42, 63, 95); fill-opacity: 1; white-space: pre;">S̅F̅ T̅S̅</text></g></g></g><g class="annotation" data-index="11" style="opacity: 1;"><g class="annotation-text-g" transform="rotate(0,158.79000000000002,209)"><g class="cursor-pointer" transform="translate(141,197)"><rect class="bg" x="1.5" y="1.5" width="32" height="22" style="stroke-width: 3px; stroke: rgb(125, 190, 60); stroke-opacity: 1; fill: rgb(255, 255, 255); fill-opacity: 1;"/><text class="annotation-text" text-anchor="middle" x="17.34375" y="17" style="font-family: 'Open Sans', verdana, arial, sans-serif; font-size: 12px; fill: rgb(42, 63, 95); fill-opacity: 1; white-space: pre;">M̲E̲D̲</text></g></g></g><g class="annotation" data-index="12" style="opacity: 1;"><g class="annotation-text-g" transform="rotate(0,167.55,319.4)"><g class="cursor-pointer" transform="translate(147,307)"><rect class="bg" x="1.5" y="1.5" width="39" height="22" style="stroke-width: 3px; stroke: rgb(0, 0, 0); stroke-opacity: 0; fill: rgb(226, 226, 226); fill-opacity: 1;"/><text class="annotation-text" text-anchor="middle" x="20.90625" y="17" style="font-family: 'Open Sans', verdana, arial, sans-serif; font-size: 12px; fill: rgb(42, 63, 95); fill-opacity: 1; white-space: pre;">S̲F̲ T̲S̲</text></g></g></g><g class="annotation" data-index="13" style="opacity: 1;"><g class="annotation-text-g" transform="rotate(0,167.55,209)"><g class="cursor-pointer" transform="translate(150,197)"><rect class="bg" x="1.5" y="1.5" width="32" height="22" style="stroke-width: 3px; stroke: rgb(125, 190, 60); stroke-opacity: 1; fill: rgb(255, 255, 255); fill-opacity: 1;"/><text class="annotation-text" text-anchor="middle" x="17.34375" y="17" style="font-family: 'Open Sans', verdana, arial, sans-serif; font-size: 12px; fill: rgb(42, 63, 95); fill-opacity: 1; white-space: pre;">M̲E̲D̲</text></g></g></g><g class="annotation" data-index="14" style="opacity: 1;"><g class="annotation-text-g" transform="rotate(0,176.31,227.4)"><g class="cursor-pointer" transform="translate(155,215)"><rect class="bg" x="1.5" y="1.5" width="39" height="22" style="stroke-width: 3px; stroke: rgb(238, 202, 59); stroke-opacity: 1; fill: rgb(255, 255, 255); fill-opacity: 1;"/><text class="annotation-text" text-anchor="middle" x="20.90625" y="17" style="font-family: 'Open Sans', verdana, arial, sans-serif; font-size: 12px; fill: rgb(42, 63, 95); fill-opacity: 1; white-space: pre;">S̅F̅ T̲S̲</text></g></g></g><g class="annotation" data-index="15" style="opacity: 1;"><g class="annotation-text-g" transform="rotate(0,176.31,209)"><g class="cursor-pointer" transform="translate(159,197)"><rect class="bg" x="1.5" y="1.5" width="32" height="22" style="stroke-width: 3px; stroke: rgb(125, 190, 60); stroke-opacity: 1; fill: rgb(255, 255, 255); fill-opacity: 1;"/><text class="annotation-text" text-anchor="middle" x="17.34375" y="17" style="font-family: 'Open Sans', verdana, arial, sans-serif; font-size: 12px; fill: rgb(42, 63, 95); fill-opacity: 1; white-space: pre;">M̲E̲D̲</text></g></g></g><g class="annotation" data-index="16" style="opacity: 1;"><g class="annotation-text-g" transform="rotate(0,185.07,319.4)"><g class="cursor-pointer" transform="translate(164,307)"><rect class="bg" x="1.5" y="1.5" width="39" height="22" style="stroke-width: 3px; stroke: rgb(0, 0, 0); stroke-opacity: 0; fill: rgb(226, 226, 226); fill-opacity: 1;"/><text class="annotation-text" text-anchor="middle" x="20.90625" y="17" style="font-family: 'Open Sans', verdana, arial, sans-serif; font-size: 12px; fill: rgb(42, 63, 95); fill-opacity: 1; white-space: pre;">S̲F̲ T̲S̲</text></g></g></g><g class="annotation" data-index="17" style="opacity: 1;"><g class="annotation-text-g" transform="rotate(0,185.07,209)"><g class="cursor-pointer" transform="translate(168,197)"><rect class="bg" x="1.5" y="1.5" width="32" height="22" style="stroke-width: 3px; stroke: rgb(125, 190, 60); stroke-opacity: 1; fill: rgb(255, 255, 255); fill-opacity: 1;"/><text class="annotation-text" text-anchor="middle" x="17.34375" y="17" style="font-family: 'Open Sans', verdana, arial, sans-serif; font-size: 12px; fill: rgb(42, 63, 95); fill-opacity: 1; white-space: pre;">M̲E̲D̲</text></g></g></g><g class="annotation" data-index="18" style="opacity: 1;"><g class="annotation-text-g" transform="rotate(0,193.82999999999998,319.4)"><g class="cursor-pointer" transform="translate(173,307)"><rect class="bg" x="1.5" y="1.5" width="39" height="22" style="stroke-width: 3px; stroke: rgb(0, 0, 0); stroke-opacity: 0; fill: rgb(226, 226, 226); fill-opacity: 1;"/><text class="annotation-text" text-anchor="middle" x="20.90625" y="17" style="font-family: 'Open Sans', verdana, arial, sans-serif; font-size: 12px; fill: rgb(42, 63, 95); fill-opacity: 1; white-space: pre;">S̲F̲ T̲S̲</text></g></g></g><g class="annotation" data-index="19" style="opacity: 1;"><g class="annotation-text-g" transform="rotate(0,193.82999999999998,209)"><g class="cursor-pointer" transform="translate(176,197)"><rect class="bg" x="1.5" y="1.5" width="32" height="22" style="stroke-width: 3px; stroke: rgb(125, 190, 60); stroke-opacity: 1; fill: rgb(255, 255, 255); fill-opacity: 1;"/><text class="annotation-text" text-anchor="middle" x="17.34375" y="17" style="font-family: 'Open Sans', verdana, arial, sans-serif; font-size: 12px; fill: rgb(42, 63, 95); fill-opacity: 1; white-space: pre;">M̲E̲D̲</text></g></g></g><g class="annotation" data-index="20" style="opacity: 1;"><g class="annotation-text-g" transform="rotate(0,202.59,227.4)"><g class="cursor-pointer" transform="translate(182,215)"><rect class="bg" x="1.5" y="1.5" width="39" height="22" style="stroke-width: 3px; stroke: rgb(238, 202, 59); stroke-opacity: 1; fill: rgb(255, 255, 255); fill-opacity: 1;"/><text class="annotation-text" text-anchor="middle" x="20.90625" y="17" style="font-family: 'Open Sans', verdana, arial, sans-serif; font-size: 12px; fill: rgb(42, 63, 95); fill-opacity: 1; white-space: pre;">S̅F̅ T̲S̲</text></g></g></g><g class="annotation" data-index="21" style="opacity: 1;"><g class="annotation-text-g" transform="rotate(0,202.59,209)"><g class="cursor-pointer" transform="translate(185,197)"><rect class="bg" x="1.5" y="1.5" width="32" height="22" style="stroke-width: 3px; stroke: rgb(125, 190, 60); stroke-opacity: 1; fill: rgb(255, 255, 255); fill-opacity: 1;"/><text class="annotation-text" text-anchor="middle" x="17.34375" y="17" style="font-family: 'Open Sans', verdana, arial, sans-serif; font-size: 12px; fill: rgb(42, 63, 95); fill-opacity: 1; white-space: pre;">M̲E̲D̲</text></g></g></g><g class="annotation" data-index="22" style="opacity: 1;"><g class="annotation-text-g" transform="rotate(0,211.34,135.4)"><g class="cursor-pointer" transform="translate(190,123)"><rect class="bg" x="1.5" y="1.5" width="39" height="22" style="stroke-width: 3px; stroke: rgb(238, 202, 59); stroke-opacity: 1; fill: rgb(238, 202, 59); fill-opacity: 1;"/><text class="annotation-text" text-anchor="middle" x="20.90625" y="17" style="font-family: 'Open Sans', verdana, arial, sans-serif; font-size: 12px; fill: rgb(42, 63, 95); fill-opacity: 1; white-space: pre;">S̅F̅ T̅S̅</text></g></g></g><g class="annotation" data-index="23" style="opacity: 1;"><g class="annotation-text-g" transform="rotate(0,211.34,117)"><g class="cursor-pointer" transform="translate(194,105)"><rect class="bg" x="1.5" y="1.5" width="32" height="22" style="stroke-width: 3px; stroke: rgb(125, 190, 60); stroke-opacity: 1; fill: rgb(125, 190, 60); fill-opacity: 1;"/><text class="annotation-text" text-anchor="middle" x="17.34375" y="17" style="font-family: 'Open Sans', verdana, arial, sans-serif; font-size: 12px; fill: rgb(42, 63, 95); fill-opacity: 1; white-space: pre;">M̅E̅D̅</text></g></g></g><g class="annotation" data-index="24" style="opacity: 1;"><g class="annotation-text-g" transform="rotate(0,220.1,135.4)"><g class="cursor-pointer" transform="translate(199,123)"><rect class="bg" x="1.5" y="1.5" width="39" height="22" style="stroke-width: 3px; stroke: rgb(238, 202, 59); stroke-opacity: 1; fill: rgb(238, 202, 59); fill-opacity: 1;"/><text class="annotation-text" text-anchor="middle" x="20.90625" y="17" style="font-family: 'Open Sans', verdana, arial, sans-serif; font-size: 12px; fill: rgb(42, 63, 95); fill-opacity: 1; white-space: pre;">S̅F̅ T̅S̅</text></g></g></g><g class="annotation" data-index="25" style="opacity: 1;"><g class="annotation-text-g" transform="rotate(0,220.1,117)"><g class="cursor-pointer" transform="translate(203,105)"><rect class="bg" x="1.5" y="1.5" width="32" height="22" style="stroke-width: 3px; stroke: rgb(125, 190, 60); stroke-opacity: 1; fill: rgb(125, 190, 60); fill-opacity: 1;"/><text class="annotation-text" text-anchor="middle" x="17.34375" y="17" style="font-family: 'Open Sans', verdana, arial, sans-serif; font-size: 12px; fill: rgb(42, 63, 95); fill-opacity: 1; white-space: pre;">M̅E̅D̅</text></g></g></g><g class="annotation" data-index="26" style="opacity: 1;"><g class="annotation-text-g" transform="rotate(0,228.86,135.4)"><g class="cursor-pointer" transform="translate(208,123)"><rect class="bg" x="1.5" y="1.5" width="39" height="22" style="stroke-width: 3px; stroke: rgb(238, 202, 59); stroke-opacity: 1; fill: rgb(238, 202, 59); fill-opacity: 1;"/><text class="annotation-text" text-anchor="middle" x="20.90625" y="17" style="font-family: 'Open Sans', verdana, arial, sans-serif; font-size: 12px; fill: rgb(42, 63, 95); fill-opacity: 1; white-space: pre;">S̅F̅ T̅S̅</text></g></g></g><g class="annotation" data-index="27" style="opacity: 1;"><g class="annotation-text-g" transform="rotate(0,228.86,117)"><g class="cursor-pointer" transform="translate(211,105)"><rect class="bg" x="1.5" y="1.5" width="32" height="22" style="stroke-width: 3px; stroke: rgb(125, 190, 60); stroke-opacity: 1; fill: rgb(125, 190, 60); fill-opacity: 1;"/><text class="annotation-text" text-anchor="middle" x="17.34375" y="17" style="font-family: 'Open Sans', verdana, arial, sans-serif; font-size: 12px; fill: rgb(42, 63, 95); fill-opacity: 1; white-space: pre;">M̅E̅D̅</text></g></g></g><g class="annotation" data-index="28" style="opacity: 1;"><g class="annotation-text-g" transform="rotate(0,237.62,135.4)"><g class="cursor-pointer" transform="translate(217,123)"><rect class="bg" x="1.5" y="1.5" width="39" height="22" style="stroke-width: 3px; stroke: rgb(238, 202, 59); stroke-opacity: 1; fill: rgb(238, 202, 59); fill-opacity: 1;"/><text class="annotation-text" text-anchor="middle" x="20.90625" y="17" style="font-family: 'Open Sans', verdana, arial, sans-serif; font-size: 12px; fill: rgb(42, 63, 95); fill-opacity: 1; white-space: pre;">S̅F̅ T̅S̅</text></g></g></g><g class="annotation" data-index="29" style="opacity: 1;"><g class="annotation-text-g" transform="rotate(0,237.62,209)"><g class="cursor-pointer" transform="translate(220,197)"><rect class="bg" x="1.5" y="1.5" width="32" height="22" style="stroke-width: 3px; stroke: rgb(125, 190, 60); stroke-opacity: 1; fill: rgb(255, 255, 255); fill-opacity: 1;"/><text class="annotation-text" text-anchor="middle" x="17.34375" y="17" style="font-family: 'Open Sans', verdana, arial, sans-serif; font-size: 12px; fill: rgb(42, 63, 95); fill-opacity: 1; white-space: pre;">M̲E̲D̲</text></g></g></g><g class="annotation" data-index="30" style="opacity: 1;"><g class="annotation-text-g" transform="rotate(0,246.38,319.4)"><g class="cursor-pointer" transform="translate(225,307)"><rect class="bg" x="1.5" y="1.5" width="39" height="22" style="stroke-width: 3px; stroke: rgb(0, 0, 0); stroke-opacity: 0; fill: rgb(226, 226, 226); fill-opacity: 1;"/><text class="annotation-text" text-anchor="middle" x="20.90625" y="17" style="font-family: 'Open Sans', verdana, arial, sans-serif; font-size: 12px; fill: rgb(42, 63, 95); fill-opacity: 1; white-space: pre;">S̲F̲ T̲S̲</text></g></g></g><g class="annotation" data-index="31" style="opacity: 1;"><g class="annotation-text-g" transform="rotate(0,246.38,209)"><g class="cursor-pointer" transform="translate(229,197)"><rect class="bg" x="1.5" y="1.5" width="32" height="22" style="stroke-width: 3px; stroke: rgb(125, 190, 60); stroke-opacity: 1; fill: rgb(255, 255, 255); fill-opacity: 1;"/><text class="annotation-text" text-anchor="middle" x="17.34375" y="17" style="font-family: 'Open Sans', verdana, arial, sans-serif; font-size: 12px; fill: rgb(42, 63, 95); fill-opacity: 1; white-space: pre;">M̲E̲D̲</text></g></g></g><g class="annotation" data-index="32" style="opacity: 1;"><g class="annotation-text-g" transform="rotate(0,255.14,227.4)"><g class="cursor-pointer" transform="translate(234,215)"><rect class="bg" x="1.5" y="1.5" width="39" height="22" style="stroke-width: 3px; stroke: rgb(238, 202, 59); stroke-opacity: 1; fill: rgb(255, 255, 255); fill-opacity: 1;"/><text class="annotation-text" text-anchor="middle" x="20.90625" y="17" style="font-family: 'Open Sans', verdana, arial, sans-serif; font-size: 12px; fill: rgb(42, 63, 95); fill-opacity: 1; white-space: pre;">S̅F̅ T̲S̲</text></g></g></g><g class="annotation" data-index="33" style="opacity: 1;"><g class="annotation-text-g" transform="rotate(0,255.14,209)"><g class="cursor-pointer" transform="translate(238,197)"><rect class="bg" x="1.5" y="1.5" width="32" height="22" style="stroke-width: 3px; stroke: rgb(125, 190, 60); stroke-opacity: 1; fill: rgb(255, 255, 255); fill-opacity: 1;"/><text class="annotation-text" text-anchor="middle" x="17.34375" y="17" style="font-family: 'Open Sans', verdana, arial, sans-serif; font-size: 12px; fill: rgb(42, 63, 95); fill-opacity: 1; white-space: pre;">M̲E̲D̲</text></g></g></g><g class="annotation" data-index="34" style="opacity: 1;"><g class="annotation-text-g" transform="rotate(0,263.9,319.4)"><g class="cursor-pointer" transform="translate(243,307)"><rect class="bg" x="1.5" y="1.5" width="39" height="22" style="stroke-width: 3px; stroke: rgb(0, 0, 0); stroke-opacity: 0; fill: rgb(226, 226, 226); fill-opacity: 1;"/><text class="annotation-text" text-anchor="middle" x="20.90625" y="17" style="font-family: 'Open Sans', verdana, arial, sans-serif; font-size: 12px; fill: rgb(42, 63, 95); fill-opacity: 1; white-space: pre;">S̲F̲ T̲S̲</text></g></g></g><g class="annotation" data-index="35" style="opacity: 1;"><g class="annotation-text-g" transform="rotate(0,263.9,209)"><g class="cursor-pointer" transform="translate(246,197)"><rect class="bg" x="1.5" y="1.5" width="32" height="22" style="stroke-width: 3px; stroke: rgb(125, 190, 60); stroke-opacity: 1; fill: rgb(255, 255, 255); fill-opacity: 1;"/><text class="annotation-text" text-anchor="middle" x="17.34375" y="17" style="font-family: 'Open Sans', verdana, arial, sans-serif; font-size: 12px; fill: rgb(42, 63, 95); fill-opacity: 1; white-space: pre;">M̲E̲D̲</text></g></g></g><g class="annotation" data-index="36" style="opacity: 1;"><g class="annotation-text-g" transform="rotate(0,272.65999999999997,319.4)"><g class="cursor-pointer" transform="translate(252,307)"><rect class="bg" x="1.5" y="1.5" width="39" height="22" style="stroke-width: 3px; stroke: rgb(0, 0, 0); stroke-opacity: 0; fill: rgb(226, 226, 226); fill-opacity: 1;"/><text class="annotation-text" text-anchor="middle" x="20.90625" y="17" style="font-family: 'Open Sans', verdana, arial, sans-serif; font-size: 12px; fill: rgb(42, 63, 95); fill-opacity: 1; white-space: pre;">S̲F̲ T̲S̲</text></g></g></g><g class="annotation" data-index="37" style="opacity: 1;"><g class="annotation-text-g" transform="rotate(0,272.65999999999997,117)"><g class="cursor-pointer" transform="translate(255,105)"><rect class="bg" x="1.5" y="1.5" width="32" height="22" style="stroke-width: 3px; stroke: rgb(125, 190, 60); stroke-opacity: 1; fill: rgb(125, 190, 60); fill-opacity: 1;"/><text class="annotation-text" text-anchor="middle" x="17.34375" y="17" style="font-family: 'Open Sans', verdana, arial, sans-serif; font-size: 12px; fill: rgb(42, 63, 95); fill-opacity: 1; white-space: pre;">M̅E̅D̅</text></g></g></g><g class="annotation" data-index="38" style="opacity: 1;"><g class="annotation-text-g" transform="rotate(0,281.40999999999997,227.4)"><g class="cursor-pointer" transform="translate(260,215)"><rect class="bg" x="1.5" y="1.5" width="39" height="22" style="stroke-width: 3px; stroke: rgb(238, 202, 59); stroke-opacity: 1; fill: rgb(255, 255, 255); fill-opacity: 1;"/><text class="annotation-text" text-anchor="middle" x="20.90625" y="17" style="font-family: 'Open Sans', verdana, arial, sans-serif; font-size: 12px; fill: rgb(42, 63, 95); fill-opacity: 1; white-space: pre;">S̅F̅ T̲S̲</text></g></g></g><g class="annotation" data-index="39" style="opacity: 1;"><g class="annotation-text-g" transform="rotate(0,281.40999999999997,209)"><g class="cursor-pointer" transform="translate(264,197)"><rect class="bg" x="1.5" y="1.5" width="32" height="22" style="stroke-width: 3px; stroke: rgb(125, 190, 60); stroke-opacity: 1; fill: rgb(255, 255, 255); fill-opacity: 1;"/><text class="annotation-text" text-anchor="middle" x="17.34375" y="17" style="font-family: 'Open Sans', verdana, arial, sans-serif; font-size: 12px; fill: rgb(42, 63, 95); fill-opacity: 1; white-space: pre;">M̲E̲D̲</text></g></g></g><g class="annotation" data-index="40" style="opacity: 1;"><g class="annotation-text-g" transform="rotate(0,290.16999999999996,135.4)"><g class="cursor-pointer" transform="translate(269,123)"><rect class="bg" x="1.5" y="1.5" width="39" height="22" style="stroke-width: 3px; stroke: rgb(238, 202, 59); stroke-opacity: 1; fill: rgb(238, 202, 59); fill-opacity: 1;"/><text class="annotation-text" text-anchor="middle" x="20.90625" y="17" style="font-family: 'Open Sans', verdana, arial, sans-serif; font-size: 12px; fill: rgb(42, 63, 95); fill-opacity: 1; white-space: pre;">S̅F̅ T̅S̅</text></g></g></g><g class="annotation" data-index="41" style="opacity: 1;"><g class="annotation-text-g" transform="rotate(0,290.16999999999996,301)"><g class="cursor-pointer" transform="translate(273,289)"><rect class="bg" x="1.5" y="1.5" width="32" height="22" style="stroke-width: 3px; stroke: rgb(0, 0, 0); stroke-opacity: 0; fill: rgb(226, 226, 226); fill-opacity: 1;"/><text class="annotation-text" text-anchor="middle" x="17.34375" y="17" style="font-family: 'Open Sans', verdana, arial, sans-serif; font-size: 12px; fill: rgb(42, 63, 95); fill-opacity: 1; white-space: pre;">M̲E̲D̲</text></g></g></g><g class="annotation" data-index="42" style="opacity: 1;"><g class="annotation-text-g" transform="rotate(0,298.93,135.4)"><g class="cursor-pointer" transform="translate(278,123)"><rect class="bg" x="1.5" y="1.5" width="39" height="22" style="stroke-width: 3px; stroke: rgb(238, 202, 59); stroke-opacity: 1; fill: rgb(238, 202, 59); fill-opacity: 1;"/><text class="annotation-text" text-anchor="middle" x="20.90625" y="17" style="font-family: 'Open Sans', verdana, arial, sans-serif; font-size: 12px; fill: rgb(42, 63, 95); fill-opacity: 1; white-space: pre;">S̅F̅ T̅S̅</text></g></g></g><g class="annotation" data-index="43" style="opacity: 1;"><g class="annotation-text-g" transform="rotate(0,298.93,209)"><g class="cursor-pointer" transform="translate(281,197)"><rect class="bg" x="1.5" y="1.5" width="32" height="22" style="stroke-width: 3px; stroke: rgb(125, 190, 60); stroke-opacity: 1; fill: rgb(255, 255, 255); fill-opacity: 1;"/><text class="annotation-text" text-anchor="middle" x="17.34375" y="17" style="font-family: 'Open Sans', verdana, arial, sans-serif; font-size: 12px; fill: rgb(42, 63, 95); fill-opacity: 1; white-space: pre;">M̲E̲D̲</text></g></g></g><g class="annotation" data-index="44" style="opacity: 1;"><g class="annotation-text-g" transform="rotate(0,307.69,135.4)"><g class="cursor-pointer" transform="translate(287,123)"><rect class="bg" x="1.5" y="1.5" width="39" height="22" style="stroke-width: 3px; stroke: rgb(238, 202, 59); stroke-opacity: 1; fill: rgb(238, 202, 59); fill-opacity: 1;"/><text class="annotation-text" text-anchor="middle" x="20.90625" y="17" style="font-family: 'Open Sans', verdana, arial, sans-serif; font-size: 12px; fill: rgb(42, 63, 95); fill-opacity: 1; white-space: pre;">S̅F̅ T̅S̅</text></g></g></g><g class="annotation" data-index="45" style="opacity: 1;"><g class="annotation-text-g" transform="rotate(0,307.69,301)"><g class="cursor-pointer" transform="translate(290,289)"><rect class="bg" x="1.5" y="1.5" width="32" height="22" style="stroke-width: 3px; stroke: rgb(0, 0, 0); stroke-opacity: 0; fill: rgb(226, 226, 226); fill-opacity: 1;"/><text class="annotation-text" text-anchor="middle" x="17.34375" y="17" style="font-family: 'Open Sans', verdana, arial, sans-serif; font-size: 12px; fill: rgb(42, 63, 95); fill-opacity: 1; white-space: pre;">M̲E̲D̲</text></g></g></g><g class="annotation" data-index="46" style="opacity: 1;"><g class="annotation-text-g" transform="rotate(0,316.45,135.4)"><g class="cursor-pointer" transform="translate(295,123)"><rect class="bg" x="1.5" y="1.5" width="39" height="22" style="stroke-width: 3px; stroke: rgb(238, 202, 59); stroke-opacity: 1; fill: rgb(238, 202, 59); fill-opacity: 1;"/><text class="annotation-text" text-anchor="middle" x="20.90625" y="17" style="font-family: 'Open Sans', verdana, arial, sans-serif; font-size: 12px; fill: rgb(42, 63, 95); fill-opacity: 1; white-space: pre;">S̅F̅ T̅S̅</text></g></g></g><g class="annotation" data-index="47" style="opacity: 1;"><g class="annotation-text-g" transform="rotate(0,316.45,209)"><g class="cursor-pointer" transform="translate(299,197)"><rect class="bg" x="1.5" y="1.5" width="32" height="22" style="stroke-width: 3px; stroke: rgb(125, 190, 60); stroke-opacity: 1; fill: rgb(255, 255, 255); fill-opacity: 1;"/><text class="annotation-text" text-anchor="middle" x="17.34375" y="17" style="font-family: 'Open Sans', verdana, arial, sans-serif; font-size: 12px; fill: rgb(42, 63, 95); fill-opacity: 1; white-space: pre;">M̲E̲D̲</text></g></g></g><g class="annotation" data-index="48" style="opacity: 1;"><g class="annotation-text-g" transform="rotate(0,325.21000000000004,319.4)"><g class="cursor-pointer" transform="translate(304,307)"><rect class="bg" x="1.5" y="1.5" width="39" height="22" style="stroke-width: 3px; stroke: rgb(0, 0, 0); stroke-opacity: 0; fill: rgb(226, 226, 226); fill-opacity: 1;"/><text class="annotation-text" text-anchor="middle" x="20.90625" y="17" style="font-family: 'Open Sans', verdana, arial, sans-serif; font-size: 12px; fill: rgb(42, 63, 95); fill-opacity: 1; white-space: pre;">S̲F̲ T̲S̲</text></g></g></g><g class="annotation" data-index="49" style="opacity: 1;"><g class="annotation-text-g" transform="rotate(0,325.21000000000004,209)"><g class="cursor-pointer" transform="translate(308,197)"><rect class="bg" x="1.5" y="1.5" width="32" height="22" style="stroke-width: 3px; stroke: rgb(125, 190, 60); stroke-opacity: 1; fill: rgb(255, 255, 255); fill-opacity: 1;"/><text class="annotation-text" text-anchor="middle" x="17.34375" y="17" style="font-family: 'Open Sans', verdana, arial, sans-serif; font-size: 12px; fill: rgb(42, 63, 95); fill-opacity: 1; white-space: pre;">M̲E̲D̲</text></g></g></g><g class="annotation" data-index="50" style="opacity: 1;"><g class="annotation-text-g" transform="rotate(0,333.97,227.4)"><g class="cursor-pointer" transform="translate(313,215)"><rect class="bg" x="1.5" y="1.5" width="39" height="22" style="stroke-width: 3px; stroke: rgb(238, 202, 59); stroke-opacity: 1; fill: rgb(255, 255, 255); fill-opacity: 1;"/><text class="annotation-text" text-anchor="middle" x="20.90625" y="17" style="font-family: 'Open Sans', verdana, arial, sans-serif; font-size: 12px; fill: rgb(42, 63, 95); fill-opacity: 1; white-space: pre;">S̅F̅ T̲S̲</text></g></g></g><g class="annotation" data-index="51" style="opacity: 1;"><g class="annotation-text-g" transform="rotate(0,333.97,209)"><g class="cursor-pointer" transform="translate(316,197)"><rect class="bg" x="1.5" y="1.5" width="32" height="22" style="stroke-width: 3px; stroke: rgb(125, 190, 60); stroke-opacity: 1; fill: rgb(255, 255, 255); fill-opacity: 1;"/><text class="annotation-text" text-anchor="middle" x="17.34375" y="17" style="font-family: 'Open Sans', verdana, arial, sans-serif; font-size: 12px; fill: rgb(42, 63, 95); fill-opacity: 1; white-space: pre;">M̲E̲D̲</text></g></g></g><g class="annotation" data-index="52" style="opacity: 1;"><g class="annotation-text-g" transform="rotate(0,342.72,319.4)"><g class="cursor-pointer" transform="translate(322,307)"><rect class="bg" x="1.5" y="1.5" width="39" height="22" style="stroke-width: 3px; stroke: rgb(0, 0, 0); stroke-opacity: 0; fill: rgb(226, 226, 226); fill-opacity: 1;"/><text class="annotation-text" text-anchor="middle" x="20.90625" y="17" style="font-family: 'Open Sans', verdana, arial, sans-serif; font-size: 12px; fill: rgb(42, 63, 95); fill-opacity: 1; white-space: pre;">S̲F̲ T̲S̲</text></g></g></g><g class="annotation" data-index="53" style="opacity: 1;"><g class="annotation-text-g" transform="rotate(0,342.72,209)"><g class="cursor-pointer" transform="translate(325,197)"><rect class="bg" x="1.5" y="1.5" width="32" height="22" style="stroke-width: 3px; stroke: rgb(125, 190, 60); stroke-opacity: 1; fill: rgb(255, 255, 255); fill-opacity: 1;"/><text class="annotation-text" text-anchor="middle" x="17.34375" y="17" style="font-family: 'Open Sans', verdana, arial, sans-serif; font-size: 12px; fill: rgb(42, 63, 95); fill-opacity: 1; white-space: pre;">M̲E̲D̲</text></g></g></g><g class="annotation" data-index="54" style="opacity: 1;"><g class="annotation-text-g" transform="rotate(0,351.48,319.4)"><g class="cursor-pointer" transform="translate(330,307)"><rect class="bg" x="1.5" y="1.5" width="39" height="22" style="stroke-width: 3px; stroke: rgb(0, 0, 0); stroke-opacity: 0; fill: rgb(226, 226, 226); fill-opacity: 1;"/><text class="annotation-text" text-anchor="middle" x="20.90625" y="17" style="font-family: 'Open Sans', verdana, arial, sans-serif; font-size: 12px; fill: rgb(42, 63, 95); fill-opacity: 1; white-space: pre;">S̲F̲ T̲S̲</text></g></g></g><g class="annotation" data-index="55" style="opacity: 1;"><g class="annotation-text-g" transform="rotate(0,351.48,117)"><g class="cursor-pointer" transform="translate(334,105)"><rect class="bg" x="1.5" y="1.5" width="32" height="22" style="stroke-width: 3px; stroke: rgb(125, 190, 60); stroke-opacity: 1; fill: rgb(125, 190, 60); fill-opacity: 1;"/><text class="annotation-text" text-anchor="middle" x="17.34375" y="17" style="font-family: 'Open Sans', verdana, arial, sans-serif; font-size: 12px; fill: rgb(42, 63, 95); fill-opacity: 1; white-space: pre;">M̅E̅D̅</text></g></g></g><g class="annotation" data-index="56" style="opacity: 1;"><g class="annotation-text-g" transform="rotate(0,360.24,227.4)"><g class="cursor-pointer" transform="translate(339,215)"><rect class="bg" x="1.5" y="1.5" width="39" height="22" style="stroke-width: 3px; stroke: rgb(238, 202, 59); stroke-opacity: 1; fill: rgb(255, 255, 255); fill-opacity: 1;"/><text class="annotation-text" text-anchor="middle" x="20.90625" y="17" style="font-family: 'Open Sans', verdana, arial, sans-serif; font-size: 12px; fill: rgb(42, 63, 95); fill-opacity: 1; white-space: pre;">S̅F̅ T̲S̲</text></g></g></g><g class="annotation" data-index="57" style="opacity: 1;"><g class="annotation-text-g" transform="rotate(0,360.24,117)"><g class="cursor-pointer" transform="translate(343,105)"><rect class="bg" x="1.5" y="1.5" width="32" height="22" style="stroke-width: 3px; stroke: rgb(125, 190, 60); stroke-opacity: 1; fill: rgb(125, 190, 60); fill-opacity: 1;"/><text class="annotation-text" text-anchor="middle" x="17.34375" y="17" style="font-family: 'Open Sans', verdana, arial, sans-serif; font-size: 12px; fill: rgb(42, 63, 95); fill-opacity: 1; white-space: pre;">M̅E̅D̅</text></g></g></g><g class="annotation" data-index="58" style="opacity: 1;"><g class="annotation-text-g" transform="rotate(0,369,135.4)"><g class="cursor-pointer" transform="translate(348,123)"><rect class="bg" x="1.5" y="1.5" width="39" height="22" style="stroke-width: 3px; stroke: rgb(238, 202, 59); stroke-opacity: 1; fill: rgb(238, 202, 59); fill-opacity: 1;"/><text class="annotation-text" text-anchor="middle" x="20.90625" y="17" style="font-family: 'Open Sans', verdana, arial, sans-serif; font-size: 12px; fill: rgb(42, 63, 95); fill-opacity: 1; white-space: pre;">S̅F̅ T̅S̅</text></g></g></g><g class="annotation" data-index="59" style="opacity: 1;"><g class="annotation-text-g" transform="rotate(0,369,117)"><g class="cursor-pointer" transform="translate(352,105)"><rect class="bg" x="1.5" y="1.5" width="32" height="22" style="stroke-width: 3px; stroke: rgb(125, 190, 60); stroke-opacity: 1; fill: rgb(125, 190, 60); fill-opacity: 1;"/><text class="annotation-text" text-anchor="middle" x="17.34375" y="17" style="font-family: 'Open Sans', verdana, arial, sans-serif; font-size: 12px; fill: rgb(42, 63, 95); fill-opacity: 1; white-space: pre;">M̅E̅D̅</text></g></g></g></g></svg>