<svg class="main-svg" xmlns="http://www.w3.org/2000/svg" xmlns:xlink="http://www.w3.org/1999/xlink" width="800" height="800" style="" viewBox="0 0 400 400"><rect x="0" y="0" width="400" height="400" style="fill: rgb(255, 255, 255); fill-opacity: 1;"/><defs id="defs-9b6b13"><g class="clips"><clipPath id="clip9b6b13xyplot" class="plotclip"><rect width="292" height="278"/></clipPath><clipPath class="axesclip" id="clip9b6b13x"><rect x="94" y="0" width="292" height="400"/></clipPath><clipPath class="axesclip" id="clip9b6b13y"><rect x="0" y="70" width="400" height="278"/></clipPath><clipPath class="axesclip" id="clip9b6b13xy"><rect x="94" y="70" width="292" height="278"/></clipPath></g><g class="gradients"/><g class="patterns"/></defs><g class="bglayer"><rect class="bg" x="94" y="70" width="292" height="278" style="fill: rgb(229, 236, 246); fill-opacity: 1; stroke-width: 0;"/></g><g class="layer-below"><g class="imagelayer"/><g class="shapelayer"/></g><g class="cartesianlayer"><g class="subplot xy"><g class="layer-subplot"><g class="shapelayer"/><g class="imagelayer"/></g><g class="minor-gridlayer"><g class="x"/><g class="y"><path class="ygrid crisp" transform="translate(0,255)" d="M94,0h292" style="stroke: rgb(153, 158, 165); stroke-opacity: 1; stroke-width: 10px;"/><path class="ygrid crisp" transform="translate(0,181.4)" d="M94,0h292" style="stroke: rgb(153, 158, 165); stroke-opacity: 1; stroke-width: 10px;"/></g></g><g class="gridlayer"><g class="x"><path class="xgrid crisp" transform="translate(115,0)" d="M0,70v278" style="stroke: rgb(255, 255, 255); stroke-opacity: 1; stroke-width: 1px;"/><path class="xgrid crisp" transform="translate(204.29000000000002,0)" d="M0,70v278" style="stroke: rgb(255, 255, 255); stroke-opacity: 1; stroke-width: 1px;"/><path class="xgrid crisp" transform="translate(293.57,0)" d="M0,70v278" style="stroke: rgb(255, 255, 255); stroke-opacity: 1; stroke-width: 1px;"/><path class="xgrid crisp" transform="translate(382.86,0)" d="M0,70v278" style="stroke: rgb(255, 255, 255); stroke-opacity: 1; stroke-width: 1px;"/></g><g class="y"/></g><g class="zerolinelayer"/><path class="xlines-below"/><path class="ylines-below"/><g class="overlines-below"/><g class="xaxislayer-below"/><g class="yaxislayer-below"/><g class="overaxes-below"/><g class="plot" transform="translate(94,70)" clip-path="url(#clip9b6b13xyplot)"><g class="scatterlayer mlayer"><g class="trace scatter trace9e39a5" style="stroke-miterlimit: 2; opacity: 1;"><g class="fills"/><g class="errorbars"/><g class="lines"><path class="js-line" d="M21,249.4L56.71,65.4L74.57,65.4L110.29,65.4L128.14,249.4L146,157.4L163.86,249.4L181.71,249.4L199.57,157.4L217.43,65.4L235.29,65.4L271,65.4" style="vector-effect: none; fill: none; stroke: rgb(238, 202, 59); stroke-opacity: 1; stroke-width: 0.5px; opacity: 1;"/></g><g class="points"><path class="point" transform="translate(21,249.4)" d="M3,0A3,3 0 1,1 0,-3A3,3 0 0,1 3,0Z" style="opacity: 1; stroke-width: 0px; fill: rgb(238, 202, 59); fill-opacity: 1;"/><path class="point" transform="translate(38.86,157.4)" d="M3,0A3,3 0 1,1 0,-3A3,3 0 0,1 3,0Z" style="opacity: 1; stroke-width: 0px; fill: rgb(238, 202, 59); fill-opacity: 1;"/><path class="point" transform="translate(56.71,65.4)" d="M3,0A3,3 0 1,1 0,-3A3,3 0 0,1 3,0Z" style="opacity: 1; stroke-width: 0px; fill: rgb(238, 202, 59); fill-opacity: 1;"/><path class="point" transform="translate(74.57,65.4)" d="M3,0A3,3 0 1,1 0,-3A3,3 0 0,1 3,0Z" style="opacity: 1; stroke-width: 0px; fill: rgb(238, 202, 59); fill-opacity: 1;"/><path class="point" transform="translate(92.43,65.4)" d="M3,0A3,3 0 1,1 0,-3A3,3 0 0,1 3,0Z" style="opacity: 1; stroke-width: 0px; fill: rgb(238, 202, 59); fill-opacity: 1;"/><path class="point" transform="translate(110.29,65.4)" d="M3,0A3,3 0 1,1 0,-3A3,3 0 0,1 3,0Z" style="opacity: 1; stroke-width: 0px; fill: rgb(238, 202, 59); fill-opacity: 1;"/><path class="point" transform="translate(128.14,249.4)" d="M3,0A3,3 0 1,1 0,-3A3,3 0 0,1 3,0Z" style="opacity: 1; stroke-width: 0px; fill: rgb(238, 202, 59); fill-opacity: 1;"/><path class="point" transform="translate(146,157.4)" d="M3,0A3,3 0 1,1 0,-3A3,3 0 0,1 3,0Z" style="opacity: 1; stroke-width: 0px; fill: rgb(238, 202, 59); fill-opacity: 1;"/><path class="point" transform="translate(163.86,249.4)" d="M3,0A3,3 0 1,1 0,-3A3,3 0 0,1 3,0Z" style="opacity: 1; stroke-width: 0px; fill: rgb(238, 202, 59); fill-opacity: 1;"/><path class="point" transform="translate(181.71,249.4)" d="M3,0A3,3 0 1,1 0,-3A3,3 0 0,1 3,0Z" style="opacity: 1; stroke-width: 0px; fill: rgb(238, 202, 59); fill-opacity: 1;"/><path class="point" transform="translate(199.57,157.4)" d="M3,0A3,3 0 1,1 0,-3A3,3 0 0,1 3,0Z" style="opacity: 1; stroke-width: 0px; fill: rgb(238, 202, 59); fill-opacity: 1;"/><path class="point" transform="translate(217.43,65.4)" d="M3,0A3,3 0 1,1 0,-3A3,3 0 0,1 3,0Z" style="opacity: 1; stroke-width: 0px; fill: rgb(238, 202, 59); fill-opacity: 1;"/><path class="point" transform="translate(235.29,65.4)" d="M3,0A3,3 0 1,1 0,-3A3,3 0 0,1 3,0Z" style="opacity: 1; stroke-width: 0px; fill: rgb(238, 202, 59); fill-opacity: 1;"/><path class="point" transform="translate(253.14,65.4)" d="M3,0A3,3 0 1,1 0,-3A3,3 0 0,1 3,0Z" style="opacity: 1; stroke-width: 0px; fill: rgb(238, 202, 59); fill-opacity: 1;"/><path class="point" transform="translate(271,65.4)" d="M3,0A3,3 0 1,1 0,-3A3,3 0 0,1 3,0Z" style="opacity: 1; stroke-width: 0px; fill: rgb(238, 202, 59); fill-opacity: 1;"/></g><g class="text"/></g><g class="trace scatter trace71fe0f" style="stroke-miterlimit: 2; opacity: 1;"><g class="fills"/><g class="errorbars"/><g class="lines"><path class="js-line" d="M21,139L38.86,139L56.71,231L74.57,139L92.43,139L199.57,139L217.43,47L253.14,47L271,139" style="vector-effect: none; fill: none; stroke: rgb(163, 73, 164); stroke-opacity: 1; stroke-width: 0.5px; opacity: 1;"/></g><g class="points"/><g class="text"/></g></g></g><g class="overplot"/><path class="xlines-above crisp" d="M0,0" style="fill: none;"/><path class="ylines-above crisp" d="M93.5,70V348" style="fill: none; stroke-width: 1px; stroke: rgb(255, 255, 255); stroke-opacity: 1;"/><g class="overlines-above"/><g class="xaxislayer-above"><g class="xtick"><text text-anchor="middle" x="0" y="361" transform="translate(115,0)" style="font-family: 'Open Sans', verdana, arial, sans-serif; font-size: 12px; fill: rgb(42, 63, 95); fill-opacity: 1; white-space: pre; opacity: 1;">0</text></g><g class="xtick"><text text-anchor="middle" x="0" y="361" style="font-family: 'Open Sans', verdana, arial, sans-serif; font-size: 12px; fill: rgb(42, 63, 95); fill-opacity: 1; white-space: pre; opacity: 1;" transform="translate(204.29000000000002,0)">5</text></g><g class="xtick"><text text-anchor="middle" x="0" y="361" style="font-family: 'Open Sans', verdana, arial, sans-serif; font-size: 12px; fill: rgb(42, 63, 95); fill-opacity: 1; white-space: pre; opacity: 1;" transform="translate(293.57,0)">10</text></g><g class="xtick"><text text-anchor="middle" x="0" y="361" style="font-family: 'Open Sans', verdana, arial, sans-serif; font-size: 12px; fill: rgb(42, 63, 95); fill-opacity: 1; white-space: pre; opacity: 1;" transform="translate(382.86,0)">15</text></g></g><g class="yaxislayer-above"><g class="ytick"><text text-anchor="end" x="90.6" y="4.199999999999999" transform="translate(0,310.2)" style="font-family: 'Open Sans', verdana, arial, sans-serif; font-size: 12px; fill: rgb(42, 63, 95); fill-opacity: 1; white-space: pre; opacity: 1;">Idle</text></g><g class="ytick"><text text-anchor="end" x="90.6" y="4.199999999999999" style="font-family: 'Open Sans', verdana, arial, sans-serif; font-size: 12px; fill: rgb(42, 63, 95); fill-opacity: 1; white-space: pre; opacity: 1;" transform="translate(0,218.2)">Transition</text></g><g class="ytick"><text text-anchor="end" x="90.6" y="4.199999999999999" style="font-family: 'Open Sans', verdana, arial, sans-serif; font-size: 12px; fill: rgb(42, 63, 95); fill-opacity: 1; white-space: pre; opacity: 1;" transform="translate(0,126.2)">Active</text></g></g><g class="overaxes-above"/></g></g><g class="polarlayer"/><g class="smithlayer"/><g class="ternarylayer"/><g class="geolayer"/><g class="funnelarealayer"/><g class="pielayer"/><g class="iciclelayer"/><g class="treemaplayer"/><g class="sunburstlayer"/><g class="glimages"/><defs id="topdefs-9b6b13"><g class="clips"/></defs><g class="layer-above"><g class="imagelayer"/><g class="shapelayer"><g class="shape-group" data-index="0" clip-path="url(#clip9b6b13xy)"><path data-index="0" fill-rule="evenodd" d="M356.07,347H373.93V71H356.07Z" style="opacity: 1; stroke: rgb(42, 63, 95); stroke-opacity: 1; fill: rgb(182, 182, 182); fill-opacity: 0.1; stroke-width: 2px;"/></g></g></g><g class="infolayer"><g class="g-gtitle"><text class="gtitle" x="20" y="35" text-anchor="start" dy="0em" style="font-family: 'Open Sans', verdana, arial, sans-serif; font-size: 17px; fill: rgb(42, 63, 95); opacity: 1; font-weight: normal; white-space: pre;"><tspan class="line" dy="0em" x="20" y="35"><tspan style="font-weight:bold">State Machine evolution</tspan> - Iteration 14</tspan><tspan class="line" dy="1.3em" x="20" y="35">SF active-TS active-MED shutting down</tspan><tspan class="line" dy="2.6em" x="20" y="35"></tspan></text></g><g class="g-xtitle"><text class="xtitle" x="240" y="389.3" text-anchor="middle" style="font-family: 'Open Sans', verdana, arial, sans-serif; font-size: 14px; fill: rgb(42, 63, 95); opacity: 1; font-weight: normal; white-space: pre;">Time</text></g><g class="g-ytitle" transform="translate(4.9248046875,0)"><text class="ytitle" transform="rotate(-90,10.075000000000003,209)" x="10.075000000000003" y="209" text-anchor="middle" style="font-family: 'Open Sans', verdana, arial, sans-serif; font-size: 14px; fill: rgb(42, 63, 95); opacity: 1; font-weight: normal; white-space: pre;">State</text></g><g class="annotation" data-index="0" style="opacity: 1;"><g class="annotation-text-g" transform="rotate(0,115,319.4)"><g class="cursor-pointer" transform="translate(94,307)"><rect class="bg" x="1.5" y="1.5" width="39" height="22" style="stroke-width: 3px; stroke: rgb(0, 0, 0); stroke-opacity: 0; fill: rgb(226, 226, 226); fill-opacity: 1;"/><text class="annotation-text" text-anchor="middle" x="20.90625" y="17" style="font-family: 'Open Sans', verdana, arial, sans-serif; font-size: 12px; fill: rgb(42, 63, 95); fill-opacity: 1; white-space: pre;">S̲F̲ T̲S̲</text></g></g></g><g class="annotation" data-index="1" style="opacity: 1;"><g class="annotation-text-g" transform="rotate(0,115,209)"><g class="cursor-pointer" transform="translate(98,197)"><rect class="bg" x="1.5" y="1.5" width="32" height="22" style="stroke-width: 3px; stroke: rgb(125, 190, 60); stroke-opacity: 1; fill: rgb(255, 255, 255); fill-opacity: 1;"/><text class="annotation-text" text-anchor="middle" x="17.34375" y="17" style="font-family: 'Open Sans', verdana, arial, sans-serif; font-size: 12px; fill: rgb(42, 63, 95); fill-opacity: 1; white-space: pre;">M̲E̲D̲</text></g></g></g><g class="annotation" data-index="2" style="opacity: 1;"><g class="annotation-text-g" transform="rotate(0,132.86,227.4)"><g class="cursor-pointer" transform="translate(112,215)"><rect class="bg" x="1.5" y="1.5" width="39" height="22" style="stroke-width: 3px; stroke: rgb(238, 202, 59); stroke-opacity: 1; fill: rgb(255, 255, 255); fill-opacity: 1;"/><text class="annotation-text" text-anchor="middle" x="20.90625" y="17" style="font-family: 'Open Sans', verdana, arial, sans-serif; font-size: 12px; fill: rgb(42, 63, 95); fill-opacity: 1; white-space: pre;">S̅F̅ T̲S̲</text></g></g></g><g class="annotation" data-index="3" style="opacity: 1;"><g class="annotation-text-g" transform="rotate(0,132.86,209)"><g class="cursor-pointer" transform="translate(115,197)"><rect class="bg" x="1.5" y="1.5" width="32" height="22" style="stroke-width: 3px; stroke: rgb(125, 190, 60); stroke-opacity: 1; fill: rgb(255, 255, 255); fill-opacity: 1;"/><text class="annotation-text" text-anchor="middle" x="17.34375" y="17" style="font-family: 'Open Sans', verdana, arial, sans-serif; font-size: 12px; fill: rgb(42, 63, 95); fill-opacity: 1; white-space: pre;">M̲E̲D̲</text></g></g></g><g class="annotation" data-index="4" style="opacity: 1;"><g class="annotation-text-g" transform="rotate(0,150.71,135.4)"><g class="cursor-pointer" transform="translate(130,123)"><rect class="bg" x="1.5" y="1.5" width="39" height="22" style="stroke-width: 3px; stroke: rgb(238, 202, 59); stroke-opacity: 1; fill: rgb(238, 202, 59); fill-opacity: 1;"/><text class="annotation-text" text-anchor="middle" x="20.90625" y="17" style="font-family: 'Open Sans', verdana, arial, sans-serif; font-size: 12px; fill: rgb(42, 63, 95); fill-opacity: 1; white-space: pre;">S̅F̅ T̅S̅</text></g></g></g><g class="annotation" data-index="5" style="opacity: 1;"><g class="annotation-text-g" transform="rotate(0,150.71,301)"><g class="cursor-pointer" transform="translate(133,289)"><rect class="bg" x="1.5" y="1.5" width="32" height="22" style="stroke-width: 3px; stroke: rgb(0, 0, 0); stroke-opacity: 0; fill: rgb(226, 226, 226); fill-opacity: 1;"/><text class="annotation-text" text-anchor="middle" x="17.34375" y="17" style="font-family: 'Open Sans', verdana, arial, sans-serif; font-size: 12px; fill: rgb(42, 63, 95); fill-opacity: 1; white-space: pre;">M̲E̲D̲</text></g></g></g><g class="annotation" data-index="6" style="opacity: 1;"><g class="annotation-text-g" transform="rotate(0,168.57,135.4)"><g class="cursor-pointer" transform="translate(148,123)"><rect class="bg" x="1.5" y="1.5" width="39" height="22" style="stroke-width: 3px; stroke: rgb(238, 202, 59); stroke-opacity: 1; fill: rgb(238, 202, 59); fill-opacity: 1;"/><text class="annotation-text" text-anchor="middle" x="20.90625" y="17" style="font-family: 'Open Sans', verdana, arial, sans-serif; font-size: 12px; fill: rgb(42, 63, 95); fill-opacity: 1; white-space: pre;">S̅F̅ T̅S̅</text></g></g></g><g class="annotation" data-index="7" style="opacity: 1;"><g class="annotation-text-g" transform="rotate(0,168.57,209)"><g class="cursor-pointer" transform="translate(151,197)"><rect class="bg" x="1.5" y="1.5" width="32" height="22" style="stroke-width: 3px; stroke: rgb(125, 190, 60); stroke-opacity: 1; fill: rgb(255, 255, 255); fill-opacity: 1;"/><text class="annotation-text" text-anchor="middle" x="17.34375" y="17" style="font-family: 'Open Sans', verdana, arial, sans-serif; font-size: 12px; fill: rgb(42, 63, 95); fill-opacity: 1; white-space: pre;">M̲E̲D̲</text></g></g></g><g class="annotation" data-index="8" style="opacity: 1;"><g class="annotation-text-g" transform="rotate(0,186.43,135.4)"><g class="cursor-pointer" transform="translate(165,123)"><rect class="bg" x="1.5" y="1.5" width="39" height="22" style="stroke-width: 3px; stroke: rgb(238, 202, 59); stroke-opacity: 1; fill: rgb(238, 202, 59); fill-opacity: 1;"/><text class="annotation-text" text-anchor="middle" x="20.90625" y="17" style="font-family: 'Open Sans', verdana, arial, sans-serif; font-size: 12px; fill: rgb(42, 63, 95); fill-opacity: 1; white-space: pre;">S̅F̅ T̅S̅</text></g></g></g><g class="annotation" data-index="9" style="opacity: 1;"><g class="annotation-text-g" transform="rotate(0,186.43,209)"><g class="cursor-pointer" transform="translate(169,197)"><rect class="bg" x="1.5" y="1.5" width="32" height="22" style="stroke-width: 3px; stroke: rgb(125, 190, 60); stroke-opacity: 1; fill: rgb(255, 255, 255); fill-opacity: 1;"/><text class="annotation-text" text-anchor="middle" x="17.34375" y="17" style="font-family: 'Open Sans', verdana, arial, sans-serif; font-size: 12px; fill: rgb(42, 63, 95); fill-opacity: 1; white-space: pre;">M̲E̲D̲</text></g></g></g><g class="annotation" data-index="10" style="opacity: 1;"><g class="annotation-text-g" transform="rotate(0,204.29000000000002,135.4)"><g class="cursor-pointer" transform="translate(183,123)"><rect class="bg" x="1.5" y="1.5" width="39" height="22" style="stroke-width: 3px; stroke: rgb(238, 202, 59); stroke-opacity: 1; fill: rgb(238, 202, 59); fill-opacity: 1;"/><text class="annotation-text" text-anchor="middle" x="20.90625" y="17" style="font-family: 'Open Sans', verdana, arial, sans-serif; font-size: 12px; fill: rgb(42, 63, 95); fill-opacity: 1; white-space: pre;">S̅F̅ T̅S̅</text></g></g></g><g class="annotation" data-index="11" style="opacity: 1;"><g class="annotation-text-g" transform="rotate(0,204.29000000000002,209)"><g class="cursor-pointer" transform="translate(187,197)"><rect class="bg" x="1.5" y="1.5" width="32" height="22" style="stroke-width: 3px; stroke: rgb(125, 190, 60); stroke-opacity: 1; fill: rgb(255, 255, 255); fill-opacity: 1;"/><text class="annotation-text" text-anchor="middle" x="17.34375" y="17" style="font-family: 'Open Sans', verdana, arial, sans-serif; font-size: 12px; fill: rgb(42, 63, 95); fill-opacity: 1; white-space: pre;">M̲E̲D̲</text></g></g></g><g class="annotation" data-index="12" style="opacity: 1;"><g class="annotation-text-g" transform="rotate(0,222.14,319.4)"><g class="cursor-pointer" transform="translate(201,307)"><rect class="bg" x="1.5" y="1.5" width="39" height="22" style="stroke-width: 3px; stroke: rgb(0, 0, 0); stroke-opacity: 0; fill: rgb(226, 226, 226); fill-opacity: 1;"/><text class="annotation-text" text-anchor="middle" x="20.90625" y="17" style="font-family: 'Open Sans', verdana, arial, sans-serif; font-size: 12px; fill: rgb(42, 63, 95); fill-opacity: 1; white-space: pre;">S̲F̲ T̲S̲</text></g></g></g><g class="annotation" data-index="13" style="opacity: 1;"><g class="annotation-text-g" transform="rotate(0,222.14,209)"><g class="cursor-pointer" transform="translate(205,197)"><rect class="bg" x="1.5" y="1.5" width="32" height="22" style="stroke-width: 3px; stroke: rgb(125, 190, 60); stroke-opacity: 1; fill: rgb(255, 255, 255); fill-opacity: 1;"/><text class="annotation-text" text-anchor="middle" x="17.34375" y="17" style="font-family: 'Open Sans', verdana, arial, sans-serif; font-size: 12px; fill: rgb(42, 63, 95); fill-opacity: 1; white-space: pre;">M̲E̲D̲</text></g></g></g><g class="annotation" data-index="14" style="opacity: 1;"><g class="annotation-text-g" transform="rotate(0,240,227.4)"><g class="cursor-pointer" transform="translate(219,215)"><rect class="bg" x="1.5" y="1.5" width="39" height="22" style="stroke-width: 3px; stroke: rgb(238, 202, 59); stroke-opacity: 1; fill: rgb(255, 255, 255); fill-opacity: 1;"/><text class="annotation-text" text-anchor="middle" x="20.90625" y="17" style="font-family: 'Open Sans', verdana, arial, sans-serif; font-size: 12px; fill: rgb(42, 63, 95); fill-opacity: 1; white-space: pre;">S̅F̅ T̲S̲</text></g></g></g><g class="annotation" data-index="15" style="opacity: 1;"><g class="annotation-text-g" transform="rotate(0,240,209)"><g class="cursor-pointer" transform="translate(223,197)"><rect class="bg" x="1.5" y="1.5" width="32" height="22" style="stroke-width: 3px; stroke: rgb(125, 190, 60); stroke-opacity: 1; fill: rgb(255, 255, 255); fill-opacity: 1;"/><text class="annotation-text" text-anchor="middle" x="17.34375" y="17" style="font-family: 'Open Sans', verdana, arial, sans-serif; font-size: 12px; fill: rgb(42, 63, 95); fill-opacity: 1; white-space: pre;">M̲E̲D̲</text></g></g></g><g class="annotation" data-index="16" style="opacity: 1;"><g class="annotation-text-g" transform="rotate(0,257.86,319.4)"><g class="cursor-pointer" transform="translate(237,307)"><rect class="bg" x="1.5" y="1.5" width="39" height="22" style="stroke-width: 3px; stroke: rgb(0, 0, 0); stroke-opacity: 0; fill: rgb(226, 226, 226); fill-opacity: 1;"/><text class="annotation-text" text-anchor="middle" x="20.90625" y="17" style="font-family: 'Open Sans', verdana, arial, sans-serif; font-size: 12px; fill: rgb(42, 63, 95); fill-opacity: 1; white-space: pre;">S̲F̲ T̲S̲</text></g></g></g><g class="annotation" data-index="17" style="opacity: 1;"><g class="annotation-text-g" transform="rotate(0,257.86,209)"><g class="cursor-pointer" transform="translate(240,197)"><rect class="bg" x="1.5" y="1.5" width="32" height="22" style="stroke-width: 3px; stroke: rgb(125, 190, 60); stroke-opacity: 1; fill: rgb(255, 255, 255); fill-opacity: 1;"/><text class="annotation-text" text-anchor="middle" x="17.34375" y="17" style="font-family: 'Open Sans', verdana, arial, sans-serif; font-size: 12px; fill: rgb(42, 63, 95); fill-opacity: 1; white-space: pre;">M̲E̲D̲</text></g></g></g><g class="annotation" data-index="18" style="opacity: 1;"><g class="annotation-text-g" transform="rotate(0,275.71000000000004,319.4)"><g class="cursor-pointer" transform="translate(255,307)"><rect class="bg" x="1.5" y="1.5" width="39" height="22" style="stroke-width: 3px; stroke: rgb(0, 0, 0); stroke-opacity: 0; fill: rgb(226, 226, 226); fill-opacity: 1;"/><text class="annotation-text" text-anchor="middle" x="20.90625" y="17" style="font-family: 'Open Sans', verdana, arial, sans-serif; font-size: 12px; fill: rgb(42, 63, 95); fill-opacity: 1; white-space: pre;">S̲F̲ T̲S̲</text></g></g></g><g class="annotation" data-index="19" style="opacity: 1;"><g class="annotation-text-g" transform="rotate(0,275.71000000000004,209)"><g class="cursor-pointer" transform="translate(258,197)"><rect class="bg" x="1.5" y="1.5" width="32" height="22" style="stroke-width: 3px; stroke: rgb(125, 190, 60); stroke-opacity: 1; fill: rgb(255, 255, 255); fill-opacity: 1;"/><text class="annotation-text" text-anchor="middle" x="17.34375" y="17" style="font-family: 'Open Sans', verdana, arial, sans-serif; font-size: 12px; fill: rgb(42, 63, 95); fill-opacity: 1; white-space: pre;">M̲E̲D̲</text></g></g></g><g class="annotation" data-index="20" style="opacity: 1;"><g class="annotation-text-g" transform="rotate(0,293.57,227.4)"><g class="cursor-pointer" transform="translate(273,215)"><rect class="bg" x="1.5" y="1.5" width="39" height="22" style="stroke-width: 3px; stroke: rgb(238, 202, 59); stroke-opacity: 1; fill: rgb(255, 255, 255); fill-opacity: 1;"/><text class="annotation-text" text-anchor="middle" x="20.90625" y="17" style="font-family: 'Open Sans', verdana, arial, sans-serif; font-size: 12px; fill: rgb(42, 63, 95); fill-opacity: 1; white-space: pre;">S̅F̅ T̲S̲</text></g></g></g><g class="annotation" data-index="21" style="opacity: 1;"><g class="annotation-text-g" transform="rotate(0,293.57,209)"><g class="cursor-pointer" transform="translate(276,197)"><rect class="bg" x="1.5" y="1.5" width="32" height="22" style="stroke-width: 3px; stroke: rgb(125, 190, 60); stroke-opacity: 1; fill: rgb(255, 255, 255); fill-opacity: 1;"/><text class="annotation-text" text-anchor="middle" x="17.34375" y="17" style="font-family: 'Open Sans', verdana, arial, sans-serif; font-size: 12px; fill: rgb(42, 63, 95); fill-opacity: 1; white-space: pre;">M̲E̲D̲</text></g></g></g><g class="annotation" data-index="22" style="opacity: 1;"><g class="annotation-text-g" transform="rotate(0,311.43,135.4)"><g class="cursor-pointer" transform="translate(290,123)"><rect class="bg" x="1.5" y="1.5" width="39" height="22" style="stroke-width: 3px; stroke: rgb(238, 202, 59); stroke-opacity: 1; fill: rgb(238, 202, 59); fill-opacity: 1;"/><text class="annotation-text" text-anchor="middle" x="20.90625" y="17" style="font-family: 'Open Sans', verdana, arial, sans-serif; font-size: 12px; fill: rgb(42, 63, 95); fill-opacity: 1; white-space: pre;">S̅F̅ T̅S̅</text></g></g></g><g class="annotation" data-index="23" style="opacity: 1;"><g class="annotation-text-g" transform="rotate(0,311.43,117)"><g class="cursor-pointer" transform="translate(294,105)"><rect class="bg" x="1.5" y="1.5" width="32" height="22" style="stroke-width: 3px; stroke: rgb(125, 190, 60); stroke-opacity: 1; fill: rgb(125, 190, 60); fill-opacity: 1;"/><text class="annotation-text" text-anchor="middle" x="17.34375" y="17" style="font-family: 'Open Sans', verdana, arial, sans-serif; font-size: 12px; fill: rgb(42, 63, 95); fill-opacity: 1; white-space: pre;">M̅E̅D̅</text></g></g></g><g class="annotation" data-index="24" style="opacity: 1;"><g class="annotation-text-g" transform="rotate(0,329.28999999999996,135.4)"><g class="cursor-pointer" transform="translate(308,123)"><rect class="bg" x="1.5" y="1.5" width="39" height="22" style="stroke-width: 3px; stroke: rgb(238, 202, 59); stroke-opacity: 1; fill: rgb(238, 202, 59); fill-opacity: 1;"/><text class="annotation-text" text-anchor="middle" x="20.90625" y="17" style="font-family: 'Open Sans', verdana, arial, sans-serif; font-size: 12px; fill: rgb(42, 63, 95); fill-opacity: 1; white-space: pre;">S̅F̅ T̅S̅</text></g></g></g><g class="annotation" data-index="25" style="opacity: 1;"><g class="annotation-text-g" transform="rotate(0,329.28999999999996,117)"><g class="cursor-pointer" transform="translate(312,105)"><rect class="bg" x="1.5" y="1.5" width="32" height="22" style="stroke-width: 3px; stroke: rgb(125, 190, 60); stroke-opacity: 1; fill: rgb(125, 190, 60); fill-opacity: 1;"/><text class="annotation-text" text-anchor="middle" x="17.34375" y="17" style="font-family: 'Open Sans', verdana, arial, sans-serif; font-size: 12px; fill: rgb(42, 63, 95); fill-opacity: 1; white-space: pre;">M̅E̅D̅</text></g></g></g><g class="annotation" data-index="26" style="opacity: 1;"><g class="annotation-text-g" transform="rotate(0,347.14,135.4)"><g class="cursor-pointer" transform="translate(326,123)"><rect class="bg" x="1.5" y="1.5" width="39" height="22" style="stroke-width: 3px; stroke: rgb(238, 202, 59); stroke-opacity: 1; fill: rgb(238, 202, 59); fill-opacity: 1;"/><text class="annotation-text" text-anchor="middle" x="20.90625" y="17" style="font-family: 'Open Sans', verdana, arial, sans-serif; font-size: 12px; fill: rgb(42, 63, 95); fill-opacity: 1; white-space: pre;">S̅F̅ T̅S̅</text></g></g></g><g class="annotation" data-index="27" style="opacity: 1;"><g class="annotation-text-g" transform="rotate(0,347.14,117)"><g class="cursor-pointer" transform="translate(330,105)"><rect class="bg" x="1.5" y="1.5" width="32" height="22" style="stroke-width: 3px; stroke: rgb(125, 190, 60); stroke-opacity: 1; fill: rgb(125, 190, 60); fill-opacity: 1;"/><text class="annotation-text" text-anchor="middle" x="17.34375" y="17" style="font-family: 'Open Sans', verdana, arial, sans-serif; font-size: 12px; fill: rgb(42, 63, 95); fill-opacity: 1; white-space: pre;">M̅E̅D̅</text></g></g></g><g class="annotation" data-index="28" style="opacity: 1;"><g class="annotation-text-g" transform="rotate(0,365,135.4)"><g class="cursor-pointer" transform="translate(344,123)"><rect class="bg" x="1.5" y="1.5" width="39" height="22" style="stroke-width: 3px; stroke: rgb(238, 202, 59); stroke-opacity: 1; fill: rgb(238, 202, 59); fill-opacity: 1;"/><text class="annotation-text" text-anchor="middle" x="20.90625" y="17" style="font-family: 'Open Sans', verdana, arial, sans-serif; font-size: 12px; fill: rgb(42, 63, 95); fill-opacity: 1; white-space: pre;">S̅F̅ T̅S̅</text></g></g></g><g class="annotation" data-index="29" style="opacity: 1;"><g class="annotation-text-g" transform="rotate(0,365,209)"><g class="cursor-pointer" transform="translate(348,197)"><rect class="bg" x="1.5" y="1.5" width="32" height="22" style="stroke-width: 3px; stroke: rgb(125, 190, 60); stroke-opacity: 1; fill: rgb(255, 255, 255); fill-opacity: 1;"/><text class="annotation-text" text-anchor="middle" x="17.34375" y="17" style="font-family: 'Open Sans', verdana, arial, sans-serif; font-size: 12px; fill: rgb(42, 63, 95); fill-opacity: 1; white-space: pre;">M̲E̲D̲</text></g></g></g></g></svg>